solid cvwt_topcap
facet normal 0.000000e+00 0.000000e+00 -1.000000e+00
 outer loop
  vertex 0.0000000e+00 0.0000000e+00 3.0670000e-01
  vertex 1.1974307e-02 7.8483755e-04 3.0670000e-01
  vertex 1.2000000e-02 0.0000000e+00 3.0670000e-01
 endloop
endfacet
facet normal 0.000000e+00 0.000000e+00 -1.000000e+00
 outer loop
  vertex 0.0000000e+00 0.0000000e+00 3.0670000e-01
  vertex 1.1897338e-02 1.5663143e-03 3.0670000e-01
  vertex 1.1974307e-02 7.8483755e-04 3.0670000e-01
 endloop
endfacet
facet normal 0.000000e+00 0.000000e+00 -1.000000e+00
 outer loop
  vertex 0.0000000e+00 0.0000000e+00 3.0670000e-01
  vertex 1.1769423e-02 2.3410839e-03 3.0670000e-01
  vertex 1.1897338e-02 1.5663143e-03 3.0670000e-01
 endloop
endfacet
facet normal 0.000000e+00 0.000000e+00 -1.000000e+00
 outer loop
  vertex 0.0000000e+00 0.0000000e+00 3.0670000e-01
  vertex 1.1591110e-02 3.1058285e-03 3.0670000e-01
  vertex 1.1769423e-02 2.3410839e-03 3.0670000e-01
 endloop
endfacet
facet normal 0.000000e+00 0.000000e+00 -1.000000e+00
 outer loop
  vertex 0.0000000e+00 0.0000000e+00 3.0670000e-01
  vertex 1.1363162e-02 3.8572736e-03 3.0670000e-01
  vertex 1.1591110e-02 3.1058285e-03 3.0670000e-01
 endloop
endfacet
facet normal 0.000000e+00 0.000000e+00 -1.000000e+00
 outer loop
  vertex 0.0000000e+00 0.0000000e+00 3.0670000e-01
  vertex 1.1086554e-02 4.5922012e-03 3.0670000e-01
  vertex 1.1363162e-02 3.8572736e-03 3.0670000e-01
 endloop
endfacet
facet normal 0.000000e+00 0.000000e+00 -1.000000e+00
 outer loop
  vertex 0.0000000e+00 0.0000000e+00 3.0670000e-01
  vertex 1.0762473e-02 5.3074643e-03 3.0670000e-01
  vertex 1.1086554e-02 4.5922012e-03 3.0670000e-01
 endloop
endfacet
facet normal 0.000000e+00 0.000000e+00 -1.000000e+00
 outer loop
  vertex 0.0000000e+00 0.0000000e+00 3.0670000e-01
  vertex 1.0392305e-02 6.0000000e-03 3.0670000e-01
  vertex 1.0762473e-02 5.3074643e-03 3.0670000e-01
 endloop
endfacet
facet normal 0.000000e+00 0.000000e+00 -1.000000e+00
 outer loop
  vertex 0.0000000e+00 0.0000000e+00 3.0670000e-01
  vertex 9.9776353e-03 6.6668428e-03 3.0670000e-01
  vertex 1.0392305e-02 6.0000000e-03 3.0670000e-01
 endloop
endfacet
facet normal 0.000000e+00 0.000000e+00 -1.000000e+00
 outer loop
  vertex 0.0000000e+00 0.0000000e+00 3.0670000e-01
  vertex 9.5202401e-03 7.3051371e-03 3.0670000e-01
  vertex 9.9776353e-03 6.6668428e-03 3.0670000e-01
 endloop
endfacet
facet normal 0.000000e+00 0.000000e+00 -1.000000e+00
 outer loop
  vertex 0.0000000e+00 0.0000000e+00 3.0670000e-01
  vertex 9.0220777e-03 7.9121498e-03 3.0670000e-01
  vertex 9.5202401e-03 7.3051371e-03 3.0670000e-01
 endloop
endfacet
facet normal 0.000000e+00 0.000000e+00 -1.000000e+00
 outer loop
  vertex 0.0000000e+00 0.0000000e+00 3.0670000e-01
  vertex 8.4852814e-03 8.4852814e-03 3.0670000e-01
  vertex 9.0220777e-03 7.9121498e-03 3.0670000e-01
 endloop
endfacet
facet normal 0.000000e+00 0.000000e+00 -1.000000e+00
 outer loop
  vertex 0.0000000e+00 0.0000000e+00 3.0670000e-01
  vertex 7.9121498e-03 9.0220777e-03 3.0670000e-01
  vertex 8.4852814e-03 8.4852814e-03 3.0670000e-01
 endloop
endfacet
facet normal 0.000000e+00 0.000000e+00 -1.000000e+00
 outer loop
  vertex 0.0000000e+00 0.0000000e+00 3.0670000e-01
  vertex 7.3051371e-03 9.5202401e-03 3.0670000e-01
  vertex 7.9121498e-03 9.0220777e-03 3.0670000e-01
 endloop
endfacet
facet normal 0.000000e+00 0.000000e+00 -1.000000e+00
 outer loop
  vertex 0.0000000e+00 0.0000000e+00 3.0670000e-01
  vertex 6.6668428e-03 9.9776353e-03 3.0670000e-01
  vertex 7.3051371e-03 9.5202401e-03 3.0670000e-01
 endloop
endfacet
facet normal 0.000000e+00 0.000000e+00 -1.000000e+00
 outer loop
  vertex 0.0000000e+00 0.0000000e+00 3.0670000e-01
  vertex 6.0000000e-03 1.0392305e-02 3.0670000e-01
  vertex 6.6668428e-03 9.9776353e-03 3.0670000e-01
 endloop
endfacet
facet normal 0.000000e+00 0.000000e+00 -1.000000e+00
 outer loop
  vertex 0.0000000e+00 0.0000000e+00 3.0670000e-01
  vertex 5.3074643e-03 1.0762473e-02 3.0670000e-01
  vertex 6.0000000e-03 1.0392305e-02 3.0670000e-01
 endloop
endfacet
facet normal 0.000000e+00 0.000000e+00 -1.000000e+00
 outer loop
  vertex 0.0000000e+00 0.0000000e+00 3.0670000e-01
  vertex 4.5922012e-03 1.1086554e-02 3.0670000e-01
  vertex 5.3074643e-03 1.0762473e-02 3.0670000e-01
 endloop
endfacet
facet normal 0.000000e+00 0.000000e+00 -1.000000e+00
 outer loop
  vertex 0.0000000e+00 0.0000000e+00 3.0670000e-01
  vertex 3.8572736e-03 1.1363162e-02 3.0670000e-01
  vertex 4.5922012e-03 1.1086554e-02 3.0670000e-01
 endloop
endfacet
facet normal 0.000000e+00 0.000000e+00 -1.000000e+00
 outer loop
  vertex 0.0000000e+00 0.0000000e+00 3.0670000e-01
  vertex 3.1058285e-03 1.1591110e-02 3.0670000e-01
  vertex 3.8572736e-03 1.1363162e-02 3.0670000e-01
 endloop
endfacet
facet normal 0.000000e+00 0.000000e+00 -1.000000e+00
 outer loop
  vertex 0.0000000e+00 0.0000000e+00 3.0670000e-01
  vertex 2.3410839e-03 1.1769423e-02 3.0670000e-01
  vertex 3.1058285e-03 1.1591110e-02 3.0670000e-01
 endloop
endfacet
facet normal 0.000000e+00 0.000000e+00 -1.000000e+00
 outer loop
  vertex 0.0000000e+00 0.0000000e+00 3.0670000e-01
  vertex 1.5663143e-03 1.1897338e-02 3.0670000e-01
  vertex 2.3410839e-03 1.1769423e-02 3.0670000e-01
 endloop
endfacet
facet normal 0.000000e+00 0.000000e+00 -1.000000e+00
 outer loop
  vertex 0.0000000e+00 0.0000000e+00 3.0670000e-01
  vertex 7.8483755e-04 1.1974307e-02 3.0670000e-01
  vertex 1.5663143e-03 1.1897338e-02 3.0670000e-01
 endloop
endfacet
facet normal 0.000000e+00 0.000000e+00 -1.000000e+00
 outer loop
  vertex 0.0000000e+00 0.0000000e+00 3.0670000e-01
  vertex 7.3478808e-19 1.2000000e-02 3.0670000e-01
  vertex 7.8483755e-04 1.1974307e-02 3.0670000e-01
 endloop
endfacet
facet normal 0.000000e+00 0.000000e+00 -1.000000e+00
 outer loop
  vertex 0.0000000e+00 0.0000000e+00 3.0670000e-01
  vertex -7.8483755e-04 1.1974307e-02 3.0670000e-01
  vertex 7.3478808e-19 1.2000000e-02 3.0670000e-01
 endloop
endfacet
facet normal 0.000000e+00 0.000000e+00 -1.000000e+00
 outer loop
  vertex -0.0000000e+00 0.0000000e+00 3.0670000e-01
  vertex -1.5663143e-03 1.1897338e-02 3.0670000e-01
  vertex -7.8483755e-04 1.1974307e-02 3.0670000e-01
 endloop
endfacet
facet normal 0.000000e+00 0.000000e+00 -1.000000e+00
 outer loop
  vertex -0.0000000e+00 0.0000000e+00 3.0670000e-01
  vertex -2.3410839e-03 1.1769423e-02 3.0670000e-01
  vertex -1.5663143e-03 1.1897338e-02 3.0670000e-01
 endloop
endfacet
facet normal 0.000000e+00 0.000000e+00 -1.000000e+00
 outer loop
  vertex -0.0000000e+00 0.0000000e+00 3.0670000e-01
  vertex -3.1058285e-03 1.1591110e-02 3.0670000e-01
  vertex -2.3410839e-03 1.1769423e-02 3.0670000e-01
 endloop
endfacet
facet normal 0.000000e+00 0.000000e+00 -1.000000e+00
 outer loop
  vertex -0.0000000e+00 0.0000000e+00 3.0670000e-01
  vertex -3.8572736e-03 1.1363162e-02 3.0670000e-01
  vertex -3.1058285e-03 1.1591110e-02 3.0670000e-01
 endloop
endfacet
facet normal 0.000000e+00 0.000000e+00 -1.000000e+00
 outer loop
  vertex -0.0000000e+00 0.0000000e+00 3.0670000e-01
  vertex -4.5922012e-03 1.1086554e-02 3.0670000e-01
  vertex -3.8572736e-03 1.1363162e-02 3.0670000e-01
 endloop
endfacet
facet normal 0.000000e+00 0.000000e+00 -1.000000e+00
 outer loop
  vertex -0.0000000e+00 0.0000000e+00 3.0670000e-01
  vertex -5.3074643e-03 1.0762473e-02 3.0670000e-01
  vertex -4.5922012e-03 1.1086554e-02 3.0670000e-01
 endloop
endfacet
facet normal 0.000000e+00 0.000000e+00 -1.000000e+00
 outer loop
  vertex -0.0000000e+00 0.0000000e+00 3.0670000e-01
  vertex -6.0000000e-03 1.0392305e-02 3.0670000e-01
  vertex -5.3074643e-03 1.0762473e-02 3.0670000e-01
 endloop
endfacet
facet normal 0.000000e+00 0.000000e+00 -1.000000e+00
 outer loop
  vertex -0.0000000e+00 0.0000000e+00 3.0670000e-01
  vertex -6.6668428e-03 9.9776353e-03 3.0670000e-01
  vertex -6.0000000e-03 1.0392305e-02 3.0670000e-01
 endloop
endfacet
facet normal 0.000000e+00 0.000000e+00 -1.000000e+00
 outer loop
  vertex -0.0000000e+00 0.0000000e+00 3.0670000e-01
  vertex -7.3051371e-03 9.5202401e-03 3.0670000e-01
  vertex -6.6668428e-03 9.9776353e-03 3.0670000e-01
 endloop
endfacet
facet normal 0.000000e+00 0.000000e+00 -1.000000e+00
 outer loop
  vertex -0.0000000e+00 0.0000000e+00 3.0670000e-01
  vertex -7.9121498e-03 9.0220777e-03 3.0670000e-01
  vertex -7.3051371e-03 9.5202401e-03 3.0670000e-01
 endloop
endfacet
facet normal 0.000000e+00 0.000000e+00 -1.000000e+00
 outer loop
  vertex -0.0000000e+00 0.0000000e+00 3.0670000e-01
  vertex -8.4852814e-03 8.4852814e-03 3.0670000e-01
  vertex -7.9121498e-03 9.0220777e-03 3.0670000e-01
 endloop
endfacet
facet normal 0.000000e+00 0.000000e+00 -1.000000e+00
 outer loop
  vertex -0.0000000e+00 0.0000000e+00 3.0670000e-01
  vertex -9.0220777e-03 7.9121498e-03 3.0670000e-01
  vertex -8.4852814e-03 8.4852814e-03 3.0670000e-01
 endloop
endfacet
facet normal 0.000000e+00 0.000000e+00 -1.000000e+00
 outer loop
  vertex -0.0000000e+00 0.0000000e+00 3.0670000e-01
  vertex -9.5202401e-03 7.3051371e-03 3.0670000e-01
  vertex -9.0220777e-03 7.9121498e-03 3.0670000e-01
 endloop
endfacet
facet normal 0.000000e+00 0.000000e+00 -1.000000e+00
 outer loop
  vertex -0.0000000e+00 0.0000000e+00 3.0670000e-01
  vertex -9.9776353e-03 6.6668428e-03 3.0670000e-01
  vertex -9.5202401e-03 7.3051371e-03 3.0670000e-01
 endloop
endfacet
facet normal 0.000000e+00 0.000000e+00 -1.000000e+00
 outer loop
  vertex -0.0000000e+00 0.0000000e+00 3.0670000e-01
  vertex -1.0392305e-02 6.0000000e-03 3.0670000e-01
  vertex -9.9776353e-03 6.6668428e-03 3.0670000e-01
 endloop
endfacet
facet normal 0.000000e+00 0.000000e+00 -1.000000e+00
 outer loop
  vertex -0.0000000e+00 0.0000000e+00 3.0670000e-01
  vertex -1.0762473e-02 5.3074643e-03 3.0670000e-01
  vertex -1.0392305e-02 6.0000000e-03 3.0670000e-01
 endloop
endfacet
facet normal 0.000000e+00 0.000000e+00 -1.000000e+00
 outer loop
  vertex -0.0000000e+00 0.0000000e+00 3.0670000e-01
  vertex -1.1086554e-02 4.5922012e-03 3.0670000e-01
  vertex -1.0762473e-02 5.3074643e-03 3.0670000e-01
 endloop
endfacet
facet normal 0.000000e+00 0.000000e+00 -1.000000e+00
 outer loop
  vertex -0.0000000e+00 0.0000000e+00 3.0670000e-01
  vertex -1.1363162e-02 3.8572736e-03 3.0670000e-01
  vertex -1.1086554e-02 4.5922012e-03 3.0670000e-01
 endloop
endfacet
facet normal 0.000000e+00 0.000000e+00 -1.000000e+00
 outer loop
  vertex -0.0000000e+00 0.0000000e+00 3.0670000e-01
  vertex -1.1591110e-02 3.1058285e-03 3.0670000e-01
  vertex -1.1363162e-02 3.8572736e-03 3.0670000e-01
 endloop
endfacet
facet normal 0.000000e+00 0.000000e+00 -1.000000e+00
 outer loop
  vertex -0.0000000e+00 0.0000000e+00 3.0670000e-01
  vertex -1.1769423e-02 2.3410839e-03 3.0670000e-01
  vertex -1.1591110e-02 3.1058285e-03 3.0670000e-01
 endloop
endfacet
facet normal 0.000000e+00 0.000000e+00 -1.000000e+00
 outer loop
  vertex -0.0000000e+00 0.0000000e+00 3.0670000e-01
  vertex -1.1897338e-02 1.5663143e-03 3.0670000e-01
  vertex -1.1769423e-02 2.3410839e-03 3.0670000e-01
 endloop
endfacet
facet normal 0.000000e+00 0.000000e+00 -1.000000e+00
 outer loop
  vertex -0.0000000e+00 0.0000000e+00 3.0670000e-01
  vertex -1.1974307e-02 7.8483755e-04 3.0670000e-01
  vertex -1.1897338e-02 1.5663143e-03 3.0670000e-01
 endloop
endfacet
facet normal 0.000000e+00 0.000000e+00 -1.000000e+00
 outer loop
  vertex -0.0000000e+00 0.0000000e+00 3.0670000e-01
  vertex -1.2000000e-02 1.4695762e-18 3.0670000e-01
  vertex -1.1974307e-02 7.8483755e-04 3.0670000e-01
 endloop
endfacet
facet normal -0.000000e+00 0.000000e+00 -1.000000e+00
 outer loop
  vertex -0.0000000e+00 0.0000000e+00 3.0670000e-01
  vertex -1.1974307e-02 -7.8483755e-04 3.0670000e-01
  vertex -1.2000000e-02 1.4695762e-18 3.0670000e-01
 endloop
endfacet
facet normal 0.000000e+00 0.000000e+00 -1.000000e+00
 outer loop
  vertex -0.0000000e+00 -0.0000000e+00 3.0670000e-01
  vertex -1.1897338e-02 -1.5663143e-03 3.0670000e-01
  vertex -1.1974307e-02 -7.8483755e-04 3.0670000e-01
 endloop
endfacet
facet normal 0.000000e+00 0.000000e+00 -1.000000e+00
 outer loop
  vertex -0.0000000e+00 -0.0000000e+00 3.0670000e-01
  vertex -1.1769423e-02 -2.3410839e-03 3.0670000e-01
  vertex -1.1897338e-02 -1.5663143e-03 3.0670000e-01
 endloop
endfacet
facet normal 0.000000e+00 0.000000e+00 -1.000000e+00
 outer loop
  vertex -0.0000000e+00 -0.0000000e+00 3.0670000e-01
  vertex -1.1591110e-02 -3.1058285e-03 3.0670000e-01
  vertex -1.1769423e-02 -2.3410839e-03 3.0670000e-01
 endloop
endfacet
facet normal 0.000000e+00 0.000000e+00 -1.000000e+00
 outer loop
  vertex -0.0000000e+00 -0.0000000e+00 3.0670000e-01
  vertex -1.1363162e-02 -3.8572736e-03 3.0670000e-01
  vertex -1.1591110e-02 -3.1058285e-03 3.0670000e-01
 endloop
endfacet
facet normal 0.000000e+00 0.000000e+00 -1.000000e+00
 outer loop
  vertex -0.0000000e+00 -0.0000000e+00 3.0670000e-01
  vertex -1.1086554e-02 -4.5922012e-03 3.0670000e-01
  vertex -1.1363162e-02 -3.8572736e-03 3.0670000e-01
 endloop
endfacet
facet normal 0.000000e+00 0.000000e+00 -1.000000e+00
 outer loop
  vertex -0.0000000e+00 -0.0000000e+00 3.0670000e-01
  vertex -1.0762473e-02 -5.3074643e-03 3.0670000e-01
  vertex -1.1086554e-02 -4.5922012e-03 3.0670000e-01
 endloop
endfacet
facet normal 0.000000e+00 0.000000e+00 -1.000000e+00
 outer loop
  vertex -0.0000000e+00 -0.0000000e+00 3.0670000e-01
  vertex -1.0392305e-02 -6.0000000e-03 3.0670000e-01
  vertex -1.0762473e-02 -5.3074643e-03 3.0670000e-01
 endloop
endfacet
facet normal 0.000000e+00 0.000000e+00 -1.000000e+00
 outer loop
  vertex -0.0000000e+00 -0.0000000e+00 3.0670000e-01
  vertex -9.9776353e-03 -6.6668428e-03 3.0670000e-01
  vertex -1.0392305e-02 -6.0000000e-03 3.0670000e-01
 endloop
endfacet
facet normal 0.000000e+00 0.000000e+00 -1.000000e+00
 outer loop
  vertex -0.0000000e+00 -0.0000000e+00 3.0670000e-01
  vertex -9.5202401e-03 -7.3051371e-03 3.0670000e-01
  vertex -9.9776353e-03 -6.6668428e-03 3.0670000e-01
 endloop
endfacet
facet normal 0.000000e+00 0.000000e+00 -1.000000e+00
 outer loop
  vertex -0.0000000e+00 -0.0000000e+00 3.0670000e-01
  vertex -9.0220777e-03 -7.9121498e-03 3.0670000e-01
  vertex -9.5202401e-03 -7.3051371e-03 3.0670000e-01
 endloop
endfacet
facet normal 0.000000e+00 0.000000e+00 -1.000000e+00
 outer loop
  vertex -0.0000000e+00 -0.0000000e+00 3.0670000e-01
  vertex -8.4852814e-03 -8.4852814e-03 3.0670000e-01
  vertex -9.0220777e-03 -7.9121498e-03 3.0670000e-01
 endloop
endfacet
facet normal 0.000000e+00 0.000000e+00 -1.000000e+00
 outer loop
  vertex -0.0000000e+00 -0.0000000e+00 3.0670000e-01
  vertex -7.9121498e-03 -9.0220777e-03 3.0670000e-01
  vertex -8.4852814e-03 -8.4852814e-03 3.0670000e-01
 endloop
endfacet
facet normal 0.000000e+00 0.000000e+00 -1.000000e+00
 outer loop
  vertex -0.0000000e+00 -0.0000000e+00 3.0670000e-01
  vertex -7.3051371e-03 -9.5202401e-03 3.0670000e-01
  vertex -7.9121498e-03 -9.0220777e-03 3.0670000e-01
 endloop
endfacet
facet normal 0.000000e+00 0.000000e+00 -1.000000e+00
 outer loop
  vertex -0.0000000e+00 -0.0000000e+00 3.0670000e-01
  vertex -6.6668428e-03 -9.9776353e-03 3.0670000e-01
  vertex -7.3051371e-03 -9.5202401e-03 3.0670000e-01
 endloop
endfacet
facet normal 0.000000e+00 0.000000e+00 -1.000000e+00
 outer loop
  vertex -0.0000000e+00 -0.0000000e+00 3.0670000e-01
  vertex -6.0000000e-03 -1.0392305e-02 3.0670000e-01
  vertex -6.6668428e-03 -9.9776353e-03 3.0670000e-01
 endloop
endfacet
facet normal 0.000000e+00 0.000000e+00 -1.000000e+00
 outer loop
  vertex -0.0000000e+00 -0.0000000e+00 3.0670000e-01
  vertex -5.3074643e-03 -1.0762473e-02 3.0670000e-01
  vertex -6.0000000e-03 -1.0392305e-02 3.0670000e-01
 endloop
endfacet
facet normal 0.000000e+00 0.000000e+00 -1.000000e+00
 outer loop
  vertex -0.0000000e+00 -0.0000000e+00 3.0670000e-01
  vertex -4.5922012e-03 -1.1086554e-02 3.0670000e-01
  vertex -5.3074643e-03 -1.0762473e-02 3.0670000e-01
 endloop
endfacet
facet normal 0.000000e+00 0.000000e+00 -1.000000e+00
 outer loop
  vertex -0.0000000e+00 -0.0000000e+00 3.0670000e-01
  vertex -3.8572736e-03 -1.1363162e-02 3.0670000e-01
  vertex -4.5922012e-03 -1.1086554e-02 3.0670000e-01
 endloop
endfacet
facet normal 0.000000e+00 0.000000e+00 -1.000000e+00
 outer loop
  vertex -0.0000000e+00 -0.0000000e+00 3.0670000e-01
  vertex -3.1058285e-03 -1.1591110e-02 3.0670000e-01
  vertex -3.8572736e-03 -1.1363162e-02 3.0670000e-01
 endloop
endfacet
facet normal 0.000000e+00 0.000000e+00 -1.000000e+00
 outer loop
  vertex -0.0000000e+00 -0.0000000e+00 3.0670000e-01
  vertex -2.3410839e-03 -1.1769423e-02 3.0670000e-01
  vertex -3.1058285e-03 -1.1591110e-02 3.0670000e-01
 endloop
endfacet
facet normal 0.000000e+00 0.000000e+00 -1.000000e+00
 outer loop
  vertex -0.0000000e+00 -0.0000000e+00 3.0670000e-01
  vertex -1.5663143e-03 -1.1897338e-02 3.0670000e-01
  vertex -2.3410839e-03 -1.1769423e-02 3.0670000e-01
 endloop
endfacet
facet normal 0.000000e+00 0.000000e+00 -1.000000e+00
 outer loop
  vertex -0.0000000e+00 -0.0000000e+00 3.0670000e-01
  vertex -7.8483755e-04 -1.1974307e-02 3.0670000e-01
  vertex -1.5663143e-03 -1.1897338e-02 3.0670000e-01
 endloop
endfacet
facet normal 0.000000e+00 0.000000e+00 -1.000000e+00
 outer loop
  vertex -0.0000000e+00 -0.0000000e+00 3.0670000e-01
  vertex -2.2043642e-18 -1.2000000e-02 3.0670000e-01
  vertex -7.8483755e-04 -1.1974307e-02 3.0670000e-01
 endloop
endfacet
facet normal 0.000000e+00 -0.000000e+00 -1.000000e+00
 outer loop
  vertex -0.0000000e+00 -0.0000000e+00 3.0670000e-01
  vertex 7.8483755e-04 -1.1974307e-02 3.0670000e-01
  vertex -2.2043642e-18 -1.2000000e-02 3.0670000e-01
 endloop
endfacet
facet normal 0.000000e+00 0.000000e+00 -1.000000e+00
 outer loop
  vertex 0.0000000e+00 -0.0000000e+00 3.0670000e-01
  vertex 1.5663143e-03 -1.1897338e-02 3.0670000e-01
  vertex 7.8483755e-04 -1.1974307e-02 3.0670000e-01
 endloop
endfacet
facet normal 0.000000e+00 0.000000e+00 -1.000000e+00
 outer loop
  vertex 0.0000000e+00 -0.0000000e+00 3.0670000e-01
  vertex 2.3410839e-03 -1.1769423e-02 3.0670000e-01
  vertex 1.5663143e-03 -1.1897338e-02 3.0670000e-01
 endloop
endfacet
facet normal 0.000000e+00 0.000000e+00 -1.000000e+00
 outer loop
  vertex 0.0000000e+00 -0.0000000e+00 3.0670000e-01
  vertex 3.1058285e-03 -1.1591110e-02 3.0670000e-01
  vertex 2.3410839e-03 -1.1769423e-02 3.0670000e-01
 endloop
endfacet
facet normal 0.000000e+00 0.000000e+00 -1.000000e+00
 outer loop
  vertex 0.0000000e+00 -0.0000000e+00 3.0670000e-01
  vertex 3.8572736e-03 -1.1363162e-02 3.0670000e-01
  vertex 3.1058285e-03 -1.1591110e-02 3.0670000e-01
 endloop
endfacet
facet normal 0.000000e+00 0.000000e+00 -1.000000e+00
 outer loop
  vertex 0.0000000e+00 -0.0000000e+00 3.0670000e-01
  vertex 4.5922012e-03 -1.1086554e-02 3.0670000e-01
  vertex 3.8572736e-03 -1.1363162e-02 3.0670000e-01
 endloop
endfacet
facet normal 0.000000e+00 0.000000e+00 -1.000000e+00
 outer loop
  vertex 0.0000000e+00 -0.0000000e+00 3.0670000e-01
  vertex 5.3074643e-03 -1.0762473e-02 3.0670000e-01
  vertex 4.5922012e-03 -1.1086554e-02 3.0670000e-01
 endloop
endfacet
facet normal 0.000000e+00 0.000000e+00 -1.000000e+00
 outer loop
  vertex 0.0000000e+00 -0.0000000e+00 3.0670000e-01
  vertex 6.0000000e-03 -1.0392305e-02 3.0670000e-01
  vertex 5.3074643e-03 -1.0762473e-02 3.0670000e-01
 endloop
endfacet
facet normal 0.000000e+00 0.000000e+00 -1.000000e+00
 outer loop
  vertex 0.0000000e+00 -0.0000000e+00 3.0670000e-01
  vertex 6.6668428e-03 -9.9776353e-03 3.0670000e-01
  vertex 6.0000000e-03 -1.0392305e-02 3.0670000e-01
 endloop
endfacet
facet normal 0.000000e+00 0.000000e+00 -1.000000e+00
 outer loop
  vertex 0.0000000e+00 -0.0000000e+00 3.0670000e-01
  vertex 7.3051371e-03 -9.5202401e-03 3.0670000e-01
  vertex 6.6668428e-03 -9.9776353e-03 3.0670000e-01
 endloop
endfacet
facet normal 0.000000e+00 0.000000e+00 -1.000000e+00
 outer loop
  vertex 0.0000000e+00 -0.0000000e+00 3.0670000e-01
  vertex 7.9121498e-03 -9.0220777e-03 3.0670000e-01
  vertex 7.3051371e-03 -9.5202401e-03 3.0670000e-01
 endloop
endfacet
facet normal 0.000000e+00 0.000000e+00 -1.000000e+00
 outer loop
  vertex 0.0000000e+00 -0.0000000e+00 3.0670000e-01
  vertex 8.4852814e-03 -8.4852814e-03 3.0670000e-01
  vertex 7.9121498e-03 -9.0220777e-03 3.0670000e-01
 endloop
endfacet
facet normal 0.000000e+00 0.000000e+00 -1.000000e+00
 outer loop
  vertex 0.0000000e+00 -0.0000000e+00 3.0670000e-01
  vertex 9.0220777e-03 -7.9121498e-03 3.0670000e-01
  vertex 8.4852814e-03 -8.4852814e-03 3.0670000e-01
 endloop
endfacet
facet normal 0.000000e+00 0.000000e+00 -1.000000e+00
 outer loop
  vertex 0.0000000e+00 -0.0000000e+00 3.0670000e-01
  vertex 9.5202401e-03 -7.3051371e-03 3.0670000e-01
  vertex 9.0220777e-03 -7.9121498e-03 3.0670000e-01
 endloop
endfacet
facet normal 0.000000e+00 0.000000e+00 -1.000000e+00
 outer loop
  vertex 0.0000000e+00 -0.0000000e+00 3.0670000e-01
  vertex 9.9776353e-03 -6.6668428e-03 3.0670000e-01
  vertex 9.5202401e-03 -7.3051371e-03 3.0670000e-01
 endloop
endfacet
facet normal 0.000000e+00 0.000000e+00 -1.000000e+00
 outer loop
  vertex 0.0000000e+00 -0.0000000e+00 3.0670000e-01
  vertex 1.0392305e-02 -6.0000000e-03 3.0670000e-01
  vertex 9.9776353e-03 -6.6668428e-03 3.0670000e-01
 endloop
endfacet
facet normal 0.000000e+00 0.000000e+00 -1.000000e+00
 outer loop
  vertex 0.0000000e+00 -0.0000000e+00 3.0670000e-01
  vertex 1.0762473e-02 -5.3074643e-03 3.0670000e-01
  vertex 1.0392305e-02 -6.0000000e-03 3.0670000e-01
 endloop
endfacet
facet normal 0.000000e+00 0.000000e+00 -1.000000e+00
 outer loop
  vertex 0.0000000e+00 -0.0000000e+00 3.0670000e-01
  vertex 1.1086554e-02 -4.5922012e-03 3.0670000e-01
  vertex 1.0762473e-02 -5.3074643e-03 3.0670000e-01
 endloop
endfacet
facet normal 0.000000e+00 0.000000e+00 -1.000000e+00
 outer loop
  vertex 0.0000000e+00 -0.0000000e+00 3.0670000e-01
  vertex 1.1363162e-02 -3.8572736e-03 3.0670000e-01
  vertex 1.1086554e-02 -4.5922012e-03 3.0670000e-01
 endloop
endfacet
facet normal 0.000000e+00 0.000000e+00 -1.000000e+00
 outer loop
  vertex 0.0000000e+00 -0.0000000e+00 3.0670000e-01
  vertex 1.1591110e-02 -3.1058285e-03 3.0670000e-01
  vertex 1.1363162e-02 -3.8572736e-03 3.0670000e-01
 endloop
endfacet
facet normal 0.000000e+00 0.000000e+00 -1.000000e+00
 outer loop
  vertex 0.0000000e+00 -0.0000000e+00 3.0670000e-01
  vertex 1.1769423e-02 -2.3410839e-03 3.0670000e-01
  vertex 1.1591110e-02 -3.1058285e-03 3.0670000e-01
 endloop
endfacet
facet normal 0.000000e+00 0.000000e+00 -1.000000e+00
 outer loop
  vertex 0.0000000e+00 -0.0000000e+00 3.0670000e-01
  vertex 1.1897338e-02 -1.5663143e-03 3.0670000e-01
  vertex 1.1769423e-02 -2.3410839e-03 3.0670000e-01
 endloop
endfacet
facet normal 0.000000e+00 0.000000e+00 -1.000000e+00
 outer loop
  vertex 0.0000000e+00 -0.0000000e+00 3.0670000e-01
  vertex 1.1974307e-02 -7.8483755e-04 3.0670000e-01
  vertex 1.1897338e-02 -1.5663143e-03 3.0670000e-01
 endloop
endfacet
facet normal 0.000000e+00 0.000000e+00 -1.000000e+00
 outer loop
  vertex 0.0000000e+00 -0.0000000e+00 3.0670000e-01
  vertex 1.2000000e-02 0.0000000e+00 3.0670000e-01
  vertex 1.1974307e-02 -7.8483755e-04 3.0670000e-01
 endloop
endfacet
facet normal 9.994646e-01 3.271908e-02 -0.000000e+00
 outer loop
  vertex 1.2000000e-02 0.0000000e+00 3.0670000e-01
  vertex 1.1974307e-02 7.8483755e-04 3.0870000e-01
  vertex 1.2000000e-02 0.0000000e+00 3.0870000e-01
 endloop
endfacet
facet normal 9.994646e-01 3.271908e-02 0.000000e+00
 outer loop
  vertex 1.2000000e-02 0.0000000e+00 3.0670000e-01
  vertex 1.1974307e-02 7.8483755e-04 3.0670000e-01
  vertex 1.1974307e-02 7.8483755e-04 3.0870000e-01
 endloop
endfacet
facet normal 9.951847e-01 9.801714e-02 -0.000000e+00
 outer loop
  vertex 1.1974307e-02 7.8483755e-04 3.0670000e-01
  vertex 1.1897338e-02 1.5663143e-03 3.0870000e-01
  vertex 1.1974307e-02 7.8483755e-04 3.0870000e-01
 endloop
endfacet
facet normal 9.951847e-01 9.801714e-02 0.000000e+00
 outer loop
  vertex 1.1974307e-02 7.8483755e-04 3.0670000e-01
  vertex 1.1897338e-02 1.5663143e-03 3.0670000e-01
  vertex 1.1897338e-02 1.5663143e-03 3.0870000e-01
 endloop
endfacet
facet normal 9.866433e-01 1.628955e-01 -0.000000e+00
 outer loop
  vertex 1.1897338e-02 1.5663143e-03 3.0670000e-01
  vertex 1.1769423e-02 2.3410839e-03 3.0870000e-01
  vertex 1.1897338e-02 1.5663143e-03 3.0870000e-01
 endloop
endfacet
facet normal 9.866433e-01 1.628955e-01 0.000000e+00
 outer loop
  vertex 1.1897338e-02 1.5663143e-03 3.0670000e-01
  vertex 1.1769423e-02 2.3410839e-03 3.0670000e-01
  vertex 1.1769423e-02 2.3410839e-03 3.0870000e-01
 endloop
endfacet
facet normal 9.738770e-01 2.270763e-01 -0.000000e+00
 outer loop
  vertex 1.1769423e-02 2.3410839e-03 3.0670000e-01
  vertex 1.1591110e-02 3.1058285e-03 3.0870000e-01
  vertex 1.1769423e-02 2.3410839e-03 3.0870000e-01
 endloop
endfacet
facet normal 9.738770e-01 2.270763e-01 0.000000e+00
 outer loop
  vertex 1.1769423e-02 2.3410839e-03 3.0670000e-01
  vertex 1.1591110e-02 3.1058285e-03 3.0670000e-01
  vertex 1.1591110e-02 3.1058285e-03 3.0870000e-01
 endloop
endfacet
facet normal 9.569403e-01 2.902847e-01 -0.000000e+00
 outer loop
  vertex 1.1591110e-02 3.1058285e-03 3.0670000e-01
  vertex 1.1363162e-02 3.8572736e-03 3.0870000e-01
  vertex 1.1591110e-02 3.1058285e-03 3.0870000e-01
 endloop
endfacet
facet normal 9.569403e-01 2.902847e-01 0.000000e+00
 outer loop
  vertex 1.1591110e-02 3.1058285e-03 3.0670000e-01
  vertex 1.1363162e-02 3.8572736e-03 3.0670000e-01
  vertex 1.1363162e-02 3.8572736e-03 3.0870000e-01
 endloop
endfacet
facet normal 9.359059e-01 3.522500e-01 -0.000000e+00
 outer loop
  vertex 1.1363162e-02 3.8572736e-03 3.0670000e-01
  vertex 1.1086554e-02 4.5922012e-03 3.0870000e-01
  vertex 1.1363162e-02 3.8572736e-03 3.0870000e-01
 endloop
endfacet
facet normal 9.359059e-01 3.522500e-01 0.000000e+00
 outer loop
  vertex 1.1363162e-02 3.8572736e-03 3.0670000e-01
  vertex 1.1086554e-02 4.5922012e-03 3.0670000e-01
  vertex 1.1086554e-02 4.5922012e-03 3.0870000e-01
 endloop
endfacet
facet normal 9.108638e-01 4.127070e-01 -0.000000e+00
 outer loop
  vertex 1.1086554e-02 4.5922012e-03 3.0670000e-01
  vertex 1.0762473e-02 5.3074643e-03 3.0870000e-01
  vertex 1.1086554e-02 4.5922012e-03 3.0870000e-01
 endloop
endfacet
facet normal 9.108638e-01 4.127070e-01 0.000000e+00
 outer loop
  vertex 1.1086554e-02 4.5922012e-03 3.0670000e-01
  vertex 1.0762473e-02 5.3074643e-03 3.0670000e-01
  vertex 1.0762473e-02 5.3074643e-03 3.0870000e-01
 endloop
endfacet
facet normal 8.819213e-01 4.713967e-01 -0.000000e+00
 outer loop
  vertex 1.0762473e-02 5.3074643e-03 3.0670000e-01
  vertex 1.0392305e-02 6.0000000e-03 3.0870000e-01
  vertex 1.0762473e-02 5.3074643e-03 3.0870000e-01
 endloop
endfacet
facet normal 8.819213e-01 4.713967e-01 0.000000e+00
 outer loop
  vertex 1.0762473e-02 5.3074643e-03 3.0670000e-01
  vertex 1.0392305e-02 6.0000000e-03 3.0670000e-01
  vertex 1.0392305e-02 6.0000000e-03 3.0870000e-01
 endloop
endfacet
facet normal 8.492022e-01 5.280679e-01 -0.000000e+00
 outer loop
  vertex 1.0392305e-02 6.0000000e-03 3.0670000e-01
  vertex 9.9776353e-03 6.6668428e-03 3.0870000e-01
  vertex 1.0392305e-02 6.0000000e-03 3.0870000e-01
 endloop
endfacet
facet normal 8.492022e-01 5.280679e-01 0.000000e+00
 outer loop
  vertex 1.0392305e-02 6.0000000e-03 3.0670000e-01
  vertex 9.9776353e-03 6.6668428e-03 3.0670000e-01
  vertex 9.9776353e-03 6.6668428e-03 3.0870000e-01
 endloop
endfacet
facet normal 8.128467e-01 5.824777e-01 -0.000000e+00
 outer loop
  vertex 9.9776353e-03 6.6668428e-03 3.0670000e-01
  vertex 9.5202401e-03 7.3051371e-03 3.0870000e-01
  vertex 9.9776353e-03 6.6668428e-03 3.0870000e-01
 endloop
endfacet
facet normal 8.128467e-01 5.824777e-01 0.000000e+00
 outer loop
  vertex 9.9776353e-03 6.6668428e-03 3.0670000e-01
  vertex 9.5202401e-03 7.3051371e-03 3.0670000e-01
  vertex 9.5202401e-03 7.3051371e-03 3.0870000e-01
 endloop
endfacet
facet normal 7.730105e-01 6.343933e-01 -0.000000e+00
 outer loop
  vertex 9.5202401e-03 7.3051371e-03 3.0670000e-01
  vertex 9.0220777e-03 7.9121498e-03 3.0870000e-01
  vertex 9.5202401e-03 7.3051371e-03 3.0870000e-01
 endloop
endfacet
facet normal 7.730105e-01 6.343933e-01 0.000000e+00
 outer loop
  vertex 9.5202401e-03 7.3051371e-03 3.0670000e-01
  vertex 9.0220777e-03 7.9121498e-03 3.0670000e-01
  vertex 9.0220777e-03 7.9121498e-03 3.0870000e-01
 endloop
endfacet
facet normal 7.298641e-01 6.835923e-01 -0.000000e+00
 outer loop
  vertex 9.0220777e-03 7.9121498e-03 3.0670000e-01
  vertex 8.4852814e-03 8.4852814e-03 3.0870000e-01
  vertex 9.0220777e-03 7.9121498e-03 3.0870000e-01
 endloop
endfacet
facet normal 7.298641e-01 6.835923e-01 0.000000e+00
 outer loop
  vertex 9.0220777e-03 7.9121498e-03 3.0670000e-01
  vertex 8.4852814e-03 8.4852814e-03 3.0670000e-01
  vertex 8.4852814e-03 8.4852814e-03 3.0870000e-01
 endloop
endfacet
facet normal 6.835923e-01 7.298641e-01 -0.000000e+00
 outer loop
  vertex 8.4852814e-03 8.4852814e-03 3.0670000e-01
  vertex 7.9121498e-03 9.0220777e-03 3.0870000e-01
  vertex 8.4852814e-03 8.4852814e-03 3.0870000e-01
 endloop
endfacet
facet normal 6.835923e-01 7.298641e-01 0.000000e+00
 outer loop
  vertex 8.4852814e-03 8.4852814e-03 3.0670000e-01
  vertex 7.9121498e-03 9.0220777e-03 3.0670000e-01
  vertex 7.9121498e-03 9.0220777e-03 3.0870000e-01
 endloop
endfacet
facet normal 6.343933e-01 7.730105e-01 -0.000000e+00
 outer loop
  vertex 7.9121498e-03 9.0220777e-03 3.0670000e-01
  vertex 7.3051371e-03 9.5202401e-03 3.0870000e-01
  vertex 7.9121498e-03 9.0220777e-03 3.0870000e-01
 endloop
endfacet
facet normal 6.343933e-01 7.730105e-01 0.000000e+00
 outer loop
  vertex 7.9121498e-03 9.0220777e-03 3.0670000e-01
  vertex 7.3051371e-03 9.5202401e-03 3.0670000e-01
  vertex 7.3051371e-03 9.5202401e-03 3.0870000e-01
 endloop
endfacet
facet normal 5.824777e-01 8.128467e-01 -0.000000e+00
 outer loop
  vertex 7.3051371e-03 9.5202401e-03 3.0670000e-01
  vertex 6.6668428e-03 9.9776353e-03 3.0870000e-01
  vertex 7.3051371e-03 9.5202401e-03 3.0870000e-01
 endloop
endfacet
facet normal 5.824777e-01 8.128467e-01 0.000000e+00
 outer loop
  vertex 7.3051371e-03 9.5202401e-03 3.0670000e-01
  vertex 6.6668428e-03 9.9776353e-03 3.0670000e-01
  vertex 6.6668428e-03 9.9776353e-03 3.0870000e-01
 endloop
endfacet
facet normal 5.280679e-01 8.492022e-01 -0.000000e+00
 outer loop
  vertex 6.6668428e-03 9.9776353e-03 3.0670000e-01
  vertex 6.0000000e-03 1.0392305e-02 3.0870000e-01
  vertex 6.6668428e-03 9.9776353e-03 3.0870000e-01
 endloop
endfacet
facet normal 5.280679e-01 8.492022e-01 0.000000e+00
 outer loop
  vertex 6.6668428e-03 9.9776353e-03 3.0670000e-01
  vertex 6.0000000e-03 1.0392305e-02 3.0670000e-01
  vertex 6.0000000e-03 1.0392305e-02 3.0870000e-01
 endloop
endfacet
facet normal 4.713967e-01 8.819213e-01 -0.000000e+00
 outer loop
  vertex 6.0000000e-03 1.0392305e-02 3.0670000e-01
  vertex 5.3074643e-03 1.0762473e-02 3.0870000e-01
  vertex 6.0000000e-03 1.0392305e-02 3.0870000e-01
 endloop
endfacet
facet normal 4.713967e-01 8.819213e-01 0.000000e+00
 outer loop
  vertex 6.0000000e-03 1.0392305e-02 3.0670000e-01
  vertex 5.3074643e-03 1.0762473e-02 3.0670000e-01
  vertex 5.3074643e-03 1.0762473e-02 3.0870000e-01
 endloop
endfacet
facet normal 4.127070e-01 9.108638e-01 -0.000000e+00
 outer loop
  vertex 5.3074643e-03 1.0762473e-02 3.0670000e-01
  vertex 4.5922012e-03 1.1086554e-02 3.0870000e-01
  vertex 5.3074643e-03 1.0762473e-02 3.0870000e-01
 endloop
endfacet
facet normal 4.127070e-01 9.108638e-01 0.000000e+00
 outer loop
  vertex 5.3074643e-03 1.0762473e-02 3.0670000e-01
  vertex 4.5922012e-03 1.1086554e-02 3.0670000e-01
  vertex 4.5922012e-03 1.1086554e-02 3.0870000e-01
 endloop
endfacet
facet normal 3.522500e-01 9.359059e-01 -0.000000e+00
 outer loop
  vertex 4.5922012e-03 1.1086554e-02 3.0670000e-01
  vertex 3.8572736e-03 1.1363162e-02 3.0870000e-01
  vertex 4.5922012e-03 1.1086554e-02 3.0870000e-01
 endloop
endfacet
facet normal 3.522500e-01 9.359059e-01 0.000000e+00
 outer loop
  vertex 4.5922012e-03 1.1086554e-02 3.0670000e-01
  vertex 3.8572736e-03 1.1363162e-02 3.0670000e-01
  vertex 3.8572736e-03 1.1363162e-02 3.0870000e-01
 endloop
endfacet
facet normal 2.902847e-01 9.569403e-01 -0.000000e+00
 outer loop
  vertex 3.8572736e-03 1.1363162e-02 3.0670000e-01
  vertex 3.1058285e-03 1.1591110e-02 3.0870000e-01
  vertex 3.8572736e-03 1.1363162e-02 3.0870000e-01
 endloop
endfacet
facet normal 2.902847e-01 9.569403e-01 0.000000e+00
 outer loop
  vertex 3.8572736e-03 1.1363162e-02 3.0670000e-01
  vertex 3.1058285e-03 1.1591110e-02 3.0670000e-01
  vertex 3.1058285e-03 1.1591110e-02 3.0870000e-01
 endloop
endfacet
facet normal 2.270763e-01 9.738770e-01 -0.000000e+00
 outer loop
  vertex 3.1058285e-03 1.1591110e-02 3.0670000e-01
  vertex 2.3410839e-03 1.1769423e-02 3.0870000e-01
  vertex 3.1058285e-03 1.1591110e-02 3.0870000e-01
 endloop
endfacet
facet normal 2.270763e-01 9.738770e-01 0.000000e+00
 outer loop
  vertex 3.1058285e-03 1.1591110e-02 3.0670000e-01
  vertex 2.3410839e-03 1.1769423e-02 3.0670000e-01
  vertex 2.3410839e-03 1.1769423e-02 3.0870000e-01
 endloop
endfacet
facet normal 1.628955e-01 9.866433e-01 -0.000000e+00
 outer loop
  vertex 2.3410839e-03 1.1769423e-02 3.0670000e-01
  vertex 1.5663143e-03 1.1897338e-02 3.0870000e-01
  vertex 2.3410839e-03 1.1769423e-02 3.0870000e-01
 endloop
endfacet
facet normal 1.628955e-01 9.866433e-01 0.000000e+00
 outer loop
  vertex 2.3410839e-03 1.1769423e-02 3.0670000e-01
  vertex 1.5663143e-03 1.1897338e-02 3.0670000e-01
  vertex 1.5663143e-03 1.1897338e-02 3.0870000e-01
 endloop
endfacet
facet normal 9.801714e-02 9.951847e-01 -0.000000e+00
 outer loop
  vertex 1.5663143e-03 1.1897338e-02 3.0670000e-01
  vertex 7.8483755e-04 1.1974307e-02 3.0870000e-01
  vertex 1.5663143e-03 1.1897338e-02 3.0870000e-01
 endloop
endfacet
facet normal 9.801714e-02 9.951847e-01 0.000000e+00
 outer loop
  vertex 1.5663143e-03 1.1897338e-02 3.0670000e-01
  vertex 7.8483755e-04 1.1974307e-02 3.0670000e-01
  vertex 7.8483755e-04 1.1974307e-02 3.0870000e-01
 endloop
endfacet
facet normal 3.271908e-02 9.994646e-01 -0.000000e+00
 outer loop
  vertex 7.8483755e-04 1.1974307e-02 3.0670000e-01
  vertex 7.3478808e-19 1.2000000e-02 3.0870000e-01
  vertex 7.8483755e-04 1.1974307e-02 3.0870000e-01
 endloop
endfacet
facet normal 3.271908e-02 9.994646e-01 0.000000e+00
 outer loop
  vertex 7.8483755e-04 1.1974307e-02 3.0670000e-01
  vertex 7.3478808e-19 1.2000000e-02 3.0670000e-01
  vertex 7.3478808e-19 1.2000000e-02 3.0870000e-01
 endloop
endfacet
facet normal -3.271908e-02 9.994646e-01 0.000000e+00
 outer loop
  vertex 7.3478808e-19 1.2000000e-02 3.0670000e-01
  vertex -7.8483755e-04 1.1974307e-02 3.0870000e-01
  vertex 7.3478808e-19 1.2000000e-02 3.0870000e-01
 endloop
endfacet
facet normal -3.271908e-02 9.994646e-01 0.000000e+00
 outer loop
  vertex 7.3478808e-19 1.2000000e-02 3.0670000e-01
  vertex -7.8483755e-04 1.1974307e-02 3.0670000e-01
  vertex -7.8483755e-04 1.1974307e-02 3.0870000e-01
 endloop
endfacet
facet normal -9.801714e-02 9.951847e-01 0.000000e+00
 outer loop
  vertex -7.8483755e-04 1.1974307e-02 3.0670000e-01
  vertex -1.5663143e-03 1.1897338e-02 3.0870000e-01
  vertex -7.8483755e-04 1.1974307e-02 3.0870000e-01
 endloop
endfacet
facet normal -9.801714e-02 9.951847e-01 0.000000e+00
 outer loop
  vertex -7.8483755e-04 1.1974307e-02 3.0670000e-01
  vertex -1.5663143e-03 1.1897338e-02 3.0670000e-01
  vertex -1.5663143e-03 1.1897338e-02 3.0870000e-01
 endloop
endfacet
facet normal -1.628955e-01 9.866433e-01 0.000000e+00
 outer loop
  vertex -1.5663143e-03 1.1897338e-02 3.0670000e-01
  vertex -2.3410839e-03 1.1769423e-02 3.0870000e-01
  vertex -1.5663143e-03 1.1897338e-02 3.0870000e-01
 endloop
endfacet
facet normal -1.628955e-01 9.866433e-01 0.000000e+00
 outer loop
  vertex -1.5663143e-03 1.1897338e-02 3.0670000e-01
  vertex -2.3410839e-03 1.1769423e-02 3.0670000e-01
  vertex -2.3410839e-03 1.1769423e-02 3.0870000e-01
 endloop
endfacet
facet normal -2.270763e-01 9.738770e-01 0.000000e+00
 outer loop
  vertex -2.3410839e-03 1.1769423e-02 3.0670000e-01
  vertex -3.1058285e-03 1.1591110e-02 3.0870000e-01
  vertex -2.3410839e-03 1.1769423e-02 3.0870000e-01
 endloop
endfacet
facet normal -2.270763e-01 9.738770e-01 0.000000e+00
 outer loop
  vertex -2.3410839e-03 1.1769423e-02 3.0670000e-01
  vertex -3.1058285e-03 1.1591110e-02 3.0670000e-01
  vertex -3.1058285e-03 1.1591110e-02 3.0870000e-01
 endloop
endfacet
facet normal -2.902847e-01 9.569403e-01 0.000000e+00
 outer loop
  vertex -3.1058285e-03 1.1591110e-02 3.0670000e-01
  vertex -3.8572736e-03 1.1363162e-02 3.0870000e-01
  vertex -3.1058285e-03 1.1591110e-02 3.0870000e-01
 endloop
endfacet
facet normal -2.902847e-01 9.569403e-01 0.000000e+00
 outer loop
  vertex -3.1058285e-03 1.1591110e-02 3.0670000e-01
  vertex -3.8572736e-03 1.1363162e-02 3.0670000e-01
  vertex -3.8572736e-03 1.1363162e-02 3.0870000e-01
 endloop
endfacet
facet normal -3.522500e-01 9.359059e-01 0.000000e+00
 outer loop
  vertex -3.8572736e-03 1.1363162e-02 3.0670000e-01
  vertex -4.5922012e-03 1.1086554e-02 3.0870000e-01
  vertex -3.8572736e-03 1.1363162e-02 3.0870000e-01
 endloop
endfacet
facet normal -3.522500e-01 9.359059e-01 0.000000e+00
 outer loop
  vertex -3.8572736e-03 1.1363162e-02 3.0670000e-01
  vertex -4.5922012e-03 1.1086554e-02 3.0670000e-01
  vertex -4.5922012e-03 1.1086554e-02 3.0870000e-01
 endloop
endfacet
facet normal -4.127070e-01 9.108638e-01 0.000000e+00
 outer loop
  vertex -4.5922012e-03 1.1086554e-02 3.0670000e-01
  vertex -5.3074643e-03 1.0762473e-02 3.0870000e-01
  vertex -4.5922012e-03 1.1086554e-02 3.0870000e-01
 endloop
endfacet
facet normal -4.127070e-01 9.108638e-01 0.000000e+00
 outer loop
  vertex -4.5922012e-03 1.1086554e-02 3.0670000e-01
  vertex -5.3074643e-03 1.0762473e-02 3.0670000e-01
  vertex -5.3074643e-03 1.0762473e-02 3.0870000e-01
 endloop
endfacet
facet normal -4.713967e-01 8.819213e-01 0.000000e+00
 outer loop
  vertex -5.3074643e-03 1.0762473e-02 3.0670000e-01
  vertex -6.0000000e-03 1.0392305e-02 3.0870000e-01
  vertex -5.3074643e-03 1.0762473e-02 3.0870000e-01
 endloop
endfacet
facet normal -4.713967e-01 8.819213e-01 0.000000e+00
 outer loop
  vertex -5.3074643e-03 1.0762473e-02 3.0670000e-01
  vertex -6.0000000e-03 1.0392305e-02 3.0670000e-01
  vertex -6.0000000e-03 1.0392305e-02 3.0870000e-01
 endloop
endfacet
facet normal -5.280679e-01 8.492022e-01 0.000000e+00
 outer loop
  vertex -6.0000000e-03 1.0392305e-02 3.0670000e-01
  vertex -6.6668428e-03 9.9776353e-03 3.0870000e-01
  vertex -6.0000000e-03 1.0392305e-02 3.0870000e-01
 endloop
endfacet
facet normal -5.280679e-01 8.492022e-01 0.000000e+00
 outer loop
  vertex -6.0000000e-03 1.0392305e-02 3.0670000e-01
  vertex -6.6668428e-03 9.9776353e-03 3.0670000e-01
  vertex -6.6668428e-03 9.9776353e-03 3.0870000e-01
 endloop
endfacet
facet normal -5.824777e-01 8.128467e-01 0.000000e+00
 outer loop
  vertex -6.6668428e-03 9.9776353e-03 3.0670000e-01
  vertex -7.3051371e-03 9.5202401e-03 3.0870000e-01
  vertex -6.6668428e-03 9.9776353e-03 3.0870000e-01
 endloop
endfacet
facet normal -5.824777e-01 8.128467e-01 0.000000e+00
 outer loop
  vertex -6.6668428e-03 9.9776353e-03 3.0670000e-01
  vertex -7.3051371e-03 9.5202401e-03 3.0670000e-01
  vertex -7.3051371e-03 9.5202401e-03 3.0870000e-01
 endloop
endfacet
facet normal -6.343933e-01 7.730105e-01 0.000000e+00
 outer loop
  vertex -7.3051371e-03 9.5202401e-03 3.0670000e-01
  vertex -7.9121498e-03 9.0220777e-03 3.0870000e-01
  vertex -7.3051371e-03 9.5202401e-03 3.0870000e-01
 endloop
endfacet
facet normal -6.343933e-01 7.730105e-01 0.000000e+00
 outer loop
  vertex -7.3051371e-03 9.5202401e-03 3.0670000e-01
  vertex -7.9121498e-03 9.0220777e-03 3.0670000e-01
  vertex -7.9121498e-03 9.0220777e-03 3.0870000e-01
 endloop
endfacet
facet normal -6.835923e-01 7.298641e-01 0.000000e+00
 outer loop
  vertex -7.9121498e-03 9.0220777e-03 3.0670000e-01
  vertex -8.4852814e-03 8.4852814e-03 3.0870000e-01
  vertex -7.9121498e-03 9.0220777e-03 3.0870000e-01
 endloop
endfacet
facet normal -6.835923e-01 7.298641e-01 0.000000e+00
 outer loop
  vertex -7.9121498e-03 9.0220777e-03 3.0670000e-01
  vertex -8.4852814e-03 8.4852814e-03 3.0670000e-01
  vertex -8.4852814e-03 8.4852814e-03 3.0870000e-01
 endloop
endfacet
facet normal -7.298641e-01 6.835923e-01 0.000000e+00
 outer loop
  vertex -8.4852814e-03 8.4852814e-03 3.0670000e-01
  vertex -9.0220777e-03 7.9121498e-03 3.0870000e-01
  vertex -8.4852814e-03 8.4852814e-03 3.0870000e-01
 endloop
endfacet
facet normal -7.298641e-01 6.835923e-01 0.000000e+00
 outer loop
  vertex -8.4852814e-03 8.4852814e-03 3.0670000e-01
  vertex -9.0220777e-03 7.9121498e-03 3.0670000e-01
  vertex -9.0220777e-03 7.9121498e-03 3.0870000e-01
 endloop
endfacet
facet normal -7.730105e-01 6.343933e-01 0.000000e+00
 outer loop
  vertex -9.0220777e-03 7.9121498e-03 3.0670000e-01
  vertex -9.5202401e-03 7.3051371e-03 3.0870000e-01
  vertex -9.0220777e-03 7.9121498e-03 3.0870000e-01
 endloop
endfacet
facet normal -7.730105e-01 6.343933e-01 0.000000e+00
 outer loop
  vertex -9.0220777e-03 7.9121498e-03 3.0670000e-01
  vertex -9.5202401e-03 7.3051371e-03 3.0670000e-01
  vertex -9.5202401e-03 7.3051371e-03 3.0870000e-01
 endloop
endfacet
facet normal -8.128467e-01 5.824777e-01 0.000000e+00
 outer loop
  vertex -9.5202401e-03 7.3051371e-03 3.0670000e-01
  vertex -9.9776353e-03 6.6668428e-03 3.0870000e-01
  vertex -9.5202401e-03 7.3051371e-03 3.0870000e-01
 endloop
endfacet
facet normal -8.128467e-01 5.824777e-01 0.000000e+00
 outer loop
  vertex -9.5202401e-03 7.3051371e-03 3.0670000e-01
  vertex -9.9776353e-03 6.6668428e-03 3.0670000e-01
  vertex -9.9776353e-03 6.6668428e-03 3.0870000e-01
 endloop
endfacet
facet normal -8.492022e-01 5.280679e-01 0.000000e+00
 outer loop
  vertex -9.9776353e-03 6.6668428e-03 3.0670000e-01
  vertex -1.0392305e-02 6.0000000e-03 3.0870000e-01
  vertex -9.9776353e-03 6.6668428e-03 3.0870000e-01
 endloop
endfacet
facet normal -8.492022e-01 5.280679e-01 0.000000e+00
 outer loop
  vertex -9.9776353e-03 6.6668428e-03 3.0670000e-01
  vertex -1.0392305e-02 6.0000000e-03 3.0670000e-01
  vertex -1.0392305e-02 6.0000000e-03 3.0870000e-01
 endloop
endfacet
facet normal -8.819213e-01 4.713967e-01 0.000000e+00
 outer loop
  vertex -1.0392305e-02 6.0000000e-03 3.0670000e-01
  vertex -1.0762473e-02 5.3074643e-03 3.0870000e-01
  vertex -1.0392305e-02 6.0000000e-03 3.0870000e-01
 endloop
endfacet
facet normal -8.819213e-01 4.713967e-01 0.000000e+00
 outer loop
  vertex -1.0392305e-02 6.0000000e-03 3.0670000e-01
  vertex -1.0762473e-02 5.3074643e-03 3.0670000e-01
  vertex -1.0762473e-02 5.3074643e-03 3.0870000e-01
 endloop
endfacet
facet normal -9.108638e-01 4.127070e-01 0.000000e+00
 outer loop
  vertex -1.0762473e-02 5.3074643e-03 3.0670000e-01
  vertex -1.1086554e-02 4.5922012e-03 3.0870000e-01
  vertex -1.0762473e-02 5.3074643e-03 3.0870000e-01
 endloop
endfacet
facet normal -9.108638e-01 4.127070e-01 0.000000e+00
 outer loop
  vertex -1.0762473e-02 5.3074643e-03 3.0670000e-01
  vertex -1.1086554e-02 4.5922012e-03 3.0670000e-01
  vertex -1.1086554e-02 4.5922012e-03 3.0870000e-01
 endloop
endfacet
facet normal -9.359059e-01 3.522500e-01 0.000000e+00
 outer loop
  vertex -1.1086554e-02 4.5922012e-03 3.0670000e-01
  vertex -1.1363162e-02 3.8572736e-03 3.0870000e-01
  vertex -1.1086554e-02 4.5922012e-03 3.0870000e-01
 endloop
endfacet
facet normal -9.359059e-01 3.522500e-01 0.000000e+00
 outer loop
  vertex -1.1086554e-02 4.5922012e-03 3.0670000e-01
  vertex -1.1363162e-02 3.8572736e-03 3.0670000e-01
  vertex -1.1363162e-02 3.8572736e-03 3.0870000e-01
 endloop
endfacet
facet normal -9.569403e-01 2.902847e-01 0.000000e+00
 outer loop
  vertex -1.1363162e-02 3.8572736e-03 3.0670000e-01
  vertex -1.1591110e-02 3.1058285e-03 3.0870000e-01
  vertex -1.1363162e-02 3.8572736e-03 3.0870000e-01
 endloop
endfacet
facet normal -9.569403e-01 2.902847e-01 0.000000e+00
 outer loop
  vertex -1.1363162e-02 3.8572736e-03 3.0670000e-01
  vertex -1.1591110e-02 3.1058285e-03 3.0670000e-01
  vertex -1.1591110e-02 3.1058285e-03 3.0870000e-01
 endloop
endfacet
facet normal -9.738770e-01 2.270763e-01 0.000000e+00
 outer loop
  vertex -1.1591110e-02 3.1058285e-03 3.0670000e-01
  vertex -1.1769423e-02 2.3410839e-03 3.0870000e-01
  vertex -1.1591110e-02 3.1058285e-03 3.0870000e-01
 endloop
endfacet
facet normal -9.738770e-01 2.270763e-01 0.000000e+00
 outer loop
  vertex -1.1591110e-02 3.1058285e-03 3.0670000e-01
  vertex -1.1769423e-02 2.3410839e-03 3.0670000e-01
  vertex -1.1769423e-02 2.3410839e-03 3.0870000e-01
 endloop
endfacet
facet normal -9.866433e-01 1.628955e-01 0.000000e+00
 outer loop
  vertex -1.1769423e-02 2.3410839e-03 3.0670000e-01
  vertex -1.1897338e-02 1.5663143e-03 3.0870000e-01
  vertex -1.1769423e-02 2.3410839e-03 3.0870000e-01
 endloop
endfacet
facet normal -9.866433e-01 1.628955e-01 0.000000e+00
 outer loop
  vertex -1.1769423e-02 2.3410839e-03 3.0670000e-01
  vertex -1.1897338e-02 1.5663143e-03 3.0670000e-01
  vertex -1.1897338e-02 1.5663143e-03 3.0870000e-01
 endloop
endfacet
facet normal -9.951847e-01 9.801714e-02 0.000000e+00
 outer loop
  vertex -1.1897338e-02 1.5663143e-03 3.0670000e-01
  vertex -1.1974307e-02 7.8483755e-04 3.0870000e-01
  vertex -1.1897338e-02 1.5663143e-03 3.0870000e-01
 endloop
endfacet
facet normal -9.951847e-01 9.801714e-02 0.000000e+00
 outer loop
  vertex -1.1897338e-02 1.5663143e-03 3.0670000e-01
  vertex -1.1974307e-02 7.8483755e-04 3.0670000e-01
  vertex -1.1974307e-02 7.8483755e-04 3.0870000e-01
 endloop
endfacet
facet normal -9.994646e-01 3.271908e-02 0.000000e+00
 outer loop
  vertex -1.1974307e-02 7.8483755e-04 3.0670000e-01
  vertex -1.2000000e-02 1.4695762e-18 3.0870000e-01
  vertex -1.1974307e-02 7.8483755e-04 3.0870000e-01
 endloop
endfacet
facet normal -9.994646e-01 3.271908e-02 0.000000e+00
 outer loop
  vertex -1.1974307e-02 7.8483755e-04 3.0670000e-01
  vertex -1.2000000e-02 1.4695762e-18 3.0670000e-01
  vertex -1.2000000e-02 1.4695762e-18 3.0870000e-01
 endloop
endfacet
facet normal -9.994646e-01 -3.271908e-02 0.000000e+00
 outer loop
  vertex -1.2000000e-02 1.4695762e-18 3.0670000e-01
  vertex -1.1974307e-02 -7.8483755e-04 3.0870000e-01
  vertex -1.2000000e-02 1.4695762e-18 3.0870000e-01
 endloop
endfacet
facet normal -9.994646e-01 -3.271908e-02 0.000000e+00
 outer loop
  vertex -1.2000000e-02 1.4695762e-18 3.0670000e-01
  vertex -1.1974307e-02 -7.8483755e-04 3.0670000e-01
  vertex -1.1974307e-02 -7.8483755e-04 3.0870000e-01
 endloop
endfacet
facet normal -9.951847e-01 -9.801714e-02 0.000000e+00
 outer loop
  vertex -1.1974307e-02 -7.8483755e-04 3.0670000e-01
  vertex -1.1897338e-02 -1.5663143e-03 3.0870000e-01
  vertex -1.1974307e-02 -7.8483755e-04 3.0870000e-01
 endloop
endfacet
facet normal -9.951847e-01 -9.801714e-02 0.000000e+00
 outer loop
  vertex -1.1974307e-02 -7.8483755e-04 3.0670000e-01
  vertex -1.1897338e-02 -1.5663143e-03 3.0670000e-01
  vertex -1.1897338e-02 -1.5663143e-03 3.0870000e-01
 endloop
endfacet
facet normal -9.866433e-01 -1.628955e-01 0.000000e+00
 outer loop
  vertex -1.1897338e-02 -1.5663143e-03 3.0670000e-01
  vertex -1.1769423e-02 -2.3410839e-03 3.0870000e-01
  vertex -1.1897338e-02 -1.5663143e-03 3.0870000e-01
 endloop
endfacet
facet normal -9.866433e-01 -1.628955e-01 0.000000e+00
 outer loop
  vertex -1.1897338e-02 -1.5663143e-03 3.0670000e-01
  vertex -1.1769423e-02 -2.3410839e-03 3.0670000e-01
  vertex -1.1769423e-02 -2.3410839e-03 3.0870000e-01
 endloop
endfacet
facet normal -9.738770e-01 -2.270763e-01 0.000000e+00
 outer loop
  vertex -1.1769423e-02 -2.3410839e-03 3.0670000e-01
  vertex -1.1591110e-02 -3.1058285e-03 3.0870000e-01
  vertex -1.1769423e-02 -2.3410839e-03 3.0870000e-01
 endloop
endfacet
facet normal -9.738770e-01 -2.270763e-01 0.000000e+00
 outer loop
  vertex -1.1769423e-02 -2.3410839e-03 3.0670000e-01
  vertex -1.1591110e-02 -3.1058285e-03 3.0670000e-01
  vertex -1.1591110e-02 -3.1058285e-03 3.0870000e-01
 endloop
endfacet
facet normal -9.569403e-01 -2.902847e-01 0.000000e+00
 outer loop
  vertex -1.1591110e-02 -3.1058285e-03 3.0670000e-01
  vertex -1.1363162e-02 -3.8572736e-03 3.0870000e-01
  vertex -1.1591110e-02 -3.1058285e-03 3.0870000e-01
 endloop
endfacet
facet normal -9.569403e-01 -2.902847e-01 0.000000e+00
 outer loop
  vertex -1.1591110e-02 -3.1058285e-03 3.0670000e-01
  vertex -1.1363162e-02 -3.8572736e-03 3.0670000e-01
  vertex -1.1363162e-02 -3.8572736e-03 3.0870000e-01
 endloop
endfacet
facet normal -9.359059e-01 -3.522500e-01 0.000000e+00
 outer loop
  vertex -1.1363162e-02 -3.8572736e-03 3.0670000e-01
  vertex -1.1086554e-02 -4.5922012e-03 3.0870000e-01
  vertex -1.1363162e-02 -3.8572736e-03 3.0870000e-01
 endloop
endfacet
facet normal -9.359059e-01 -3.522500e-01 0.000000e+00
 outer loop
  vertex -1.1363162e-02 -3.8572736e-03 3.0670000e-01
  vertex -1.1086554e-02 -4.5922012e-03 3.0670000e-01
  vertex -1.1086554e-02 -4.5922012e-03 3.0870000e-01
 endloop
endfacet
facet normal -9.108638e-01 -4.127070e-01 0.000000e+00
 outer loop
  vertex -1.1086554e-02 -4.5922012e-03 3.0670000e-01
  vertex -1.0762473e-02 -5.3074643e-03 3.0870000e-01
  vertex -1.1086554e-02 -4.5922012e-03 3.0870000e-01
 endloop
endfacet
facet normal -9.108638e-01 -4.127070e-01 0.000000e+00
 outer loop
  vertex -1.1086554e-02 -4.5922012e-03 3.0670000e-01
  vertex -1.0762473e-02 -5.3074643e-03 3.0670000e-01
  vertex -1.0762473e-02 -5.3074643e-03 3.0870000e-01
 endloop
endfacet
facet normal -8.819213e-01 -4.713967e-01 0.000000e+00
 outer loop
  vertex -1.0762473e-02 -5.3074643e-03 3.0670000e-01
  vertex -1.0392305e-02 -6.0000000e-03 3.0870000e-01
  vertex -1.0762473e-02 -5.3074643e-03 3.0870000e-01
 endloop
endfacet
facet normal -8.819213e-01 -4.713967e-01 0.000000e+00
 outer loop
  vertex -1.0762473e-02 -5.3074643e-03 3.0670000e-01
  vertex -1.0392305e-02 -6.0000000e-03 3.0670000e-01
  vertex -1.0392305e-02 -6.0000000e-03 3.0870000e-01
 endloop
endfacet
facet normal -8.492022e-01 -5.280679e-01 0.000000e+00
 outer loop
  vertex -1.0392305e-02 -6.0000000e-03 3.0670000e-01
  vertex -9.9776353e-03 -6.6668428e-03 3.0870000e-01
  vertex -1.0392305e-02 -6.0000000e-03 3.0870000e-01
 endloop
endfacet
facet normal -8.492022e-01 -5.280679e-01 0.000000e+00
 outer loop
  vertex -1.0392305e-02 -6.0000000e-03 3.0670000e-01
  vertex -9.9776353e-03 -6.6668428e-03 3.0670000e-01
  vertex -9.9776353e-03 -6.6668428e-03 3.0870000e-01
 endloop
endfacet
facet normal -8.128467e-01 -5.824777e-01 0.000000e+00
 outer loop
  vertex -9.9776353e-03 -6.6668428e-03 3.0670000e-01
  vertex -9.5202401e-03 -7.3051371e-03 3.0870000e-01
  vertex -9.9776353e-03 -6.6668428e-03 3.0870000e-01
 endloop
endfacet
facet normal -8.128467e-01 -5.824777e-01 0.000000e+00
 outer loop
  vertex -9.9776353e-03 -6.6668428e-03 3.0670000e-01
  vertex -9.5202401e-03 -7.3051371e-03 3.0670000e-01
  vertex -9.5202401e-03 -7.3051371e-03 3.0870000e-01
 endloop
endfacet
facet normal -7.730105e-01 -6.343933e-01 0.000000e+00
 outer loop
  vertex -9.5202401e-03 -7.3051371e-03 3.0670000e-01
  vertex -9.0220777e-03 -7.9121498e-03 3.0870000e-01
  vertex -9.5202401e-03 -7.3051371e-03 3.0870000e-01
 endloop
endfacet
facet normal -7.730105e-01 -6.343933e-01 0.000000e+00
 outer loop
  vertex -9.5202401e-03 -7.3051371e-03 3.0670000e-01
  vertex -9.0220777e-03 -7.9121498e-03 3.0670000e-01
  vertex -9.0220777e-03 -7.9121498e-03 3.0870000e-01
 endloop
endfacet
facet normal -7.298641e-01 -6.835923e-01 0.000000e+00
 outer loop
  vertex -9.0220777e-03 -7.9121498e-03 3.0670000e-01
  vertex -8.4852814e-03 -8.4852814e-03 3.0870000e-01
  vertex -9.0220777e-03 -7.9121498e-03 3.0870000e-01
 endloop
endfacet
facet normal -7.298641e-01 -6.835923e-01 0.000000e+00
 outer loop
  vertex -9.0220777e-03 -7.9121498e-03 3.0670000e-01
  vertex -8.4852814e-03 -8.4852814e-03 3.0670000e-01
  vertex -8.4852814e-03 -8.4852814e-03 3.0870000e-01
 endloop
endfacet
facet normal -6.835923e-01 -7.298641e-01 0.000000e+00
 outer loop
  vertex -8.4852814e-03 -8.4852814e-03 3.0670000e-01
  vertex -7.9121498e-03 -9.0220777e-03 3.0870000e-01
  vertex -8.4852814e-03 -8.4852814e-03 3.0870000e-01
 endloop
endfacet
facet normal -6.835923e-01 -7.298641e-01 0.000000e+00
 outer loop
  vertex -8.4852814e-03 -8.4852814e-03 3.0670000e-01
  vertex -7.9121498e-03 -9.0220777e-03 3.0670000e-01
  vertex -7.9121498e-03 -9.0220777e-03 3.0870000e-01
 endloop
endfacet
facet normal -6.343933e-01 -7.730105e-01 0.000000e+00
 outer loop
  vertex -7.9121498e-03 -9.0220777e-03 3.0670000e-01
  vertex -7.3051371e-03 -9.5202401e-03 3.0870000e-01
  vertex -7.9121498e-03 -9.0220777e-03 3.0870000e-01
 endloop
endfacet
facet normal -6.343933e-01 -7.730105e-01 0.000000e+00
 outer loop
  vertex -7.9121498e-03 -9.0220777e-03 3.0670000e-01
  vertex -7.3051371e-03 -9.5202401e-03 3.0670000e-01
  vertex -7.3051371e-03 -9.5202401e-03 3.0870000e-01
 endloop
endfacet
facet normal -5.824777e-01 -8.128467e-01 0.000000e+00
 outer loop
  vertex -7.3051371e-03 -9.5202401e-03 3.0670000e-01
  vertex -6.6668428e-03 -9.9776353e-03 3.0870000e-01
  vertex -7.3051371e-03 -9.5202401e-03 3.0870000e-01
 endloop
endfacet
facet normal -5.824777e-01 -8.128467e-01 0.000000e+00
 outer loop
  vertex -7.3051371e-03 -9.5202401e-03 3.0670000e-01
  vertex -6.6668428e-03 -9.9776353e-03 3.0670000e-01
  vertex -6.6668428e-03 -9.9776353e-03 3.0870000e-01
 endloop
endfacet
facet normal -5.280679e-01 -8.492022e-01 0.000000e+00
 outer loop
  vertex -6.6668428e-03 -9.9776353e-03 3.0670000e-01
  vertex -6.0000000e-03 -1.0392305e-02 3.0870000e-01
  vertex -6.6668428e-03 -9.9776353e-03 3.0870000e-01
 endloop
endfacet
facet normal -5.280679e-01 -8.492022e-01 0.000000e+00
 outer loop
  vertex -6.6668428e-03 -9.9776353e-03 3.0670000e-01
  vertex -6.0000000e-03 -1.0392305e-02 3.0670000e-01
  vertex -6.0000000e-03 -1.0392305e-02 3.0870000e-01
 endloop
endfacet
facet normal -4.713967e-01 -8.819213e-01 0.000000e+00
 outer loop
  vertex -6.0000000e-03 -1.0392305e-02 3.0670000e-01
  vertex -5.3074643e-03 -1.0762473e-02 3.0870000e-01
  vertex -6.0000000e-03 -1.0392305e-02 3.0870000e-01
 endloop
endfacet
facet normal -4.713967e-01 -8.819213e-01 0.000000e+00
 outer loop
  vertex -6.0000000e-03 -1.0392305e-02 3.0670000e-01
  vertex -5.3074643e-03 -1.0762473e-02 3.0670000e-01
  vertex -5.3074643e-03 -1.0762473e-02 3.0870000e-01
 endloop
endfacet
facet normal -4.127070e-01 -9.108638e-01 0.000000e+00
 outer loop
  vertex -5.3074643e-03 -1.0762473e-02 3.0670000e-01
  vertex -4.5922012e-03 -1.1086554e-02 3.0870000e-01
  vertex -5.3074643e-03 -1.0762473e-02 3.0870000e-01
 endloop
endfacet
facet normal -4.127070e-01 -9.108638e-01 0.000000e+00
 outer loop
  vertex -5.3074643e-03 -1.0762473e-02 3.0670000e-01
  vertex -4.5922012e-03 -1.1086554e-02 3.0670000e-01
  vertex -4.5922012e-03 -1.1086554e-02 3.0870000e-01
 endloop
endfacet
facet normal -3.522500e-01 -9.359059e-01 0.000000e+00
 outer loop
  vertex -4.5922012e-03 -1.1086554e-02 3.0670000e-01
  vertex -3.8572736e-03 -1.1363162e-02 3.0870000e-01
  vertex -4.5922012e-03 -1.1086554e-02 3.0870000e-01
 endloop
endfacet
facet normal -3.522500e-01 -9.359059e-01 0.000000e+00
 outer loop
  vertex -4.5922012e-03 -1.1086554e-02 3.0670000e-01
  vertex -3.8572736e-03 -1.1363162e-02 3.0670000e-01
  vertex -3.8572736e-03 -1.1363162e-02 3.0870000e-01
 endloop
endfacet
facet normal -2.902847e-01 -9.569403e-01 0.000000e+00
 outer loop
  vertex -3.8572736e-03 -1.1363162e-02 3.0670000e-01
  vertex -3.1058285e-03 -1.1591110e-02 3.0870000e-01
  vertex -3.8572736e-03 -1.1363162e-02 3.0870000e-01
 endloop
endfacet
facet normal -2.902847e-01 -9.569403e-01 0.000000e+00
 outer loop
  vertex -3.8572736e-03 -1.1363162e-02 3.0670000e-01
  vertex -3.1058285e-03 -1.1591110e-02 3.0670000e-01
  vertex -3.1058285e-03 -1.1591110e-02 3.0870000e-01
 endloop
endfacet
facet normal -2.270763e-01 -9.738770e-01 0.000000e+00
 outer loop
  vertex -3.1058285e-03 -1.1591110e-02 3.0670000e-01
  vertex -2.3410839e-03 -1.1769423e-02 3.0870000e-01
  vertex -3.1058285e-03 -1.1591110e-02 3.0870000e-01
 endloop
endfacet
facet normal -2.270763e-01 -9.738770e-01 0.000000e+00
 outer loop
  vertex -3.1058285e-03 -1.1591110e-02 3.0670000e-01
  vertex -2.3410839e-03 -1.1769423e-02 3.0670000e-01
  vertex -2.3410839e-03 -1.1769423e-02 3.0870000e-01
 endloop
endfacet
facet normal -1.628955e-01 -9.866433e-01 0.000000e+00
 outer loop
  vertex -2.3410839e-03 -1.1769423e-02 3.0670000e-01
  vertex -1.5663143e-03 -1.1897338e-02 3.0870000e-01
  vertex -2.3410839e-03 -1.1769423e-02 3.0870000e-01
 endloop
endfacet
facet normal -1.628955e-01 -9.866433e-01 0.000000e+00
 outer loop
  vertex -2.3410839e-03 -1.1769423e-02 3.0670000e-01
  vertex -1.5663143e-03 -1.1897338e-02 3.0670000e-01
  vertex -1.5663143e-03 -1.1897338e-02 3.0870000e-01
 endloop
endfacet
facet normal -9.801714e-02 -9.951847e-01 0.000000e+00
 outer loop
  vertex -1.5663143e-03 -1.1897338e-02 3.0670000e-01
  vertex -7.8483755e-04 -1.1974307e-02 3.0870000e-01
  vertex -1.5663143e-03 -1.1897338e-02 3.0870000e-01
 endloop
endfacet
facet normal -9.801714e-02 -9.951847e-01 0.000000e+00
 outer loop
  vertex -1.5663143e-03 -1.1897338e-02 3.0670000e-01
  vertex -7.8483755e-04 -1.1974307e-02 3.0670000e-01
  vertex -7.8483755e-04 -1.1974307e-02 3.0870000e-01
 endloop
endfacet
facet normal -3.271908e-02 -9.994646e-01 0.000000e+00
 outer loop
  vertex -7.8483755e-04 -1.1974307e-02 3.0670000e-01
  vertex -2.2043642e-18 -1.2000000e-02 3.0870000e-01
  vertex -7.8483755e-04 -1.1974307e-02 3.0870000e-01
 endloop
endfacet
facet normal -3.271908e-02 -9.994646e-01 0.000000e+00
 outer loop
  vertex -7.8483755e-04 -1.1974307e-02 3.0670000e-01
  vertex -2.2043642e-18 -1.2000000e-02 3.0670000e-01
  vertex -2.2043642e-18 -1.2000000e-02 3.0870000e-01
 endloop
endfacet
facet normal 3.271908e-02 -9.994646e-01 0.000000e+00
 outer loop
  vertex -2.2043642e-18 -1.2000000e-02 3.0670000e-01
  vertex 7.8483755e-04 -1.1974307e-02 3.0870000e-01
  vertex -2.2043642e-18 -1.2000000e-02 3.0870000e-01
 endloop
endfacet
facet normal 3.271908e-02 -9.994646e-01 0.000000e+00
 outer loop
  vertex -2.2043642e-18 -1.2000000e-02 3.0670000e-01
  vertex 7.8483755e-04 -1.1974307e-02 3.0670000e-01
  vertex 7.8483755e-04 -1.1974307e-02 3.0870000e-01
 endloop
endfacet
facet normal 9.801714e-02 -9.951847e-01 0.000000e+00
 outer loop
  vertex 7.8483755e-04 -1.1974307e-02 3.0670000e-01
  vertex 1.5663143e-03 -1.1897338e-02 3.0870000e-01
  vertex 7.8483755e-04 -1.1974307e-02 3.0870000e-01
 endloop
endfacet
facet normal 9.801714e-02 -9.951847e-01 0.000000e+00
 outer loop
  vertex 7.8483755e-04 -1.1974307e-02 3.0670000e-01
  vertex 1.5663143e-03 -1.1897338e-02 3.0670000e-01
  vertex 1.5663143e-03 -1.1897338e-02 3.0870000e-01
 endloop
endfacet
facet normal 1.628955e-01 -9.866433e-01 0.000000e+00
 outer loop
  vertex 1.5663143e-03 -1.1897338e-02 3.0670000e-01
  vertex 2.3410839e-03 -1.1769423e-02 3.0870000e-01
  vertex 1.5663143e-03 -1.1897338e-02 3.0870000e-01
 endloop
endfacet
facet normal 1.628955e-01 -9.866433e-01 0.000000e+00
 outer loop
  vertex 1.5663143e-03 -1.1897338e-02 3.0670000e-01
  vertex 2.3410839e-03 -1.1769423e-02 3.0670000e-01
  vertex 2.3410839e-03 -1.1769423e-02 3.0870000e-01
 endloop
endfacet
facet normal 2.270763e-01 -9.738770e-01 0.000000e+00
 outer loop
  vertex 2.3410839e-03 -1.1769423e-02 3.0670000e-01
  vertex 3.1058285e-03 -1.1591110e-02 3.0870000e-01
  vertex 2.3410839e-03 -1.1769423e-02 3.0870000e-01
 endloop
endfacet
facet normal 2.270763e-01 -9.738770e-01 0.000000e+00
 outer loop
  vertex 2.3410839e-03 -1.1769423e-02 3.0670000e-01
  vertex 3.1058285e-03 -1.1591110e-02 3.0670000e-01
  vertex 3.1058285e-03 -1.1591110e-02 3.0870000e-01
 endloop
endfacet
facet normal 2.902847e-01 -9.569403e-01 0.000000e+00
 outer loop
  vertex 3.1058285e-03 -1.1591110e-02 3.0670000e-01
  vertex 3.8572736e-03 -1.1363162e-02 3.0870000e-01
  vertex 3.1058285e-03 -1.1591110e-02 3.0870000e-01
 endloop
endfacet
facet normal 2.902847e-01 -9.569403e-01 0.000000e+00
 outer loop
  vertex 3.1058285e-03 -1.1591110e-02 3.0670000e-01
  vertex 3.8572736e-03 -1.1363162e-02 3.0670000e-01
  vertex 3.8572736e-03 -1.1363162e-02 3.0870000e-01
 endloop
endfacet
facet normal 3.522500e-01 -9.359059e-01 0.000000e+00
 outer loop
  vertex 3.8572736e-03 -1.1363162e-02 3.0670000e-01
  vertex 4.5922012e-03 -1.1086554e-02 3.0870000e-01
  vertex 3.8572736e-03 -1.1363162e-02 3.0870000e-01
 endloop
endfacet
facet normal 3.522500e-01 -9.359059e-01 0.000000e+00
 outer loop
  vertex 3.8572736e-03 -1.1363162e-02 3.0670000e-01
  vertex 4.5922012e-03 -1.1086554e-02 3.0670000e-01
  vertex 4.5922012e-03 -1.1086554e-02 3.0870000e-01
 endloop
endfacet
facet normal 4.127070e-01 -9.108638e-01 0.000000e+00
 outer loop
  vertex 4.5922012e-03 -1.1086554e-02 3.0670000e-01
  vertex 5.3074643e-03 -1.0762473e-02 3.0870000e-01
  vertex 4.5922012e-03 -1.1086554e-02 3.0870000e-01
 endloop
endfacet
facet normal 4.127070e-01 -9.108638e-01 0.000000e+00
 outer loop
  vertex 4.5922012e-03 -1.1086554e-02 3.0670000e-01
  vertex 5.3074643e-03 -1.0762473e-02 3.0670000e-01
  vertex 5.3074643e-03 -1.0762473e-02 3.0870000e-01
 endloop
endfacet
facet normal 4.713967e-01 -8.819213e-01 0.000000e+00
 outer loop
  vertex 5.3074643e-03 -1.0762473e-02 3.0670000e-01
  vertex 6.0000000e-03 -1.0392305e-02 3.0870000e-01
  vertex 5.3074643e-03 -1.0762473e-02 3.0870000e-01
 endloop
endfacet
facet normal 4.713967e-01 -8.819213e-01 0.000000e+00
 outer loop
  vertex 5.3074643e-03 -1.0762473e-02 3.0670000e-01
  vertex 6.0000000e-03 -1.0392305e-02 3.0670000e-01
  vertex 6.0000000e-03 -1.0392305e-02 3.0870000e-01
 endloop
endfacet
facet normal 5.280679e-01 -8.492022e-01 0.000000e+00
 outer loop
  vertex 6.0000000e-03 -1.0392305e-02 3.0670000e-01
  vertex 6.6668428e-03 -9.9776353e-03 3.0870000e-01
  vertex 6.0000000e-03 -1.0392305e-02 3.0870000e-01
 endloop
endfacet
facet normal 5.280679e-01 -8.492022e-01 0.000000e+00
 outer loop
  vertex 6.0000000e-03 -1.0392305e-02 3.0670000e-01
  vertex 6.6668428e-03 -9.9776353e-03 3.0670000e-01
  vertex 6.6668428e-03 -9.9776353e-03 3.0870000e-01
 endloop
endfacet
facet normal 5.824777e-01 -8.128467e-01 0.000000e+00
 outer loop
  vertex 6.6668428e-03 -9.9776353e-03 3.0670000e-01
  vertex 7.3051371e-03 -9.5202401e-03 3.0870000e-01
  vertex 6.6668428e-03 -9.9776353e-03 3.0870000e-01
 endloop
endfacet
facet normal 5.824777e-01 -8.128467e-01 0.000000e+00
 outer loop
  vertex 6.6668428e-03 -9.9776353e-03 3.0670000e-01
  vertex 7.3051371e-03 -9.5202401e-03 3.0670000e-01
  vertex 7.3051371e-03 -9.5202401e-03 3.0870000e-01
 endloop
endfacet
facet normal 6.343933e-01 -7.730105e-01 0.000000e+00
 outer loop
  vertex 7.3051371e-03 -9.5202401e-03 3.0670000e-01
  vertex 7.9121498e-03 -9.0220777e-03 3.0870000e-01
  vertex 7.3051371e-03 -9.5202401e-03 3.0870000e-01
 endloop
endfacet
facet normal 6.343933e-01 -7.730105e-01 0.000000e+00
 outer loop
  vertex 7.3051371e-03 -9.5202401e-03 3.0670000e-01
  vertex 7.9121498e-03 -9.0220777e-03 3.0670000e-01
  vertex 7.9121498e-03 -9.0220777e-03 3.0870000e-01
 endloop
endfacet
facet normal 6.835923e-01 -7.298641e-01 0.000000e+00
 outer loop
  vertex 7.9121498e-03 -9.0220777e-03 3.0670000e-01
  vertex 8.4852814e-03 -8.4852814e-03 3.0870000e-01
  vertex 7.9121498e-03 -9.0220777e-03 3.0870000e-01
 endloop
endfacet
facet normal 6.835923e-01 -7.298641e-01 0.000000e+00
 outer loop
  vertex 7.9121498e-03 -9.0220777e-03 3.0670000e-01
  vertex 8.4852814e-03 -8.4852814e-03 3.0670000e-01
  vertex 8.4852814e-03 -8.4852814e-03 3.0870000e-01
 endloop
endfacet
facet normal 7.298641e-01 -6.835923e-01 0.000000e+00
 outer loop
  vertex 8.4852814e-03 -8.4852814e-03 3.0670000e-01
  vertex 9.0220777e-03 -7.9121498e-03 3.0870000e-01
  vertex 8.4852814e-03 -8.4852814e-03 3.0870000e-01
 endloop
endfacet
facet normal 7.298641e-01 -6.835923e-01 0.000000e+00
 outer loop
  vertex 8.4852814e-03 -8.4852814e-03 3.0670000e-01
  vertex 9.0220777e-03 -7.9121498e-03 3.0670000e-01
  vertex 9.0220777e-03 -7.9121498e-03 3.0870000e-01
 endloop
endfacet
facet normal 7.730105e-01 -6.343933e-01 0.000000e+00
 outer loop
  vertex 9.0220777e-03 -7.9121498e-03 3.0670000e-01
  vertex 9.5202401e-03 -7.3051371e-03 3.0870000e-01
  vertex 9.0220777e-03 -7.9121498e-03 3.0870000e-01
 endloop
endfacet
facet normal 7.730105e-01 -6.343933e-01 0.000000e+00
 outer loop
  vertex 9.0220777e-03 -7.9121498e-03 3.0670000e-01
  vertex 9.5202401e-03 -7.3051371e-03 3.0670000e-01
  vertex 9.5202401e-03 -7.3051371e-03 3.0870000e-01
 endloop
endfacet
facet normal 8.128467e-01 -5.824777e-01 0.000000e+00
 outer loop
  vertex 9.5202401e-03 -7.3051371e-03 3.0670000e-01
  vertex 9.9776353e-03 -6.6668428e-03 3.0870000e-01
  vertex 9.5202401e-03 -7.3051371e-03 3.0870000e-01
 endloop
endfacet
facet normal 8.128467e-01 -5.824777e-01 0.000000e+00
 outer loop
  vertex 9.5202401e-03 -7.3051371e-03 3.0670000e-01
  vertex 9.9776353e-03 -6.6668428e-03 3.0670000e-01
  vertex 9.9776353e-03 -6.6668428e-03 3.0870000e-01
 endloop
endfacet
facet normal 8.492022e-01 -5.280679e-01 0.000000e+00
 outer loop
  vertex 9.9776353e-03 -6.6668428e-03 3.0670000e-01
  vertex 1.0392305e-02 -6.0000000e-03 3.0870000e-01
  vertex 9.9776353e-03 -6.6668428e-03 3.0870000e-01
 endloop
endfacet
facet normal 8.492022e-01 -5.280679e-01 0.000000e+00
 outer loop
  vertex 9.9776353e-03 -6.6668428e-03 3.0670000e-01
  vertex 1.0392305e-02 -6.0000000e-03 3.0670000e-01
  vertex 1.0392305e-02 -6.0000000e-03 3.0870000e-01
 endloop
endfacet
facet normal 8.819213e-01 -4.713967e-01 0.000000e+00
 outer loop
  vertex 1.0392305e-02 -6.0000000e-03 3.0670000e-01
  vertex 1.0762473e-02 -5.3074643e-03 3.0870000e-01
  vertex 1.0392305e-02 -6.0000000e-03 3.0870000e-01
 endloop
endfacet
facet normal 8.819213e-01 -4.713967e-01 0.000000e+00
 outer loop
  vertex 1.0392305e-02 -6.0000000e-03 3.0670000e-01
  vertex 1.0762473e-02 -5.3074643e-03 3.0670000e-01
  vertex 1.0762473e-02 -5.3074643e-03 3.0870000e-01
 endloop
endfacet
facet normal 9.108638e-01 -4.127070e-01 0.000000e+00
 outer loop
  vertex 1.0762473e-02 -5.3074643e-03 3.0670000e-01
  vertex 1.1086554e-02 -4.5922012e-03 3.0870000e-01
  vertex 1.0762473e-02 -5.3074643e-03 3.0870000e-01
 endloop
endfacet
facet normal 9.108638e-01 -4.127070e-01 0.000000e+00
 outer loop
  vertex 1.0762473e-02 -5.3074643e-03 3.0670000e-01
  vertex 1.1086554e-02 -4.5922012e-03 3.0670000e-01
  vertex 1.1086554e-02 -4.5922012e-03 3.0870000e-01
 endloop
endfacet
facet normal 9.359059e-01 -3.522500e-01 0.000000e+00
 outer loop
  vertex 1.1086554e-02 -4.5922012e-03 3.0670000e-01
  vertex 1.1363162e-02 -3.8572736e-03 3.0870000e-01
  vertex 1.1086554e-02 -4.5922012e-03 3.0870000e-01
 endloop
endfacet
facet normal 9.359059e-01 -3.522500e-01 0.000000e+00
 outer loop
  vertex 1.1086554e-02 -4.5922012e-03 3.0670000e-01
  vertex 1.1363162e-02 -3.8572736e-03 3.0670000e-01
  vertex 1.1363162e-02 -3.8572736e-03 3.0870000e-01
 endloop
endfacet
facet normal 9.569403e-01 -2.902847e-01 0.000000e+00
 outer loop
  vertex 1.1363162e-02 -3.8572736e-03 3.0670000e-01
  vertex 1.1591110e-02 -3.1058285e-03 3.0870000e-01
  vertex 1.1363162e-02 -3.8572736e-03 3.0870000e-01
 endloop
endfacet
facet normal 9.569403e-01 -2.902847e-01 0.000000e+00
 outer loop
  vertex 1.1363162e-02 -3.8572736e-03 3.0670000e-01
  vertex 1.1591110e-02 -3.1058285e-03 3.0670000e-01
  vertex 1.1591110e-02 -3.1058285e-03 3.0870000e-01
 endloop
endfacet
facet normal 9.738770e-01 -2.270763e-01 0.000000e+00
 outer loop
  vertex 1.1591110e-02 -3.1058285e-03 3.0670000e-01
  vertex 1.1769423e-02 -2.3410839e-03 3.0870000e-01
  vertex 1.1591110e-02 -3.1058285e-03 3.0870000e-01
 endloop
endfacet
facet normal 9.738770e-01 -2.270763e-01 0.000000e+00
 outer loop
  vertex 1.1591110e-02 -3.1058285e-03 3.0670000e-01
  vertex 1.1769423e-02 -2.3410839e-03 3.0670000e-01
  vertex 1.1769423e-02 -2.3410839e-03 3.0870000e-01
 endloop
endfacet
facet normal 9.866433e-01 -1.628955e-01 0.000000e+00
 outer loop
  vertex 1.1769423e-02 -2.3410839e-03 3.0670000e-01
  vertex 1.1897338e-02 -1.5663143e-03 3.0870000e-01
  vertex 1.1769423e-02 -2.3410839e-03 3.0870000e-01
 endloop
endfacet
facet normal 9.866433e-01 -1.628955e-01 0.000000e+00
 outer loop
  vertex 1.1769423e-02 -2.3410839e-03 3.0670000e-01
  vertex 1.1897338e-02 -1.5663143e-03 3.0670000e-01
  vertex 1.1897338e-02 -1.5663143e-03 3.0870000e-01
 endloop
endfacet
facet normal 9.951847e-01 -9.801714e-02 0.000000e+00
 outer loop
  vertex 1.1897338e-02 -1.5663143e-03 3.0670000e-01
  vertex 1.1974307e-02 -7.8483755e-04 3.0870000e-01
  vertex 1.1897338e-02 -1.5663143e-03 3.0870000e-01
 endloop
endfacet
facet normal 9.951847e-01 -9.801714e-02 0.000000e+00
 outer loop
  vertex 1.1897338e-02 -1.5663143e-03 3.0670000e-01
  vertex 1.1974307e-02 -7.8483755e-04 3.0670000e-01
  vertex 1.1974307e-02 -7.8483755e-04 3.0870000e-01
 endloop
endfacet
facet normal 9.994646e-01 -3.271908e-02 0.000000e+00
 outer loop
  vertex 1.1974307e-02 -7.8483755e-04 3.0670000e-01
  vertex 1.2000000e-02 0.0000000e+00 3.0870000e-01
  vertex 1.1974307e-02 -7.8483755e-04 3.0870000e-01
 endloop
endfacet
facet normal 9.994646e-01 -3.271908e-02 0.000000e+00
 outer loop
  vertex 1.1974307e-02 -7.8483755e-04 3.0670000e-01
  vertex 1.2000000e-02 0.0000000e+00 3.0670000e-01
  vertex 1.2000000e-02 0.0000000e+00 3.0870000e-01
 endloop
endfacet
facet normal 0.000000e+00 0.000000e+00 1.000000e+00
 outer loop
  vertex 1.2000000e-02 0.0000000e+00 3.0870000e-01
  vertex 1.1974307e-02 7.8483755e-04 3.0870000e-01
  vertex 0.0000000e+00 0.0000000e+00 3.0870000e-01
 endloop
endfacet
facet normal 0.000000e+00 0.000000e+00 1.000000e+00
 outer loop
  vertex 1.1974307e-02 7.8483755e-04 3.0870000e-01
  vertex 1.1897338e-02 1.5663143e-03 3.0870000e-01
  vertex 0.0000000e+00 0.0000000e+00 3.0870000e-01
 endloop
endfacet
facet normal 0.000000e+00 0.000000e+00 1.000000e+00
 outer loop
  vertex 1.1897338e-02 1.5663143e-03 3.0870000e-01
  vertex 1.1769423e-02 2.3410839e-03 3.0870000e-01
  vertex 0.0000000e+00 0.0000000e+00 3.0870000e-01
 endloop
endfacet
facet normal 0.000000e+00 0.000000e+00 1.000000e+00
 outer loop
  vertex 1.1769423e-02 2.3410839e-03 3.0870000e-01
  vertex 1.1591110e-02 3.1058285e-03 3.0870000e-01
  vertex 0.0000000e+00 0.0000000e+00 3.0870000e-01
 endloop
endfacet
facet normal 0.000000e+00 0.000000e+00 1.000000e+00
 outer loop
  vertex 1.1591110e-02 3.1058285e-03 3.0870000e-01
  vertex 1.1363162e-02 3.8572736e-03 3.0870000e-01
  vertex 0.0000000e+00 0.0000000e+00 3.0870000e-01
 endloop
endfacet
facet normal 0.000000e+00 0.000000e+00 1.000000e+00
 outer loop
  vertex 1.1363162e-02 3.8572736e-03 3.0870000e-01
  vertex 1.1086554e-02 4.5922012e-03 3.0870000e-01
  vertex 0.0000000e+00 0.0000000e+00 3.0870000e-01
 endloop
endfacet
facet normal 0.000000e+00 0.000000e+00 1.000000e+00
 outer loop
  vertex 1.1086554e-02 4.5922012e-03 3.0870000e-01
  vertex 1.0762473e-02 5.3074643e-03 3.0870000e-01
  vertex 0.0000000e+00 0.0000000e+00 3.0870000e-01
 endloop
endfacet
facet normal 0.000000e+00 0.000000e+00 1.000000e+00
 outer loop
  vertex 1.0762473e-02 5.3074643e-03 3.0870000e-01
  vertex 1.0392305e-02 6.0000000e-03 3.0870000e-01
  vertex 0.0000000e+00 0.0000000e+00 3.0870000e-01
 endloop
endfacet
facet normal 0.000000e+00 0.000000e+00 1.000000e+00
 outer loop
  vertex 1.0392305e-02 6.0000000e-03 3.0870000e-01
  vertex 9.9776353e-03 6.6668428e-03 3.0870000e-01
  vertex 0.0000000e+00 0.0000000e+00 3.0870000e-01
 endloop
endfacet
facet normal 0.000000e+00 0.000000e+00 1.000000e+00
 outer loop
  vertex 9.9776353e-03 6.6668428e-03 3.0870000e-01
  vertex 9.5202401e-03 7.3051371e-03 3.0870000e-01
  vertex 0.0000000e+00 0.0000000e+00 3.0870000e-01
 endloop
endfacet
facet normal 0.000000e+00 0.000000e+00 1.000000e+00
 outer loop
  vertex 9.5202401e-03 7.3051371e-03 3.0870000e-01
  vertex 9.0220777e-03 7.9121498e-03 3.0870000e-01
  vertex 0.0000000e+00 0.0000000e+00 3.0870000e-01
 endloop
endfacet
facet normal 0.000000e+00 0.000000e+00 1.000000e+00
 outer loop
  vertex 9.0220777e-03 7.9121498e-03 3.0870000e-01
  vertex 8.4852814e-03 8.4852814e-03 3.0870000e-01
  vertex 0.0000000e+00 0.0000000e+00 3.0870000e-01
 endloop
endfacet
facet normal 0.000000e+00 0.000000e+00 1.000000e+00
 outer loop
  vertex 8.4852814e-03 8.4852814e-03 3.0870000e-01
  vertex 7.9121498e-03 9.0220777e-03 3.0870000e-01
  vertex 0.0000000e+00 0.0000000e+00 3.0870000e-01
 endloop
endfacet
facet normal 0.000000e+00 0.000000e+00 1.000000e+00
 outer loop
  vertex 7.9121498e-03 9.0220777e-03 3.0870000e-01
  vertex 7.3051371e-03 9.5202401e-03 3.0870000e-01
  vertex 0.0000000e+00 0.0000000e+00 3.0870000e-01
 endloop
endfacet
facet normal 0.000000e+00 0.000000e+00 1.000000e+00
 outer loop
  vertex 7.3051371e-03 9.5202401e-03 3.0870000e-01
  vertex 6.6668428e-03 9.9776353e-03 3.0870000e-01
  vertex 0.0000000e+00 0.0000000e+00 3.0870000e-01
 endloop
endfacet
facet normal 0.000000e+00 0.000000e+00 1.000000e+00
 outer loop
  vertex 6.6668428e-03 9.9776353e-03 3.0870000e-01
  vertex 6.0000000e-03 1.0392305e-02 3.0870000e-01
  vertex 0.0000000e+00 0.0000000e+00 3.0870000e-01
 endloop
endfacet
facet normal 0.000000e+00 0.000000e+00 1.000000e+00
 outer loop
  vertex 6.0000000e-03 1.0392305e-02 3.0870000e-01
  vertex 5.3074643e-03 1.0762473e-02 3.0870000e-01
  vertex 0.0000000e+00 0.0000000e+00 3.0870000e-01
 endloop
endfacet
facet normal 0.000000e+00 0.000000e+00 1.000000e+00
 outer loop
  vertex 5.3074643e-03 1.0762473e-02 3.0870000e-01
  vertex 4.5922012e-03 1.1086554e-02 3.0870000e-01
  vertex 0.0000000e+00 0.0000000e+00 3.0870000e-01
 endloop
endfacet
facet normal 0.000000e+00 0.000000e+00 1.000000e+00
 outer loop
  vertex 4.5922012e-03 1.1086554e-02 3.0870000e-01
  vertex 3.8572736e-03 1.1363162e-02 3.0870000e-01
  vertex 0.0000000e+00 0.0000000e+00 3.0870000e-01
 endloop
endfacet
facet normal 0.000000e+00 0.000000e+00 1.000000e+00
 outer loop
  vertex 3.8572736e-03 1.1363162e-02 3.0870000e-01
  vertex 3.1058285e-03 1.1591110e-02 3.0870000e-01
  vertex 0.0000000e+00 0.0000000e+00 3.0870000e-01
 endloop
endfacet
facet normal 0.000000e+00 0.000000e+00 1.000000e+00
 outer loop
  vertex 3.1058285e-03 1.1591110e-02 3.0870000e-01
  vertex 2.3410839e-03 1.1769423e-02 3.0870000e-01
  vertex 0.0000000e+00 0.0000000e+00 3.0870000e-01
 endloop
endfacet
facet normal 0.000000e+00 0.000000e+00 1.000000e+00
 outer loop
  vertex 2.3410839e-03 1.1769423e-02 3.0870000e-01
  vertex 1.5663143e-03 1.1897338e-02 3.0870000e-01
  vertex 0.0000000e+00 0.0000000e+00 3.0870000e-01
 endloop
endfacet
facet normal 0.000000e+00 0.000000e+00 1.000000e+00
 outer loop
  vertex 1.5663143e-03 1.1897338e-02 3.0870000e-01
  vertex 7.8483755e-04 1.1974307e-02 3.0870000e-01
  vertex 0.0000000e+00 0.0000000e+00 3.0870000e-01
 endloop
endfacet
facet normal 0.000000e+00 0.000000e+00 1.000000e+00
 outer loop
  vertex 7.8483755e-04 1.1974307e-02 3.0870000e-01
  vertex 7.3478808e-19 1.2000000e-02 3.0870000e-01
  vertex 0.0000000e+00 0.0000000e+00 3.0870000e-01
 endloop
endfacet
facet normal 0.000000e+00 0.000000e+00 1.000000e+00
 outer loop
  vertex 7.3478808e-19 1.2000000e-02 3.0870000e-01
  vertex -7.8483755e-04 1.1974307e-02 3.0870000e-01
  vertex -0.0000000e+00 0.0000000e+00 3.0870000e-01
 endloop
endfacet
facet normal 0.000000e+00 0.000000e+00 1.000000e+00
 outer loop
  vertex -7.8483755e-04 1.1974307e-02 3.0870000e-01
  vertex -1.5663143e-03 1.1897338e-02 3.0870000e-01
  vertex -0.0000000e+00 0.0000000e+00 3.0870000e-01
 endloop
endfacet
facet normal 0.000000e+00 0.000000e+00 1.000000e+00
 outer loop
  vertex -1.5663143e-03 1.1897338e-02 3.0870000e-01
  vertex -2.3410839e-03 1.1769423e-02 3.0870000e-01
  vertex -0.0000000e+00 0.0000000e+00 3.0870000e-01
 endloop
endfacet
facet normal 0.000000e+00 0.000000e+00 1.000000e+00
 outer loop
  vertex -2.3410839e-03 1.1769423e-02 3.0870000e-01
  vertex -3.1058285e-03 1.1591110e-02 3.0870000e-01
  vertex -0.0000000e+00 0.0000000e+00 3.0870000e-01
 endloop
endfacet
facet normal 0.000000e+00 0.000000e+00 1.000000e+00
 outer loop
  vertex -3.1058285e-03 1.1591110e-02 3.0870000e-01
  vertex -3.8572736e-03 1.1363162e-02 3.0870000e-01
  vertex -0.0000000e+00 0.0000000e+00 3.0870000e-01
 endloop
endfacet
facet normal 0.000000e+00 0.000000e+00 1.000000e+00
 outer loop
  vertex -3.8572736e-03 1.1363162e-02 3.0870000e-01
  vertex -4.5922012e-03 1.1086554e-02 3.0870000e-01
  vertex -0.0000000e+00 0.0000000e+00 3.0870000e-01
 endloop
endfacet
facet normal 0.000000e+00 0.000000e+00 1.000000e+00
 outer loop
  vertex -4.5922012e-03 1.1086554e-02 3.0870000e-01
  vertex -5.3074643e-03 1.0762473e-02 3.0870000e-01
  vertex -0.0000000e+00 0.0000000e+00 3.0870000e-01
 endloop
endfacet
facet normal 0.000000e+00 0.000000e+00 1.000000e+00
 outer loop
  vertex -5.3074643e-03 1.0762473e-02 3.0870000e-01
  vertex -6.0000000e-03 1.0392305e-02 3.0870000e-01
  vertex -0.0000000e+00 0.0000000e+00 3.0870000e-01
 endloop
endfacet
facet normal 0.000000e+00 0.000000e+00 1.000000e+00
 outer loop
  vertex -6.0000000e-03 1.0392305e-02 3.0870000e-01
  vertex -6.6668428e-03 9.9776353e-03 3.0870000e-01
  vertex -0.0000000e+00 0.0000000e+00 3.0870000e-01
 endloop
endfacet
facet normal 0.000000e+00 0.000000e+00 1.000000e+00
 outer loop
  vertex -6.6668428e-03 9.9776353e-03 3.0870000e-01
  vertex -7.3051371e-03 9.5202401e-03 3.0870000e-01
  vertex -0.0000000e+00 0.0000000e+00 3.0870000e-01
 endloop
endfacet
facet normal 0.000000e+00 0.000000e+00 1.000000e+00
 outer loop
  vertex -7.3051371e-03 9.5202401e-03 3.0870000e-01
  vertex -7.9121498e-03 9.0220777e-03 3.0870000e-01
  vertex -0.0000000e+00 0.0000000e+00 3.0870000e-01
 endloop
endfacet
facet normal 0.000000e+00 0.000000e+00 1.000000e+00
 outer loop
  vertex -7.9121498e-03 9.0220777e-03 3.0870000e-01
  vertex -8.4852814e-03 8.4852814e-03 3.0870000e-01
  vertex -0.0000000e+00 0.0000000e+00 3.0870000e-01
 endloop
endfacet
facet normal 0.000000e+00 0.000000e+00 1.000000e+00
 outer loop
  vertex -8.4852814e-03 8.4852814e-03 3.0870000e-01
  vertex -9.0220777e-03 7.9121498e-03 3.0870000e-01
  vertex -0.0000000e+00 0.0000000e+00 3.0870000e-01
 endloop
endfacet
facet normal 0.000000e+00 0.000000e+00 1.000000e+00
 outer loop
  vertex -9.0220777e-03 7.9121498e-03 3.0870000e-01
  vertex -9.5202401e-03 7.3051371e-03 3.0870000e-01
  vertex -0.0000000e+00 0.0000000e+00 3.0870000e-01
 endloop
endfacet
facet normal 0.000000e+00 0.000000e+00 1.000000e+00
 outer loop
  vertex -9.5202401e-03 7.3051371e-03 3.0870000e-01
  vertex -9.9776353e-03 6.6668428e-03 3.0870000e-01
  vertex -0.0000000e+00 0.0000000e+00 3.0870000e-01
 endloop
endfacet
facet normal 0.000000e+00 0.000000e+00 1.000000e+00
 outer loop
  vertex -9.9776353e-03 6.6668428e-03 3.0870000e-01
  vertex -1.0392305e-02 6.0000000e-03 3.0870000e-01
  vertex -0.0000000e+00 0.0000000e+00 3.0870000e-01
 endloop
endfacet
facet normal 0.000000e+00 0.000000e+00 1.000000e+00
 outer loop
  vertex -1.0392305e-02 6.0000000e-03 3.0870000e-01
  vertex -1.0762473e-02 5.3074643e-03 3.0870000e-01
  vertex -0.0000000e+00 0.0000000e+00 3.0870000e-01
 endloop
endfacet
facet normal 0.000000e+00 0.000000e+00 1.000000e+00
 outer loop
  vertex -1.0762473e-02 5.3074643e-03 3.0870000e-01
  vertex -1.1086554e-02 4.5922012e-03 3.0870000e-01
  vertex -0.0000000e+00 0.0000000e+00 3.0870000e-01
 endloop
endfacet
facet normal 0.000000e+00 0.000000e+00 1.000000e+00
 outer loop
  vertex -1.1086554e-02 4.5922012e-03 3.0870000e-01
  vertex -1.1363162e-02 3.8572736e-03 3.0870000e-01
  vertex -0.0000000e+00 0.0000000e+00 3.0870000e-01
 endloop
endfacet
facet normal 0.000000e+00 0.000000e+00 1.000000e+00
 outer loop
  vertex -1.1363162e-02 3.8572736e-03 3.0870000e-01
  vertex -1.1591110e-02 3.1058285e-03 3.0870000e-01
  vertex -0.0000000e+00 0.0000000e+00 3.0870000e-01
 endloop
endfacet
facet normal 0.000000e+00 0.000000e+00 1.000000e+00
 outer loop
  vertex -1.1591110e-02 3.1058285e-03 3.0870000e-01
  vertex -1.1769423e-02 2.3410839e-03 3.0870000e-01
  vertex -0.0000000e+00 0.0000000e+00 3.0870000e-01
 endloop
endfacet
facet normal 0.000000e+00 0.000000e+00 1.000000e+00
 outer loop
  vertex -1.1769423e-02 2.3410839e-03 3.0870000e-01
  vertex -1.1897338e-02 1.5663143e-03 3.0870000e-01
  vertex -0.0000000e+00 0.0000000e+00 3.0870000e-01
 endloop
endfacet
facet normal 0.000000e+00 0.000000e+00 1.000000e+00
 outer loop
  vertex -1.1897338e-02 1.5663143e-03 3.0870000e-01
  vertex -1.1974307e-02 7.8483755e-04 3.0870000e-01
  vertex -0.0000000e+00 0.0000000e+00 3.0870000e-01
 endloop
endfacet
facet normal 0.000000e+00 0.000000e+00 1.000000e+00
 outer loop
  vertex -1.1974307e-02 7.8483755e-04 3.0870000e-01
  vertex -1.2000000e-02 1.4695762e-18 3.0870000e-01
  vertex -0.0000000e+00 0.0000000e+00 3.0870000e-01
 endloop
endfacet
facet normal 0.000000e+00 0.000000e+00 1.000000e+00
 outer loop
  vertex -1.2000000e-02 1.4695762e-18 3.0870000e-01
  vertex -1.1974307e-02 -7.8483755e-04 3.0870000e-01
  vertex -0.0000000e+00 -0.0000000e+00 3.0870000e-01
 endloop
endfacet
facet normal -0.000000e+00 0.000000e+00 1.000000e+00
 outer loop
  vertex -1.1974307e-02 -7.8483755e-04 3.0870000e-01
  vertex -1.1897338e-02 -1.5663143e-03 3.0870000e-01
  vertex -0.0000000e+00 -0.0000000e+00 3.0870000e-01
 endloop
endfacet
facet normal -0.000000e+00 0.000000e+00 1.000000e+00
 outer loop
  vertex -1.1897338e-02 -1.5663143e-03 3.0870000e-01
  vertex -1.1769423e-02 -2.3410839e-03 3.0870000e-01
  vertex -0.0000000e+00 -0.0000000e+00 3.0870000e-01
 endloop
endfacet
facet normal -0.000000e+00 0.000000e+00 1.000000e+00
 outer loop
  vertex -1.1769423e-02 -2.3410839e-03 3.0870000e-01
  vertex -1.1591110e-02 -3.1058285e-03 3.0870000e-01
  vertex -0.0000000e+00 -0.0000000e+00 3.0870000e-01
 endloop
endfacet
facet normal -0.000000e+00 0.000000e+00 1.000000e+00
 outer loop
  vertex -1.1591110e-02 -3.1058285e-03 3.0870000e-01
  vertex -1.1363162e-02 -3.8572736e-03 3.0870000e-01
  vertex -0.0000000e+00 -0.0000000e+00 3.0870000e-01
 endloop
endfacet
facet normal -0.000000e+00 0.000000e+00 1.000000e+00
 outer loop
  vertex -1.1363162e-02 -3.8572736e-03 3.0870000e-01
  vertex -1.1086554e-02 -4.5922012e-03 3.0870000e-01
  vertex -0.0000000e+00 -0.0000000e+00 3.0870000e-01
 endloop
endfacet
facet normal -0.000000e+00 0.000000e+00 1.000000e+00
 outer loop
  vertex -1.1086554e-02 -4.5922012e-03 3.0870000e-01
  vertex -1.0762473e-02 -5.3074643e-03 3.0870000e-01
  vertex -0.0000000e+00 -0.0000000e+00 3.0870000e-01
 endloop
endfacet
facet normal -0.000000e+00 0.000000e+00 1.000000e+00
 outer loop
  vertex -1.0762473e-02 -5.3074643e-03 3.0870000e-01
  vertex -1.0392305e-02 -6.0000000e-03 3.0870000e-01
  vertex -0.0000000e+00 -0.0000000e+00 3.0870000e-01
 endloop
endfacet
facet normal -0.000000e+00 0.000000e+00 1.000000e+00
 outer loop
  vertex -1.0392305e-02 -6.0000000e-03 3.0870000e-01
  vertex -9.9776353e-03 -6.6668428e-03 3.0870000e-01
  vertex -0.0000000e+00 -0.0000000e+00 3.0870000e-01
 endloop
endfacet
facet normal -0.000000e+00 0.000000e+00 1.000000e+00
 outer loop
  vertex -9.9776353e-03 -6.6668428e-03 3.0870000e-01
  vertex -9.5202401e-03 -7.3051371e-03 3.0870000e-01
  vertex -0.0000000e+00 -0.0000000e+00 3.0870000e-01
 endloop
endfacet
facet normal -0.000000e+00 0.000000e+00 1.000000e+00
 outer loop
  vertex -9.5202401e-03 -7.3051371e-03 3.0870000e-01
  vertex -9.0220777e-03 -7.9121498e-03 3.0870000e-01
  vertex -0.0000000e+00 -0.0000000e+00 3.0870000e-01
 endloop
endfacet
facet normal -0.000000e+00 0.000000e+00 1.000000e+00
 outer loop
  vertex -9.0220777e-03 -7.9121498e-03 3.0870000e-01
  vertex -8.4852814e-03 -8.4852814e-03 3.0870000e-01
  vertex -0.0000000e+00 -0.0000000e+00 3.0870000e-01
 endloop
endfacet
facet normal -0.000000e+00 0.000000e+00 1.000000e+00
 outer loop
  vertex -8.4852814e-03 -8.4852814e-03 3.0870000e-01
  vertex -7.9121498e-03 -9.0220777e-03 3.0870000e-01
  vertex -0.0000000e+00 -0.0000000e+00 3.0870000e-01
 endloop
endfacet
facet normal -0.000000e+00 0.000000e+00 1.000000e+00
 outer loop
  vertex -7.9121498e-03 -9.0220777e-03 3.0870000e-01
  vertex -7.3051371e-03 -9.5202401e-03 3.0870000e-01
  vertex -0.0000000e+00 -0.0000000e+00 3.0870000e-01
 endloop
endfacet
facet normal -0.000000e+00 0.000000e+00 1.000000e+00
 outer loop
  vertex -7.3051371e-03 -9.5202401e-03 3.0870000e-01
  vertex -6.6668428e-03 -9.9776353e-03 3.0870000e-01
  vertex -0.0000000e+00 -0.0000000e+00 3.0870000e-01
 endloop
endfacet
facet normal -0.000000e+00 0.000000e+00 1.000000e+00
 outer loop
  vertex -6.6668428e-03 -9.9776353e-03 3.0870000e-01
  vertex -6.0000000e-03 -1.0392305e-02 3.0870000e-01
  vertex -0.0000000e+00 -0.0000000e+00 3.0870000e-01
 endloop
endfacet
facet normal -0.000000e+00 0.000000e+00 1.000000e+00
 outer loop
  vertex -6.0000000e-03 -1.0392305e-02 3.0870000e-01
  vertex -5.3074643e-03 -1.0762473e-02 3.0870000e-01
  vertex -0.0000000e+00 -0.0000000e+00 3.0870000e-01
 endloop
endfacet
facet normal -0.000000e+00 0.000000e+00 1.000000e+00
 outer loop
  vertex -5.3074643e-03 -1.0762473e-02 3.0870000e-01
  vertex -4.5922012e-03 -1.1086554e-02 3.0870000e-01
  vertex -0.0000000e+00 -0.0000000e+00 3.0870000e-01
 endloop
endfacet
facet normal -0.000000e+00 0.000000e+00 1.000000e+00
 outer loop
  vertex -4.5922012e-03 -1.1086554e-02 3.0870000e-01
  vertex -3.8572736e-03 -1.1363162e-02 3.0870000e-01
  vertex -0.0000000e+00 -0.0000000e+00 3.0870000e-01
 endloop
endfacet
facet normal -0.000000e+00 0.000000e+00 1.000000e+00
 outer loop
  vertex -3.8572736e-03 -1.1363162e-02 3.0870000e-01
  vertex -3.1058285e-03 -1.1591110e-02 3.0870000e-01
  vertex -0.0000000e+00 -0.0000000e+00 3.0870000e-01
 endloop
endfacet
facet normal -0.000000e+00 0.000000e+00 1.000000e+00
 outer loop
  vertex -3.1058285e-03 -1.1591110e-02 3.0870000e-01
  vertex -2.3410839e-03 -1.1769423e-02 3.0870000e-01
  vertex -0.0000000e+00 -0.0000000e+00 3.0870000e-01
 endloop
endfacet
facet normal -0.000000e+00 0.000000e+00 1.000000e+00
 outer loop
  vertex -2.3410839e-03 -1.1769423e-02 3.0870000e-01
  vertex -1.5663143e-03 -1.1897338e-02 3.0870000e-01
  vertex -0.0000000e+00 -0.0000000e+00 3.0870000e-01
 endloop
endfacet
facet normal -0.000000e+00 0.000000e+00 1.000000e+00
 outer loop
  vertex -1.5663143e-03 -1.1897338e-02 3.0870000e-01
  vertex -7.8483755e-04 -1.1974307e-02 3.0870000e-01
  vertex -0.0000000e+00 -0.0000000e+00 3.0870000e-01
 endloop
endfacet
facet normal -0.000000e+00 0.000000e+00 1.000000e+00
 outer loop
  vertex -7.8483755e-04 -1.1974307e-02 3.0870000e-01
  vertex -2.2043642e-18 -1.2000000e-02 3.0870000e-01
  vertex -0.0000000e+00 -0.0000000e+00 3.0870000e-01
 endloop
endfacet
facet normal 0.000000e+00 0.000000e+00 1.000000e+00
 outer loop
  vertex -2.2043642e-18 -1.2000000e-02 3.0870000e-01
  vertex 7.8483755e-04 -1.1974307e-02 3.0870000e-01
  vertex 0.0000000e+00 -0.0000000e+00 3.0870000e-01
 endloop
endfacet
facet normal 0.000000e+00 -0.000000e+00 1.000000e+00
 outer loop
  vertex 7.8483755e-04 -1.1974307e-02 3.0870000e-01
  vertex 1.5663143e-03 -1.1897338e-02 3.0870000e-01
  vertex 0.0000000e+00 -0.0000000e+00 3.0870000e-01
 endloop
endfacet
facet normal 0.000000e+00 -0.000000e+00 1.000000e+00
 outer loop
  vertex 1.5663143e-03 -1.1897338e-02 3.0870000e-01
  vertex 2.3410839e-03 -1.1769423e-02 3.0870000e-01
  vertex 0.0000000e+00 -0.0000000e+00 3.0870000e-01
 endloop
endfacet
facet normal 0.000000e+00 -0.000000e+00 1.000000e+00
 outer loop
  vertex 2.3410839e-03 -1.1769423e-02 3.0870000e-01
  vertex 3.1058285e-03 -1.1591110e-02 3.0870000e-01
  vertex 0.0000000e+00 -0.0000000e+00 3.0870000e-01
 endloop
endfacet
facet normal 0.000000e+00 -0.000000e+00 1.000000e+00
 outer loop
  vertex 3.1058285e-03 -1.1591110e-02 3.0870000e-01
  vertex 3.8572736e-03 -1.1363162e-02 3.0870000e-01
  vertex 0.0000000e+00 -0.0000000e+00 3.0870000e-01
 endloop
endfacet
facet normal 0.000000e+00 -0.000000e+00 1.000000e+00
 outer loop
  vertex 3.8572736e-03 -1.1363162e-02 3.0870000e-01
  vertex 4.5922012e-03 -1.1086554e-02 3.0870000e-01
  vertex 0.0000000e+00 -0.0000000e+00 3.0870000e-01
 endloop
endfacet
facet normal 0.000000e+00 -0.000000e+00 1.000000e+00
 outer loop
  vertex 4.5922012e-03 -1.1086554e-02 3.0870000e-01
  vertex 5.3074643e-03 -1.0762473e-02 3.0870000e-01
  vertex 0.0000000e+00 -0.0000000e+00 3.0870000e-01
 endloop
endfacet
facet normal 0.000000e+00 -0.000000e+00 1.000000e+00
 outer loop
  vertex 5.3074643e-03 -1.0762473e-02 3.0870000e-01
  vertex 6.0000000e-03 -1.0392305e-02 3.0870000e-01
  vertex 0.0000000e+00 -0.0000000e+00 3.0870000e-01
 endloop
endfacet
facet normal 0.000000e+00 -0.000000e+00 1.000000e+00
 outer loop
  vertex 6.0000000e-03 -1.0392305e-02 3.0870000e-01
  vertex 6.6668428e-03 -9.9776353e-03 3.0870000e-01
  vertex 0.0000000e+00 -0.0000000e+00 3.0870000e-01
 endloop
endfacet
facet normal 0.000000e+00 -0.000000e+00 1.000000e+00
 outer loop
  vertex 6.6668428e-03 -9.9776353e-03 3.0870000e-01
  vertex 7.3051371e-03 -9.5202401e-03 3.0870000e-01
  vertex 0.0000000e+00 -0.0000000e+00 3.0870000e-01
 endloop
endfacet
facet normal 0.000000e+00 -0.000000e+00 1.000000e+00
 outer loop
  vertex 7.3051371e-03 -9.5202401e-03 3.0870000e-01
  vertex 7.9121498e-03 -9.0220777e-03 3.0870000e-01
  vertex 0.0000000e+00 -0.0000000e+00 3.0870000e-01
 endloop
endfacet
facet normal 0.000000e+00 -0.000000e+00 1.000000e+00
 outer loop
  vertex 7.9121498e-03 -9.0220777e-03 3.0870000e-01
  vertex 8.4852814e-03 -8.4852814e-03 3.0870000e-01
  vertex 0.0000000e+00 -0.0000000e+00 3.0870000e-01
 endloop
endfacet
facet normal 0.000000e+00 -0.000000e+00 1.000000e+00
 outer loop
  vertex 8.4852814e-03 -8.4852814e-03 3.0870000e-01
  vertex 9.0220777e-03 -7.9121498e-03 3.0870000e-01
  vertex 0.0000000e+00 -0.0000000e+00 3.0870000e-01
 endloop
endfacet
facet normal 0.000000e+00 -0.000000e+00 1.000000e+00
 outer loop
  vertex 9.0220777e-03 -7.9121498e-03 3.0870000e-01
  vertex 9.5202401e-03 -7.3051371e-03 3.0870000e-01
  vertex 0.0000000e+00 -0.0000000e+00 3.0870000e-01
 endloop
endfacet
facet normal 0.000000e+00 -0.000000e+00 1.000000e+00
 outer loop
  vertex 9.5202401e-03 -7.3051371e-03 3.0870000e-01
  vertex 9.9776353e-03 -6.6668428e-03 3.0870000e-01
  vertex 0.0000000e+00 -0.0000000e+00 3.0870000e-01
 endloop
endfacet
facet normal 0.000000e+00 -0.000000e+00 1.000000e+00
 outer loop
  vertex 9.9776353e-03 -6.6668428e-03 3.0870000e-01
  vertex 1.0392305e-02 -6.0000000e-03 3.0870000e-01
  vertex 0.0000000e+00 -0.0000000e+00 3.0870000e-01
 endloop
endfacet
facet normal 0.000000e+00 -0.000000e+00 1.000000e+00
 outer loop
  vertex 1.0392305e-02 -6.0000000e-03 3.0870000e-01
  vertex 1.0762473e-02 -5.3074643e-03 3.0870000e-01
  vertex 0.0000000e+00 -0.0000000e+00 3.0870000e-01
 endloop
endfacet
facet normal 0.000000e+00 -0.000000e+00 1.000000e+00
 outer loop
  vertex 1.0762473e-02 -5.3074643e-03 3.0870000e-01
  vertex 1.1086554e-02 -4.5922012e-03 3.0870000e-01
  vertex 0.0000000e+00 -0.0000000e+00 3.0870000e-01
 endloop
endfacet
facet normal 0.000000e+00 -0.000000e+00 1.000000e+00
 outer loop
  vertex 1.1086554e-02 -4.5922012e-03 3.0870000e-01
  vertex 1.1363162e-02 -3.8572736e-03 3.0870000e-01
  vertex 0.0000000e+00 -0.0000000e+00 3.0870000e-01
 endloop
endfacet
facet normal 0.000000e+00 -0.000000e+00 1.000000e+00
 outer loop
  vertex 1.1363162e-02 -3.8572736e-03 3.0870000e-01
  vertex 1.1591110e-02 -3.1058285e-03 3.0870000e-01
  vertex 0.0000000e+00 -0.0000000e+00 3.0870000e-01
 endloop
endfacet
facet normal 0.000000e+00 -0.000000e+00 1.000000e+00
 outer loop
  vertex 1.1591110e-02 -3.1058285e-03 3.0870000e-01
  vertex 1.1769423e-02 -2.3410839e-03 3.0870000e-01
  vertex 0.0000000e+00 -0.0000000e+00 3.0870000e-01
 endloop
endfacet
facet normal 0.000000e+00 -0.000000e+00 1.000000e+00
 outer loop
  vertex 1.1769423e-02 -2.3410839e-03 3.0870000e-01
  vertex 1.1897338e-02 -1.5663143e-03 3.0870000e-01
  vertex 0.0000000e+00 -0.0000000e+00 3.0870000e-01
 endloop
endfacet
facet normal 0.000000e+00 -0.000000e+00 1.000000e+00
 outer loop
  vertex 1.1897338e-02 -1.5663143e-03 3.0870000e-01
  vertex 1.1974307e-02 -7.8483755e-04 3.0870000e-01
  vertex 0.0000000e+00 -0.0000000e+00 3.0870000e-01
 endloop
endfacet
facet normal 0.000000e+00 -0.000000e+00 1.000000e+00
 outer loop
  vertex 1.1974307e-02 -7.8483755e-04 3.0870000e-01
  vertex 1.2000000e-02 0.0000000e+00 3.0870000e-01
  vertex 0.0000000e+00 0.0000000e+00 3.0870000e-01
 endloop
endfacet
endsolid cvwt_topcap
