solid cvwt_mount_plates
facet normal 1.000000e+00 -0.000000e+00 0.000000e+00
 outer loop
  vertex 8.5000000e-02 -8.5000000e-02 0.0000000e+00
  vertex 8.5000000e-02 -8.5000000e-02 -5.0000000e-03
  vertex 8.5000000e-02 8.5000000e-02 0.0000000e+00
 endloop
endfacet
facet normal 1.000000e+00 0.000000e+00 0.000000e+00
 outer loop
  vertex 8.5000000e-02 8.5000000e-02 0.0000000e+00
  vertex 8.5000000e-02 -8.5000000e-02 -5.0000000e-03
  vertex 8.5000000e-02 8.5000000e-02 -5.0000000e-03
 endloop
endfacet
facet normal 0.000000e+00 1.000000e+00 0.000000e+00
 outer loop
  vertex 8.5000000e-02 8.5000000e-02 0.0000000e+00
  vertex 8.5000000e-02 8.5000000e-02 -5.0000000e-03
  vertex -8.5000000e-02 8.5000000e-02 0.0000000e+00
 endloop
endfacet
facet normal 0.000000e+00 1.000000e+00 0.000000e+00
 outer loop
  vertex -8.5000000e-02 8.5000000e-02 0.0000000e+00
  vertex 8.5000000e-02 8.5000000e-02 -5.0000000e-03
  vertex -8.5000000e-02 8.5000000e-02 -5.0000000e-03
 endloop
endfacet
facet normal -1.000000e+00 -0.000000e+00 -0.000000e+00
 outer loop
  vertex -8.5000000e-02 8.5000000e-02 0.0000000e+00
  vertex -8.5000000e-02 8.5000000e-02 -5.0000000e-03
  vertex -8.5000000e-02 -8.5000000e-02 0.0000000e+00
 endloop
endfacet
facet normal -1.000000e+00 0.000000e+00 0.000000e+00
 outer loop
  vertex -8.5000000e-02 -8.5000000e-02 0.0000000e+00
  vertex -8.5000000e-02 8.5000000e-02 -5.0000000e-03
  vertex -8.5000000e-02 -8.5000000e-02 -5.0000000e-03
 endloop
endfacet
facet normal 0.000000e+00 -1.000000e+00 0.000000e+00
 outer loop
  vertex -8.5000000e-02 -8.5000000e-02 0.0000000e+00
  vertex -8.5000000e-02 -8.5000000e-02 -5.0000000e-03
  vertex 8.5000000e-02 -8.5000000e-02 0.0000000e+00
 endloop
endfacet
facet normal 0.000000e+00 -1.000000e+00 -0.000000e+00
 outer loop
  vertex 8.5000000e-02 -8.5000000e-02 0.0000000e+00
  vertex -8.5000000e-02 -8.5000000e-02 -5.0000000e-03
  vertex 8.5000000e-02 -8.5000000e-02 -5.0000000e-03
 endloop
endfacet
facet normal 0.000000e+00 0.000000e+00 -1.000000e+00
 outer loop
  vertex -8.5000000e-02 -8.5000000e-02 -5.0000000e-03
  vertex -8.5000000e-02 8.5000000e-02 -5.0000000e-03
  vertex 8.5000000e-02 -8.5000000e-02 -5.0000000e-03
 endloop
endfacet
facet normal 0.000000e+00 0.000000e+00 -1.000000e+00
 outer loop
  vertex -8.5000000e-02 8.5000000e-02 -5.0000000e-03
  vertex 8.5000000e-02 8.5000000e-02 -5.0000000e-03
  vertex 8.5000000e-02 -8.5000000e-02 -5.0000000e-03
 endloop
endfacet
facet normal 0.000000e+00 0.000000e+00 1.000000e+00
 outer loop
  vertex -8.5000000e-02 -8.5000000e-02 0.0000000e+00
  vertex 8.5000000e-02 -8.5000000e-02 0.0000000e+00
  vertex -8.5000000e-02 8.5000000e-02 0.0000000e+00
 endloop
endfacet
facet normal -0.000000e+00 0.000000e+00 1.000000e+00
 outer loop
  vertex -8.5000000e-02 8.5000000e-02 0.0000000e+00
  vertex 8.5000000e-02 -8.5000000e-02 0.0000000e+00
  vertex 8.5000000e-02 8.5000000e-02 0.0000000e+00
 endloop
endfacet
facet normal 1.000000e+00 -0.000000e+00 0.000000e+00
 outer loop
  vertex 8.5000000e-02 -5.5000000e-02 -5.0000000e-03
  vertex 8.5000000e-02 -5.5000000e-02 -1.5000000e-02
  vertex 8.5000000e-02 5.5000000e-02 -5.0000000e-03
 endloop
endfacet
facet normal 1.000000e+00 0.000000e+00 0.000000e+00
 outer loop
  vertex 8.5000000e-02 5.5000000e-02 -5.0000000e-03
  vertex 8.5000000e-02 -5.5000000e-02 -1.5000000e-02
  vertex 8.5000000e-02 5.5000000e-02 -1.5000000e-02
 endloop
endfacet
facet normal 0.000000e+00 1.000000e+00 0.000000e+00
 outer loop
  vertex 8.5000000e-02 5.5000000e-02 -5.0000000e-03
  vertex 8.5000000e-02 5.5000000e-02 -1.5000000e-02
  vertex -8.5000000e-02 5.5000000e-02 -5.0000000e-03
 endloop
endfacet
facet normal 0.000000e+00 1.000000e+00 0.000000e+00
 outer loop
  vertex -8.5000000e-02 5.5000000e-02 -5.0000000e-03
  vertex 8.5000000e-02 5.5000000e-02 -1.5000000e-02
  vertex -8.5000000e-02 5.5000000e-02 -1.5000000e-02
 endloop
endfacet
facet normal -1.000000e+00 -0.000000e+00 -0.000000e+00
 outer loop
  vertex -8.5000000e-02 5.5000000e-02 -5.0000000e-03
  vertex -8.5000000e-02 5.5000000e-02 -1.5000000e-02
  vertex -8.5000000e-02 -5.5000000e-02 -5.0000000e-03
 endloop
endfacet
facet normal -1.000000e+00 0.000000e+00 0.000000e+00
 outer loop
  vertex -8.5000000e-02 -5.5000000e-02 -5.0000000e-03
  vertex -8.5000000e-02 5.5000000e-02 -1.5000000e-02
  vertex -8.5000000e-02 -5.5000000e-02 -1.5000000e-02
 endloop
endfacet
facet normal 0.000000e+00 -1.000000e+00 0.000000e+00
 outer loop
  vertex -8.5000000e-02 -5.5000000e-02 -5.0000000e-03
  vertex -8.5000000e-02 -5.5000000e-02 -1.5000000e-02
  vertex 8.5000000e-02 -5.5000000e-02 -5.0000000e-03
 endloop
endfacet
facet normal 0.000000e+00 -1.000000e+00 -0.000000e+00
 outer loop
  vertex 8.5000000e-02 -5.5000000e-02 -5.0000000e-03
  vertex -8.5000000e-02 -5.5000000e-02 -1.5000000e-02
  vertex 8.5000000e-02 -5.5000000e-02 -1.5000000e-02
 endloop
endfacet
facet normal 0.000000e+00 0.000000e+00 -1.000000e+00
 outer loop
  vertex -8.5000000e-02 -5.5000000e-02 -1.5000000e-02
  vertex -8.5000000e-02 5.5000000e-02 -1.5000000e-02
  vertex 8.5000000e-02 -5.5000000e-02 -1.5000000e-02
 endloop
endfacet
facet normal 0.000000e+00 0.000000e+00 -1.000000e+00
 outer loop
  vertex -8.5000000e-02 5.5000000e-02 -1.5000000e-02
  vertex 8.5000000e-02 5.5000000e-02 -1.5000000e-02
  vertex 8.5000000e-02 -5.5000000e-02 -1.5000000e-02
 endloop
endfacet
facet normal 0.000000e+00 0.000000e+00 1.000000e+00
 outer loop
  vertex -8.5000000e-02 -5.5000000e-02 -5.0000000e-03
  vertex 8.5000000e-02 -5.5000000e-02 -5.0000000e-03
  vertex -8.5000000e-02 5.5000000e-02 -5.0000000e-03
 endloop
endfacet
facet normal -0.000000e+00 0.000000e+00 1.000000e+00
 outer loop
  vertex -8.5000000e-02 5.5000000e-02 -5.0000000e-03
  vertex 8.5000000e-02 -5.5000000e-02 -5.0000000e-03
  vertex 8.5000000e-02 5.5000000e-02 -5.0000000e-03
 endloop
endfacet
endsolid cvwt_mount_plates
