solid rig_end_bars
facet normal 1.000000e+00 -0.000000e+00 0.000000e+00
 outer loop
  vertex -1.2400000e+00 -3.5000000e-01 -1.5000000e-02
  vertex -1.2400000e+00 -3.5000000e-01 -3.5000000e-02
  vertex -1.2400000e+00 3.5000000e-01 -1.5000000e-02
 endloop
endfacet
facet normal 1.000000e+00 0.000000e+00 0.000000e+00
 outer loop
  vertex -1.2400000e+00 3.5000000e-01 -1.5000000e-02
  vertex -1.2400000e+00 -3.5000000e-01 -3.5000000e-02
  vertex -1.2400000e+00 3.5000000e-01 -3.5000000e-02
 endloop
endfacet
facet normal 0.000000e+00 1.000000e+00 0.000000e+00
 outer loop
  vertex -1.2400000e+00 3.5000000e-01 -1.5000000e-02
  vertex -1.2400000e+00 3.5000000e-01 -3.5000000e-02
  vertex -1.2600000e+00 3.5000000e-01 -1.5000000e-02
 endloop
endfacet
facet normal 0.000000e+00 1.000000e+00 0.000000e+00
 outer loop
  vertex -1.2600000e+00 3.5000000e-01 -1.5000000e-02
  vertex -1.2400000e+00 3.5000000e-01 -3.5000000e-02
  vertex -1.2600000e+00 3.5000000e-01 -3.5000000e-02
 endloop
endfacet
facet normal -1.000000e+00 -0.000000e+00 -0.000000e+00
 outer loop
  vertex -1.2600000e+00 3.5000000e-01 -1.5000000e-02
  vertex -1.2600000e+00 3.5000000e-01 -3.5000000e-02
  vertex -1.2600000e+00 -3.5000000e-01 -1.5000000e-02
 endloop
endfacet
facet normal -1.000000e+00 0.000000e+00 0.000000e+00
 outer loop
  vertex -1.2600000e+00 -3.5000000e-01 -1.5000000e-02
  vertex -1.2600000e+00 3.5000000e-01 -3.5000000e-02
  vertex -1.2600000e+00 -3.5000000e-01 -3.5000000e-02
 endloop
endfacet
facet normal 0.000000e+00 -1.000000e+00 0.000000e+00
 outer loop
  vertex -1.2600000e+00 -3.5000000e-01 -1.5000000e-02
  vertex -1.2600000e+00 -3.5000000e-01 -3.5000000e-02
  vertex -1.2400000e+00 -3.5000000e-01 -1.5000000e-02
 endloop
endfacet
facet normal 0.000000e+00 -1.000000e+00 -0.000000e+00
 outer loop
  vertex -1.2400000e+00 -3.5000000e-01 -1.5000000e-02
  vertex -1.2600000e+00 -3.5000000e-01 -3.5000000e-02
  vertex -1.2400000e+00 -3.5000000e-01 -3.5000000e-02
 endloop
endfacet
facet normal 0.000000e+00 0.000000e+00 -1.000000e+00
 outer loop
  vertex -1.2600000e+00 -3.5000000e-01 -3.5000000e-02
  vertex -1.2600000e+00 3.5000000e-01 -3.5000000e-02
  vertex -1.2400000e+00 -3.5000000e-01 -3.5000000e-02
 endloop
endfacet
facet normal 0.000000e+00 0.000000e+00 -1.000000e+00
 outer loop
  vertex -1.2600000e+00 3.5000000e-01 -3.5000000e-02
  vertex -1.2400000e+00 3.5000000e-01 -3.5000000e-02
  vertex -1.2400000e+00 -3.5000000e-01 -3.5000000e-02
 endloop
endfacet
facet normal 0.000000e+00 0.000000e+00 1.000000e+00
 outer loop
  vertex -1.2600000e+00 -3.5000000e-01 -1.5000000e-02
  vertex -1.2400000e+00 -3.5000000e-01 -1.5000000e-02
  vertex -1.2600000e+00 3.5000000e-01 -1.5000000e-02
 endloop
endfacet
facet normal -0.000000e+00 0.000000e+00 1.000000e+00
 outer loop
  vertex -1.2600000e+00 3.5000000e-01 -1.5000000e-02
  vertex -1.2400000e+00 -3.5000000e-01 -1.5000000e-02
  vertex -1.2400000e+00 3.5000000e-01 -1.5000000e-02
 endloop
endfacet
facet normal 1.000000e+00 -0.000000e+00 0.000000e+00
 outer loop
  vertex 1.2600000e+00 -3.5000000e-01 -1.5000000e-02
  vertex 1.2600000e+00 -3.5000000e-01 -3.5000000e-02
  vertex 1.2600000e+00 3.5000000e-01 -1.5000000e-02
 endloop
endfacet
facet normal 1.000000e+00 0.000000e+00 0.000000e+00
 outer loop
  vertex 1.2600000e+00 3.5000000e-01 -1.5000000e-02
  vertex 1.2600000e+00 -3.5000000e-01 -3.5000000e-02
  vertex 1.2600000e+00 3.5000000e-01 -3.5000000e-02
 endloop
endfacet
facet normal 0.000000e+00 1.000000e+00 0.000000e+00
 outer loop
  vertex 1.2600000e+00 3.5000000e-01 -1.5000000e-02
  vertex 1.2600000e+00 3.5000000e-01 -3.5000000e-02
  vertex 1.2400000e+00 3.5000000e-01 -1.5000000e-02
 endloop
endfacet
facet normal 0.000000e+00 1.000000e+00 0.000000e+00
 outer loop
  vertex 1.2400000e+00 3.5000000e-01 -1.5000000e-02
  vertex 1.2600000e+00 3.5000000e-01 -3.5000000e-02
  vertex 1.2400000e+00 3.5000000e-01 -3.5000000e-02
 endloop
endfacet
facet normal -1.000000e+00 -0.000000e+00 -0.000000e+00
 outer loop
  vertex 1.2400000e+00 3.5000000e-01 -1.5000000e-02
  vertex 1.2400000e+00 3.5000000e-01 -3.5000000e-02
  vertex 1.2400000e+00 -3.5000000e-01 -1.5000000e-02
 endloop
endfacet
facet normal -1.000000e+00 0.000000e+00 0.000000e+00
 outer loop
  vertex 1.2400000e+00 -3.5000000e-01 -1.5000000e-02
  vertex 1.2400000e+00 3.5000000e-01 -3.5000000e-02
  vertex 1.2400000e+00 -3.5000000e-01 -3.5000000e-02
 endloop
endfacet
facet normal 0.000000e+00 -1.000000e+00 0.000000e+00
 outer loop
  vertex 1.2400000e+00 -3.5000000e-01 -1.5000000e-02
  vertex 1.2400000e+00 -3.5000000e-01 -3.5000000e-02
  vertex 1.2600000e+00 -3.5000000e-01 -1.5000000e-02
 endloop
endfacet
facet normal 0.000000e+00 -1.000000e+00 -0.000000e+00
 outer loop
  vertex 1.2600000e+00 -3.5000000e-01 -1.5000000e-02
  vertex 1.2400000e+00 -3.5000000e-01 -3.5000000e-02
  vertex 1.2600000e+00 -3.5000000e-01 -3.5000000e-02
 endloop
endfacet
facet normal 0.000000e+00 0.000000e+00 -1.000000e+00
 outer loop
  vertex 1.2400000e+00 -3.5000000e-01 -3.5000000e-02
  vertex 1.2400000e+00 3.5000000e-01 -3.5000000e-02
  vertex 1.2600000e+00 -3.5000000e-01 -3.5000000e-02
 endloop
endfacet
facet normal 0.000000e+00 0.000000e+00 -1.000000e+00
 outer loop
  vertex 1.2400000e+00 3.5000000e-01 -3.5000000e-02
  vertex 1.2600000e+00 3.5000000e-01 -3.5000000e-02
  vertex 1.2600000e+00 -3.5000000e-01 -3.5000000e-02
 endloop
endfacet
facet normal 0.000000e+00 0.000000e+00 1.000000e+00
 outer loop
  vertex 1.2400000e+00 -3.5000000e-01 -1.5000000e-02
  vertex 1.2600000e+00 -3.5000000e-01 -1.5000000e-02
  vertex 1.2400000e+00 3.5000000e-01 -1.5000000e-02
 endloop
endfacet
facet normal -0.000000e+00 0.000000e+00 1.000000e+00
 outer loop
  vertex 1.2400000e+00 3.5000000e-01 -1.5000000e-02
  vertex 1.2600000e+00 -3.5000000e-01 -1.5000000e-02
  vertex 1.2600000e+00 3.5000000e-01 -1.5000000e-02
 endloop
endfacet
endsolid rig_end_bars
