solid rig_enclosure
facet normal 1.000000e+00 -0.000000e+00 0.000000e+00
 outer loop
  vertex 1.2400000e+00 -3.7000000e-01 4.4500000e-01
  vertex 1.2400000e+00 -3.7000000e-01 -3.4500000e-01
  vertex 1.2400000e+00 -3.6700000e-01 4.4500000e-01
 endloop
endfacet
facet normal 1.000000e+00 0.000000e+00 0.000000e+00
 outer loop
  vertex 1.2400000e+00 -3.6700000e-01 4.4500000e-01
  vertex 1.2400000e+00 -3.7000000e-01 -3.4500000e-01
  vertex 1.2400000e+00 -3.6700000e-01 -3.4500000e-01
 endloop
endfacet
facet normal 0.000000e+00 1.000000e+00 0.000000e+00
 outer loop
  vertex 1.2400000e+00 -3.6700000e-01 4.4500000e-01
  vertex 1.2400000e+00 -3.6700000e-01 -3.4500000e-01
  vertex -1.2400000e+00 -3.6700000e-01 4.4500000e-01
 endloop
endfacet
facet normal 0.000000e+00 1.000000e+00 0.000000e+00
 outer loop
  vertex -1.2400000e+00 -3.6700000e-01 4.4500000e-01
  vertex 1.2400000e+00 -3.6700000e-01 -3.4500000e-01
  vertex -1.2400000e+00 -3.6700000e-01 -3.4500000e-01
 endloop
endfacet
facet normal -1.000000e+00 -0.000000e+00 -0.000000e+00
 outer loop
  vertex -1.2400000e+00 -3.6700000e-01 4.4500000e-01
  vertex -1.2400000e+00 -3.6700000e-01 -3.4500000e-01
  vertex -1.2400000e+00 -3.7000000e-01 4.4500000e-01
 endloop
endfacet
facet normal -1.000000e+00 0.000000e+00 0.000000e+00
 outer loop
  vertex -1.2400000e+00 -3.7000000e-01 4.4500000e-01
  vertex -1.2400000e+00 -3.6700000e-01 -3.4500000e-01
  vertex -1.2400000e+00 -3.7000000e-01 -3.4500000e-01
 endloop
endfacet
facet normal 0.000000e+00 -1.000000e+00 0.000000e+00
 outer loop
  vertex -1.2400000e+00 -3.7000000e-01 4.4500000e-01
  vertex -1.2400000e+00 -3.7000000e-01 -3.4500000e-01
  vertex 1.2400000e+00 -3.7000000e-01 4.4500000e-01
 endloop
endfacet
facet normal 0.000000e+00 -1.000000e+00 -0.000000e+00
 outer loop
  vertex 1.2400000e+00 -3.7000000e-01 4.4500000e-01
  vertex -1.2400000e+00 -3.7000000e-01 -3.4500000e-01
  vertex 1.2400000e+00 -3.7000000e-01 -3.4500000e-01
 endloop
endfacet
facet normal 0.000000e+00 0.000000e+00 -1.000000e+00
 outer loop
  vertex -1.2400000e+00 -3.7000000e-01 -3.4500000e-01
  vertex -1.2400000e+00 -3.6700000e-01 -3.4500000e-01
  vertex 1.2400000e+00 -3.7000000e-01 -3.4500000e-01
 endloop
endfacet
facet normal 0.000000e+00 0.000000e+00 -1.000000e+00
 outer loop
  vertex -1.2400000e+00 -3.6700000e-01 -3.4500000e-01
  vertex 1.2400000e+00 -3.6700000e-01 -3.4500000e-01
  vertex 1.2400000e+00 -3.7000000e-01 -3.4500000e-01
 endloop
endfacet
facet normal 0.000000e+00 0.000000e+00 1.000000e+00
 outer loop
  vertex -1.2400000e+00 -3.7000000e-01 4.4500000e-01
  vertex 1.2400000e+00 -3.7000000e-01 4.4500000e-01
  vertex -1.2400000e+00 -3.6700000e-01 4.4500000e-01
 endloop
endfacet
facet normal -0.000000e+00 0.000000e+00 1.000000e+00
 outer loop
  vertex -1.2400000e+00 -3.6700000e-01 4.4500000e-01
  vertex 1.2400000e+00 -3.7000000e-01 4.4500000e-01
  vertex 1.2400000e+00 -3.6700000e-01 4.4500000e-01
 endloop
endfacet
facet normal 1.000000e+00 -0.000000e+00 0.000000e+00
 outer loop
  vertex 1.2400000e+00 3.6700000e-01 4.4500000e-01
  vertex 1.2400000e+00 3.6700000e-01 -3.4500000e-01
  vertex 1.2400000e+00 3.7000000e-01 4.4500000e-01
 endloop
endfacet
facet normal 1.000000e+00 0.000000e+00 0.000000e+00
 outer loop
  vertex 1.2400000e+00 3.7000000e-01 4.4500000e-01
  vertex 1.2400000e+00 3.6700000e-01 -3.4500000e-01
  vertex 1.2400000e+00 3.7000000e-01 -3.4500000e-01
 endloop
endfacet
facet normal 0.000000e+00 1.000000e+00 0.000000e+00
 outer loop
  vertex 1.2400000e+00 3.7000000e-01 4.4500000e-01
  vertex 1.2400000e+00 3.7000000e-01 -3.4500000e-01
  vertex -1.2400000e+00 3.7000000e-01 4.4500000e-01
 endloop
endfacet
facet normal 0.000000e+00 1.000000e+00 0.000000e+00
 outer loop
  vertex -1.2400000e+00 3.7000000e-01 4.4500000e-01
  vertex 1.2400000e+00 3.7000000e-01 -3.4500000e-01
  vertex -1.2400000e+00 3.7000000e-01 -3.4500000e-01
 endloop
endfacet
facet normal -1.000000e+00 -0.000000e+00 -0.000000e+00
 outer loop
  vertex -1.2400000e+00 3.7000000e-01 4.4500000e-01
  vertex -1.2400000e+00 3.7000000e-01 -3.4500000e-01
  vertex -1.2400000e+00 3.6700000e-01 4.4500000e-01
 endloop
endfacet
facet normal -1.000000e+00 0.000000e+00 0.000000e+00
 outer loop
  vertex -1.2400000e+00 3.6700000e-01 4.4500000e-01
  vertex -1.2400000e+00 3.7000000e-01 -3.4500000e-01
  vertex -1.2400000e+00 3.6700000e-01 -3.4500000e-01
 endloop
endfacet
facet normal 0.000000e+00 -1.000000e+00 0.000000e+00
 outer loop
  vertex -1.2400000e+00 3.6700000e-01 4.4500000e-01
  vertex -1.2400000e+00 3.6700000e-01 -3.4500000e-01
  vertex 1.2400000e+00 3.6700000e-01 4.4500000e-01
 endloop
endfacet
facet normal 0.000000e+00 -1.000000e+00 -0.000000e+00
 outer loop
  vertex 1.2400000e+00 3.6700000e-01 4.4500000e-01
  vertex -1.2400000e+00 3.6700000e-01 -3.4500000e-01
  vertex 1.2400000e+00 3.6700000e-01 -3.4500000e-01
 endloop
endfacet
facet normal 0.000000e+00 0.000000e+00 -1.000000e+00
 outer loop
  vertex -1.2400000e+00 3.6700000e-01 -3.4500000e-01
  vertex -1.2400000e+00 3.7000000e-01 -3.4500000e-01
  vertex 1.2400000e+00 3.6700000e-01 -3.4500000e-01
 endloop
endfacet
facet normal 0.000000e+00 0.000000e+00 -1.000000e+00
 outer loop
  vertex -1.2400000e+00 3.7000000e-01 -3.4500000e-01
  vertex 1.2400000e+00 3.7000000e-01 -3.4500000e-01
  vertex 1.2400000e+00 3.6700000e-01 -3.4500000e-01
 endloop
endfacet
facet normal 0.000000e+00 0.000000e+00 1.000000e+00
 outer loop
  vertex -1.2400000e+00 3.6700000e-01 4.4500000e-01
  vertex 1.2400000e+00 3.6700000e-01 4.4500000e-01
  vertex -1.2400000e+00 3.7000000e-01 4.4500000e-01
 endloop
endfacet
facet normal -0.000000e+00 0.000000e+00 1.000000e+00
 outer loop
  vertex -1.2400000e+00 3.7000000e-01 4.4500000e-01
  vertex 1.2400000e+00 3.6700000e-01 4.4500000e-01
  vertex 1.2400000e+00 3.7000000e-01 4.4500000e-01
 endloop
endfacet
facet normal 1.000000e+00 -0.000000e+00 0.000000e+00
 outer loop
  vertex 1.2400000e+00 -3.5000000e-01 4.6500000e-01
  vertex 1.2400000e+00 -3.5000000e-01 4.6200000e-01
  vertex 1.2400000e+00 3.5000000e-01 4.6500000e-01
 endloop
endfacet
facet normal 1.000000e+00 0.000000e+00 0.000000e+00
 outer loop
  vertex 1.2400000e+00 3.5000000e-01 4.6500000e-01
  vertex 1.2400000e+00 -3.5000000e-01 4.6200000e-01
  vertex 1.2400000e+00 3.5000000e-01 4.6200000e-01
 endloop
endfacet
facet normal 0.000000e+00 1.000000e+00 0.000000e+00
 outer loop
  vertex 1.2400000e+00 3.5000000e-01 4.6500000e-01
  vertex 1.2400000e+00 3.5000000e-01 4.6200000e-01
  vertex -1.2400000e+00 3.5000000e-01 4.6500000e-01
 endloop
endfacet
facet normal 0.000000e+00 1.000000e+00 0.000000e+00
 outer loop
  vertex -1.2400000e+00 3.5000000e-01 4.6500000e-01
  vertex 1.2400000e+00 3.5000000e-01 4.6200000e-01
  vertex -1.2400000e+00 3.5000000e-01 4.6200000e-01
 endloop
endfacet
facet normal -1.000000e+00 -0.000000e+00 -0.000000e+00
 outer loop
  vertex -1.2400000e+00 3.5000000e-01 4.6500000e-01
  vertex -1.2400000e+00 3.5000000e-01 4.6200000e-01
  vertex -1.2400000e+00 -3.5000000e-01 4.6500000e-01
 endloop
endfacet
facet normal -1.000000e+00 0.000000e+00 0.000000e+00
 outer loop
  vertex -1.2400000e+00 -3.5000000e-01 4.6500000e-01
  vertex -1.2400000e+00 3.5000000e-01 4.6200000e-01
  vertex -1.2400000e+00 -3.5000000e-01 4.6200000e-01
 endloop
endfacet
facet normal 0.000000e+00 -1.000000e+00 0.000000e+00
 outer loop
  vertex -1.2400000e+00 -3.5000000e-01 4.6500000e-01
  vertex -1.2400000e+00 -3.5000000e-01 4.6200000e-01
  vertex 1.2400000e+00 -3.5000000e-01 4.6500000e-01
 endloop
endfacet
facet normal 0.000000e+00 -1.000000e+00 -0.000000e+00
 outer loop
  vertex 1.2400000e+00 -3.5000000e-01 4.6500000e-01
  vertex -1.2400000e+00 -3.5000000e-01 4.6200000e-01
  vertex 1.2400000e+00 -3.5000000e-01 4.6200000e-01
 endloop
endfacet
facet normal 0.000000e+00 0.000000e+00 -1.000000e+00
 outer loop
  vertex -1.2400000e+00 -3.5000000e-01 4.6200000e-01
  vertex -1.2400000e+00 3.5000000e-01 4.6200000e-01
  vertex 1.2400000e+00 -3.5000000e-01 4.6200000e-01
 endloop
endfacet
facet normal 0.000000e+00 0.000000e+00 -1.000000e+00
 outer loop
  vertex -1.2400000e+00 3.5000000e-01 4.6200000e-01
  vertex 1.2400000e+00 3.5000000e-01 4.6200000e-01
  vertex 1.2400000e+00 -3.5000000e-01 4.6200000e-01
 endloop
endfacet
facet normal 0.000000e+00 0.000000e+00 1.000000e+00
 outer loop
  vertex -1.2400000e+00 -3.5000000e-01 4.6500000e-01
  vertex 1.2400000e+00 -3.5000000e-01 4.6500000e-01
  vertex -1.2400000e+00 3.5000000e-01 4.6500000e-01
 endloop
endfacet
facet normal -0.000000e+00 0.000000e+00 1.000000e+00
 outer loop
  vertex -1.2400000e+00 3.5000000e-01 4.6500000e-01
  vertex 1.2400000e+00 -3.5000000e-01 4.6500000e-01
  vertex 1.2400000e+00 3.5000000e-01 4.6500000e-01
 endloop
endfacet
facet normal 1.000000e+00 -0.000000e+00 0.000000e+00
 outer loop
  vertex -1.2400000e+00 -3.7000000e-01 4.4500000e-01
  vertex -1.2400000e+00 -3.7000000e-01 -3.4500000e-01
  vertex -1.2400000e+00 -3.5000000e-01 4.4500000e-01
 endloop
endfacet
facet normal 1.000000e+00 0.000000e+00 0.000000e+00
 outer loop
  vertex -1.2400000e+00 -3.5000000e-01 4.4500000e-01
  vertex -1.2400000e+00 -3.7000000e-01 -3.4500000e-01
  vertex -1.2400000e+00 -3.5000000e-01 -3.4500000e-01
 endloop
endfacet
facet normal 0.000000e+00 1.000000e+00 0.000000e+00
 outer loop
  vertex -1.2400000e+00 -3.5000000e-01 4.4500000e-01
  vertex -1.2400000e+00 -3.5000000e-01 -3.4500000e-01
  vertex -1.2600000e+00 -3.5000000e-01 4.4500000e-01
 endloop
endfacet
facet normal 0.000000e+00 1.000000e+00 0.000000e+00
 outer loop
  vertex -1.2600000e+00 -3.5000000e-01 4.4500000e-01
  vertex -1.2400000e+00 -3.5000000e-01 -3.4500000e-01
  vertex -1.2600000e+00 -3.5000000e-01 -3.4500000e-01
 endloop
endfacet
facet normal -1.000000e+00 -0.000000e+00 -0.000000e+00
 outer loop
  vertex -1.2600000e+00 -3.5000000e-01 4.4500000e-01
  vertex -1.2600000e+00 -3.5000000e-01 -3.4500000e-01
  vertex -1.2600000e+00 -3.7000000e-01 4.4500000e-01
 endloop
endfacet
facet normal -1.000000e+00 0.000000e+00 0.000000e+00
 outer loop
  vertex -1.2600000e+00 -3.7000000e-01 4.4500000e-01
  vertex -1.2600000e+00 -3.5000000e-01 -3.4500000e-01
  vertex -1.2600000e+00 -3.7000000e-01 -3.4500000e-01
 endloop
endfacet
facet normal 0.000000e+00 -1.000000e+00 0.000000e+00
 outer loop
  vertex -1.2600000e+00 -3.7000000e-01 4.4500000e-01
  vertex -1.2600000e+00 -3.7000000e-01 -3.4500000e-01
  vertex -1.2400000e+00 -3.7000000e-01 4.4500000e-01
 endloop
endfacet
facet normal 0.000000e+00 -1.000000e+00 -0.000000e+00
 outer loop
  vertex -1.2400000e+00 -3.7000000e-01 4.4500000e-01
  vertex -1.2600000e+00 -3.7000000e-01 -3.4500000e-01
  vertex -1.2400000e+00 -3.7000000e-01 -3.4500000e-01
 endloop
endfacet
facet normal 0.000000e+00 0.000000e+00 -1.000000e+00
 outer loop
  vertex -1.2600000e+00 -3.7000000e-01 -3.4500000e-01
  vertex -1.2600000e+00 -3.5000000e-01 -3.4500000e-01
  vertex -1.2400000e+00 -3.7000000e-01 -3.4500000e-01
 endloop
endfacet
facet normal 0.000000e+00 0.000000e+00 -1.000000e+00
 outer loop
  vertex -1.2600000e+00 -3.5000000e-01 -3.4500000e-01
  vertex -1.2400000e+00 -3.5000000e-01 -3.4500000e-01
  vertex -1.2400000e+00 -3.7000000e-01 -3.4500000e-01
 endloop
endfacet
facet normal 0.000000e+00 0.000000e+00 1.000000e+00
 outer loop
  vertex -1.2600000e+00 -3.7000000e-01 4.4500000e-01
  vertex -1.2400000e+00 -3.7000000e-01 4.4500000e-01
  vertex -1.2600000e+00 -3.5000000e-01 4.4500000e-01
 endloop
endfacet
facet normal -0.000000e+00 0.000000e+00 1.000000e+00
 outer loop
  vertex -1.2600000e+00 -3.5000000e-01 4.4500000e-01
  vertex -1.2400000e+00 -3.7000000e-01 4.4500000e-01
  vertex -1.2400000e+00 -3.5000000e-01 4.4500000e-01
 endloop
endfacet
facet normal 1.000000e+00 -0.000000e+00 0.000000e+00
 outer loop
  vertex -1.2400000e+00 3.5000000e-01 4.4500000e-01
  vertex -1.2400000e+00 3.5000000e-01 -3.4500000e-01
  vertex -1.2400000e+00 3.7000000e-01 4.4500000e-01
 endloop
endfacet
facet normal 1.000000e+00 0.000000e+00 0.000000e+00
 outer loop
  vertex -1.2400000e+00 3.7000000e-01 4.4500000e-01
  vertex -1.2400000e+00 3.5000000e-01 -3.4500000e-01
  vertex -1.2400000e+00 3.7000000e-01 -3.4500000e-01
 endloop
endfacet
facet normal 0.000000e+00 1.000000e+00 0.000000e+00
 outer loop
  vertex -1.2400000e+00 3.7000000e-01 4.4500000e-01
  vertex -1.2400000e+00 3.7000000e-01 -3.4500000e-01
  vertex -1.2600000e+00 3.7000000e-01 4.4500000e-01
 endloop
endfacet
facet normal 0.000000e+00 1.000000e+00 0.000000e+00
 outer loop
  vertex -1.2600000e+00 3.7000000e-01 4.4500000e-01
  vertex -1.2400000e+00 3.7000000e-01 -3.4500000e-01
  vertex -1.2600000e+00 3.7000000e-01 -3.4500000e-01
 endloop
endfacet
facet normal -1.000000e+00 -0.000000e+00 -0.000000e+00
 outer loop
  vertex -1.2600000e+00 3.7000000e-01 4.4500000e-01
  vertex -1.2600000e+00 3.7000000e-01 -3.4500000e-01
  vertex -1.2600000e+00 3.5000000e-01 4.4500000e-01
 endloop
endfacet
facet normal -1.000000e+00 0.000000e+00 0.000000e+00
 outer loop
  vertex -1.2600000e+00 3.5000000e-01 4.4500000e-01
  vertex -1.2600000e+00 3.7000000e-01 -3.4500000e-01
  vertex -1.2600000e+00 3.5000000e-01 -3.4500000e-01
 endloop
endfacet
facet normal 0.000000e+00 -1.000000e+00 0.000000e+00
 outer loop
  vertex -1.2600000e+00 3.5000000e-01 4.4500000e-01
  vertex -1.2600000e+00 3.5000000e-01 -3.4500000e-01
  vertex -1.2400000e+00 3.5000000e-01 4.4500000e-01
 endloop
endfacet
facet normal 0.000000e+00 -1.000000e+00 -0.000000e+00
 outer loop
  vertex -1.2400000e+00 3.5000000e-01 4.4500000e-01
  vertex -1.2600000e+00 3.5000000e-01 -3.4500000e-01
  vertex -1.2400000e+00 3.5000000e-01 -3.4500000e-01
 endloop
endfacet
facet normal 0.000000e+00 0.000000e+00 -1.000000e+00
 outer loop
  vertex -1.2600000e+00 3.5000000e-01 -3.4500000e-01
  vertex -1.2600000e+00 3.7000000e-01 -3.4500000e-01
  vertex -1.2400000e+00 3.5000000e-01 -3.4500000e-01
 endloop
endfacet
facet normal 0.000000e+00 0.000000e+00 -1.000000e+00
 outer loop
  vertex -1.2600000e+00 3.7000000e-01 -3.4500000e-01
  vertex -1.2400000e+00 3.7000000e-01 -3.4500000e-01
  vertex -1.2400000e+00 3.5000000e-01 -3.4500000e-01
 endloop
endfacet
facet normal 0.000000e+00 0.000000e+00 1.000000e+00
 outer loop
  vertex -1.2600000e+00 3.5000000e-01 4.4500000e-01
  vertex -1.2400000e+00 3.5000000e-01 4.4500000e-01
  vertex -1.2600000e+00 3.7000000e-01 4.4500000e-01
 endloop
endfacet
facet normal -0.000000e+00 0.000000e+00 1.000000e+00
 outer loop
  vertex -1.2600000e+00 3.7000000e-01 4.4500000e-01
  vertex -1.2400000e+00 3.5000000e-01 4.4500000e-01
  vertex -1.2400000e+00 3.7000000e-01 4.4500000e-01
 endloop
endfacet
facet normal 1.000000e+00 -0.000000e+00 0.000000e+00
 outer loop
  vertex 1.2600000e+00 -3.7000000e-01 4.4500000e-01
  vertex 1.2600000e+00 -3.7000000e-01 -3.4500000e-01
  vertex 1.2600000e+00 -3.5000000e-01 4.4500000e-01
 endloop
endfacet
facet normal 1.000000e+00 0.000000e+00 0.000000e+00
 outer loop
  vertex 1.2600000e+00 -3.5000000e-01 4.4500000e-01
  vertex 1.2600000e+00 -3.7000000e-01 -3.4500000e-01
  vertex 1.2600000e+00 -3.5000000e-01 -3.4500000e-01
 endloop
endfacet
facet normal 0.000000e+00 1.000000e+00 0.000000e+00
 outer loop
  vertex 1.2600000e+00 -3.5000000e-01 4.4500000e-01
  vertex 1.2600000e+00 -3.5000000e-01 -3.4500000e-01
  vertex 1.2400000e+00 -3.5000000e-01 4.4500000e-01
 endloop
endfacet
facet normal 0.000000e+00 1.000000e+00 0.000000e+00
 outer loop
  vertex 1.2400000e+00 -3.5000000e-01 4.4500000e-01
  vertex 1.2600000e+00 -3.5000000e-01 -3.4500000e-01
  vertex 1.2400000e+00 -3.5000000e-01 -3.4500000e-01
 endloop
endfacet
facet normal -1.000000e+00 -0.000000e+00 -0.000000e+00
 outer loop
  vertex 1.2400000e+00 -3.5000000e-01 4.4500000e-01
  vertex 1.2400000e+00 -3.5000000e-01 -3.4500000e-01
  vertex 1.2400000e+00 -3.7000000e-01 4.4500000e-01
 endloop
endfacet
facet normal -1.000000e+00 0.000000e+00 0.000000e+00
 outer loop
  vertex 1.2400000e+00 -3.7000000e-01 4.4500000e-01
  vertex 1.2400000e+00 -3.5000000e-01 -3.4500000e-01
  vertex 1.2400000e+00 -3.7000000e-01 -3.4500000e-01
 endloop
endfacet
facet normal 0.000000e+00 -1.000000e+00 0.000000e+00
 outer loop
  vertex 1.2400000e+00 -3.7000000e-01 4.4500000e-01
  vertex 1.2400000e+00 -3.7000000e-01 -3.4500000e-01
  vertex 1.2600000e+00 -3.7000000e-01 4.4500000e-01
 endloop
endfacet
facet normal 0.000000e+00 -1.000000e+00 -0.000000e+00
 outer loop
  vertex 1.2600000e+00 -3.7000000e-01 4.4500000e-01
  vertex 1.2400000e+00 -3.7000000e-01 -3.4500000e-01
  vertex 1.2600000e+00 -3.7000000e-01 -3.4500000e-01
 endloop
endfacet
facet normal 0.000000e+00 0.000000e+00 -1.000000e+00
 outer loop
  vertex 1.2400000e+00 -3.7000000e-01 -3.4500000e-01
  vertex 1.2400000e+00 -3.5000000e-01 -3.4500000e-01
  vertex 1.2600000e+00 -3.7000000e-01 -3.4500000e-01
 endloop
endfacet
facet normal 0.000000e+00 0.000000e+00 -1.000000e+00
 outer loop
  vertex 1.2400000e+00 -3.5000000e-01 -3.4500000e-01
  vertex 1.2600000e+00 -3.5000000e-01 -3.4500000e-01
  vertex 1.2600000e+00 -3.7000000e-01 -3.4500000e-01
 endloop
endfacet
facet normal 0.000000e+00 0.000000e+00 1.000000e+00
 outer loop
  vertex 1.2400000e+00 -3.7000000e-01 4.4500000e-01
  vertex 1.2600000e+00 -3.7000000e-01 4.4500000e-01
  vertex 1.2400000e+00 -3.5000000e-01 4.4500000e-01
 endloop
endfacet
facet normal -0.000000e+00 0.000000e+00 1.000000e+00
 outer loop
  vertex 1.2400000e+00 -3.5000000e-01 4.4500000e-01
  vertex 1.2600000e+00 -3.7000000e-01 4.4500000e-01
  vertex 1.2600000e+00 -3.5000000e-01 4.4500000e-01
 endloop
endfacet
facet normal 1.000000e+00 -0.000000e+00 0.000000e+00
 outer loop
  vertex 1.2600000e+00 3.5000000e-01 4.4500000e-01
  vertex 1.2600000e+00 3.5000000e-01 -3.4500000e-01
  vertex 1.2600000e+00 3.7000000e-01 4.4500000e-01
 endloop
endfacet
facet normal 1.000000e+00 0.000000e+00 0.000000e+00
 outer loop
  vertex 1.2600000e+00 3.7000000e-01 4.4500000e-01
  vertex 1.2600000e+00 3.5000000e-01 -3.4500000e-01
  vertex 1.2600000e+00 3.7000000e-01 -3.4500000e-01
 endloop
endfacet
facet normal 0.000000e+00 1.000000e+00 0.000000e+00
 outer loop
  vertex 1.2600000e+00 3.7000000e-01 4.4500000e-01
  vertex 1.2600000e+00 3.7000000e-01 -3.4500000e-01
  vertex 1.2400000e+00 3.7000000e-01 4.4500000e-01
 endloop
endfacet
facet normal 0.000000e+00 1.000000e+00 0.000000e+00
 outer loop
  vertex 1.2400000e+00 3.7000000e-01 4.4500000e-01
  vertex 1.2600000e+00 3.7000000e-01 -3.4500000e-01
  vertex 1.2400000e+00 3.7000000e-01 -3.4500000e-01
 endloop
endfacet
facet normal -1.000000e+00 -0.000000e+00 -0.000000e+00
 outer loop
  vertex 1.2400000e+00 3.7000000e-01 4.4500000e-01
  vertex 1.2400000e+00 3.7000000e-01 -3.4500000e-01
  vertex 1.2400000e+00 3.5000000e-01 4.4500000e-01
 endloop
endfacet
facet normal -1.000000e+00 0.000000e+00 0.000000e+00
 outer loop
  vertex 1.2400000e+00 3.5000000e-01 4.4500000e-01
  vertex 1.2400000e+00 3.7000000e-01 -3.4500000e-01
  vertex 1.2400000e+00 3.5000000e-01 -3.4500000e-01
 endloop
endfacet
facet normal 0.000000e+00 -1.000000e+00 0.000000e+00
 outer loop
  vertex 1.2400000e+00 3.5000000e-01 4.4500000e-01
  vertex 1.2400000e+00 3.5000000e-01 -3.4500000e-01
  vertex 1.2600000e+00 3.5000000e-01 4.4500000e-01
 endloop
endfacet
facet normal 0.000000e+00 -1.000000e+00 -0.000000e+00
 outer loop
  vertex 1.2600000e+00 3.5000000e-01 4.4500000e-01
  vertex 1.2400000e+00 3.5000000e-01 -3.4500000e-01
  vertex 1.2600000e+00 3.5000000e-01 -3.4500000e-01
 endloop
endfacet
facet normal 0.000000e+00 0.000000e+00 -1.000000e+00
 outer loop
  vertex 1.2400000e+00 3.5000000e-01 -3.4500000e-01
  vertex 1.2400000e+00 3.7000000e-01 -3.4500000e-01
  vertex 1.2600000e+00 3.5000000e-01 -3.4500000e-01
 endloop
endfacet
facet normal 0.000000e+00 0.000000e+00 -1.000000e+00
 outer loop
  vertex 1.2400000e+00 3.7000000e-01 -3.4500000e-01
  vertex 1.2600000e+00 3.7000000e-01 -3.4500000e-01
  vertex 1.2600000e+00 3.5000000e-01 -3.4500000e-01
 endloop
endfacet
facet normal 0.000000e+00 0.000000e+00 1.000000e+00
 outer loop
  vertex 1.2400000e+00 3.5000000e-01 4.4500000e-01
  vertex 1.2600000e+00 3.5000000e-01 4.4500000e-01
  vertex 1.2400000e+00 3.7000000e-01 4.4500000e-01
 endloop
endfacet
facet normal -0.000000e+00 0.000000e+00 1.000000e+00
 outer loop
  vertex 1.2400000e+00 3.7000000e-01 4.4500000e-01
  vertex 1.2600000e+00 3.5000000e-01 4.4500000e-01
  vertex 1.2600000e+00 3.7000000e-01 4.4500000e-01
 endloop
endfacet
facet normal 1.000000e+00 -0.000000e+00 0.000000e+00
 outer loop
  vertex -1.2400000e+00 -3.5000000e-01 -3.4500000e-01
  vertex -1.2400000e+00 -3.5000000e-01 -3.6500000e-01
  vertex -1.2400000e+00 3.5000000e-01 -3.4500000e-01
 endloop
endfacet
facet normal 1.000000e+00 0.000000e+00 0.000000e+00
 outer loop
  vertex -1.2400000e+00 3.5000000e-01 -3.4500000e-01
  vertex -1.2400000e+00 -3.5000000e-01 -3.6500000e-01
  vertex -1.2400000e+00 3.5000000e-01 -3.6500000e-01
 endloop
endfacet
facet normal 0.000000e+00 1.000000e+00 0.000000e+00
 outer loop
  vertex -1.2400000e+00 3.5000000e-01 -3.4500000e-01
  vertex -1.2400000e+00 3.5000000e-01 -3.6500000e-01
  vertex -1.2600000e+00 3.5000000e-01 -3.4500000e-01
 endloop
endfacet
facet normal 0.000000e+00 1.000000e+00 0.000000e+00
 outer loop
  vertex -1.2600000e+00 3.5000000e-01 -3.4500000e-01
  vertex -1.2400000e+00 3.5000000e-01 -3.6500000e-01
  vertex -1.2600000e+00 3.5000000e-01 -3.6500000e-01
 endloop
endfacet
facet normal -1.000000e+00 -0.000000e+00 -0.000000e+00
 outer loop
  vertex -1.2600000e+00 3.5000000e-01 -3.4500000e-01
  vertex -1.2600000e+00 3.5000000e-01 -3.6500000e-01
  vertex -1.2600000e+00 -3.5000000e-01 -3.4500000e-01
 endloop
endfacet
facet normal -1.000000e+00 0.000000e+00 0.000000e+00
 outer loop
  vertex -1.2600000e+00 -3.5000000e-01 -3.4500000e-01
  vertex -1.2600000e+00 3.5000000e-01 -3.6500000e-01
  vertex -1.2600000e+00 -3.5000000e-01 -3.6500000e-01
 endloop
endfacet
facet normal 0.000000e+00 -1.000000e+00 0.000000e+00
 outer loop
  vertex -1.2600000e+00 -3.5000000e-01 -3.4500000e-01
  vertex -1.2600000e+00 -3.5000000e-01 -3.6500000e-01
  vertex -1.2400000e+00 -3.5000000e-01 -3.4500000e-01
 endloop
endfacet
facet normal 0.000000e+00 -1.000000e+00 -0.000000e+00
 outer loop
  vertex -1.2400000e+00 -3.5000000e-01 -3.4500000e-01
  vertex -1.2600000e+00 -3.5000000e-01 -3.6500000e-01
  vertex -1.2400000e+00 -3.5000000e-01 -3.6500000e-01
 endloop
endfacet
facet normal 0.000000e+00 0.000000e+00 -1.000000e+00
 outer loop
  vertex -1.2600000e+00 -3.5000000e-01 -3.6500000e-01
  vertex -1.2600000e+00 3.5000000e-01 -3.6500000e-01
  vertex -1.2400000e+00 -3.5000000e-01 -3.6500000e-01
 endloop
endfacet
facet normal 0.000000e+00 0.000000e+00 -1.000000e+00
 outer loop
  vertex -1.2600000e+00 3.5000000e-01 -3.6500000e-01
  vertex -1.2400000e+00 3.5000000e-01 -3.6500000e-01
  vertex -1.2400000e+00 -3.5000000e-01 -3.6500000e-01
 endloop
endfacet
facet normal 0.000000e+00 0.000000e+00 1.000000e+00
 outer loop
  vertex -1.2600000e+00 -3.5000000e-01 -3.4500000e-01
  vertex -1.2400000e+00 -3.5000000e-01 -3.4500000e-01
  vertex -1.2600000e+00 3.5000000e-01 -3.4500000e-01
 endloop
endfacet
facet normal -0.000000e+00 0.000000e+00 1.000000e+00
 outer loop
  vertex -1.2600000e+00 3.5000000e-01 -3.4500000e-01
  vertex -1.2400000e+00 -3.5000000e-01 -3.4500000e-01
  vertex -1.2400000e+00 3.5000000e-01 -3.4500000e-01
 endloop
endfacet
facet normal 1.000000e+00 -0.000000e+00 0.000000e+00
 outer loop
  vertex -1.2400000e+00 -3.5000000e-01 4.6500000e-01
  vertex -1.2400000e+00 -3.5000000e-01 4.4500000e-01
  vertex -1.2400000e+00 3.5000000e-01 4.6500000e-01
 endloop
endfacet
facet normal 1.000000e+00 0.000000e+00 0.000000e+00
 outer loop
  vertex -1.2400000e+00 3.5000000e-01 4.6500000e-01
  vertex -1.2400000e+00 -3.5000000e-01 4.4500000e-01
  vertex -1.2400000e+00 3.5000000e-01 4.4500000e-01
 endloop
endfacet
facet normal 0.000000e+00 1.000000e+00 0.000000e+00
 outer loop
  vertex -1.2400000e+00 3.5000000e-01 4.6500000e-01
  vertex -1.2400000e+00 3.5000000e-01 4.4500000e-01
  vertex -1.2600000e+00 3.5000000e-01 4.6500000e-01
 endloop
endfacet
facet normal 0.000000e+00 1.000000e+00 0.000000e+00
 outer loop
  vertex -1.2600000e+00 3.5000000e-01 4.6500000e-01
  vertex -1.2400000e+00 3.5000000e-01 4.4500000e-01
  vertex -1.2600000e+00 3.5000000e-01 4.4500000e-01
 endloop
endfacet
facet normal -1.000000e+00 -0.000000e+00 -0.000000e+00
 outer loop
  vertex -1.2600000e+00 3.5000000e-01 4.6500000e-01
  vertex -1.2600000e+00 3.5000000e-01 4.4500000e-01
  vertex -1.2600000e+00 -3.5000000e-01 4.6500000e-01
 endloop
endfacet
facet normal -1.000000e+00 0.000000e+00 0.000000e+00
 outer loop
  vertex -1.2600000e+00 -3.5000000e-01 4.6500000e-01
  vertex -1.2600000e+00 3.5000000e-01 4.4500000e-01
  vertex -1.2600000e+00 -3.5000000e-01 4.4500000e-01
 endloop
endfacet
facet normal 0.000000e+00 -1.000000e+00 0.000000e+00
 outer loop
  vertex -1.2600000e+00 -3.5000000e-01 4.6500000e-01
  vertex -1.2600000e+00 -3.5000000e-01 4.4500000e-01
  vertex -1.2400000e+00 -3.5000000e-01 4.6500000e-01
 endloop
endfacet
facet normal 0.000000e+00 -1.000000e+00 -0.000000e+00
 outer loop
  vertex -1.2400000e+00 -3.5000000e-01 4.6500000e-01
  vertex -1.2600000e+00 -3.5000000e-01 4.4500000e-01
  vertex -1.2400000e+00 -3.5000000e-01 4.4500000e-01
 endloop
endfacet
facet normal 0.000000e+00 0.000000e+00 -1.000000e+00
 outer loop
  vertex -1.2600000e+00 -3.5000000e-01 4.4500000e-01
  vertex -1.2600000e+00 3.5000000e-01 4.4500000e-01
  vertex -1.2400000e+00 -3.5000000e-01 4.4500000e-01
 endloop
endfacet
facet normal 0.000000e+00 0.000000e+00 -1.000000e+00
 outer loop
  vertex -1.2600000e+00 3.5000000e-01 4.4500000e-01
  vertex -1.2400000e+00 3.5000000e-01 4.4500000e-01
  vertex -1.2400000e+00 -3.5000000e-01 4.4500000e-01
 endloop
endfacet
facet normal 0.000000e+00 0.000000e+00 1.000000e+00
 outer loop
  vertex -1.2600000e+00 -3.5000000e-01 4.6500000e-01
  vertex -1.2400000e+00 -3.5000000e-01 4.6500000e-01
  vertex -1.2600000e+00 3.5000000e-01 4.6500000e-01
 endloop
endfacet
facet normal -0.000000e+00 0.000000e+00 1.000000e+00
 outer loop
  vertex -1.2600000e+00 3.5000000e-01 4.6500000e-01
  vertex -1.2400000e+00 -3.5000000e-01 4.6500000e-01
  vertex -1.2400000e+00 3.5000000e-01 4.6500000e-01
 endloop
endfacet
facet normal 1.000000e+00 -0.000000e+00 0.000000e+00
 outer loop
  vertex 1.2600000e+00 -3.5000000e-01 -3.4500000e-01
  vertex 1.2600000e+00 -3.5000000e-01 -3.6500000e-01
  vertex 1.2600000e+00 3.5000000e-01 -3.4500000e-01
 endloop
endfacet
facet normal 1.000000e+00 0.000000e+00 0.000000e+00
 outer loop
  vertex 1.2600000e+00 3.5000000e-01 -3.4500000e-01
  vertex 1.2600000e+00 -3.5000000e-01 -3.6500000e-01
  vertex 1.2600000e+00 3.5000000e-01 -3.6500000e-01
 endloop
endfacet
facet normal 0.000000e+00 1.000000e+00 0.000000e+00
 outer loop
  vertex 1.2600000e+00 3.5000000e-01 -3.4500000e-01
  vertex 1.2600000e+00 3.5000000e-01 -3.6500000e-01
  vertex 1.2400000e+00 3.5000000e-01 -3.4500000e-01
 endloop
endfacet
facet normal 0.000000e+00 1.000000e+00 0.000000e+00
 outer loop
  vertex 1.2400000e+00 3.5000000e-01 -3.4500000e-01
  vertex 1.2600000e+00 3.5000000e-01 -3.6500000e-01
  vertex 1.2400000e+00 3.5000000e-01 -3.6500000e-01
 endloop
endfacet
facet normal -1.000000e+00 -0.000000e+00 -0.000000e+00
 outer loop
  vertex 1.2400000e+00 3.5000000e-01 -3.4500000e-01
  vertex 1.2400000e+00 3.5000000e-01 -3.6500000e-01
  vertex 1.2400000e+00 -3.5000000e-01 -3.4500000e-01
 endloop
endfacet
facet normal -1.000000e+00 0.000000e+00 0.000000e+00
 outer loop
  vertex 1.2400000e+00 -3.5000000e-01 -3.4500000e-01
  vertex 1.2400000e+00 3.5000000e-01 -3.6500000e-01
  vertex 1.2400000e+00 -3.5000000e-01 -3.6500000e-01
 endloop
endfacet
facet normal 0.000000e+00 -1.000000e+00 0.000000e+00
 outer loop
  vertex 1.2400000e+00 -3.5000000e-01 -3.4500000e-01
  vertex 1.2400000e+00 -3.5000000e-01 -3.6500000e-01
  vertex 1.2600000e+00 -3.5000000e-01 -3.4500000e-01
 endloop
endfacet
facet normal 0.000000e+00 -1.000000e+00 -0.000000e+00
 outer loop
  vertex 1.2600000e+00 -3.5000000e-01 -3.4500000e-01
  vertex 1.2400000e+00 -3.5000000e-01 -3.6500000e-01
  vertex 1.2600000e+00 -3.5000000e-01 -3.6500000e-01
 endloop
endfacet
facet normal 0.000000e+00 0.000000e+00 -1.000000e+00
 outer loop
  vertex 1.2400000e+00 -3.5000000e-01 -3.6500000e-01
  vertex 1.2400000e+00 3.5000000e-01 -3.6500000e-01
  vertex 1.2600000e+00 -3.5000000e-01 -3.6500000e-01
 endloop
endfacet
facet normal 0.000000e+00 0.000000e+00 -1.000000e+00
 outer loop
  vertex 1.2400000e+00 3.5000000e-01 -3.6500000e-01
  vertex 1.2600000e+00 3.5000000e-01 -3.6500000e-01
  vertex 1.2600000e+00 -3.5000000e-01 -3.6500000e-01
 endloop
endfacet
facet normal 0.000000e+00 0.000000e+00 1.000000e+00
 outer loop
  vertex 1.2400000e+00 -3.5000000e-01 -3.4500000e-01
  vertex 1.2600000e+00 -3.5000000e-01 -3.4500000e-01
  vertex 1.2400000e+00 3.5000000e-01 -3.4500000e-01
 endloop
endfacet
facet normal -0.000000e+00 0.000000e+00 1.000000e+00
 outer loop
  vertex 1.2400000e+00 3.5000000e-01 -3.4500000e-01
  vertex 1.2600000e+00 -3.5000000e-01 -3.4500000e-01
  vertex 1.2600000e+00 3.5000000e-01 -3.4500000e-01
 endloop
endfacet
facet normal 1.000000e+00 -0.000000e+00 0.000000e+00
 outer loop
  vertex 1.2600000e+00 -3.5000000e-01 4.6500000e-01
  vertex 1.2600000e+00 -3.5000000e-01 4.4500000e-01
  vertex 1.2600000e+00 3.5000000e-01 4.6500000e-01
 endloop
endfacet
facet normal 1.000000e+00 0.000000e+00 0.000000e+00
 outer loop
  vertex 1.2600000e+00 3.5000000e-01 4.6500000e-01
  vertex 1.2600000e+00 -3.5000000e-01 4.4500000e-01
  vertex 1.2600000e+00 3.5000000e-01 4.4500000e-01
 endloop
endfacet
facet normal 0.000000e+00 1.000000e+00 0.000000e+00
 outer loop
  vertex 1.2600000e+00 3.5000000e-01 4.6500000e-01
  vertex 1.2600000e+00 3.5000000e-01 4.4500000e-01
  vertex 1.2400000e+00 3.5000000e-01 4.6500000e-01
 endloop
endfacet
facet normal 0.000000e+00 1.000000e+00 0.000000e+00
 outer loop
  vertex 1.2400000e+00 3.5000000e-01 4.6500000e-01
  vertex 1.2600000e+00 3.5000000e-01 4.4500000e-01
  vertex 1.2400000e+00 3.5000000e-01 4.4500000e-01
 endloop
endfacet
facet normal -1.000000e+00 -0.000000e+00 -0.000000e+00
 outer loop
  vertex 1.2400000e+00 3.5000000e-01 4.6500000e-01
  vertex 1.2400000e+00 3.5000000e-01 4.4500000e-01
  vertex 1.2400000e+00 -3.5000000e-01 4.6500000e-01
 endloop
endfacet
facet normal -1.000000e+00 0.000000e+00 0.000000e+00
 outer loop
  vertex 1.2400000e+00 -3.5000000e-01 4.6500000e-01
  vertex 1.2400000e+00 3.5000000e-01 4.4500000e-01
  vertex 1.2400000e+00 -3.5000000e-01 4.4500000e-01
 endloop
endfacet
facet normal 0.000000e+00 -1.000000e+00 0.000000e+00
 outer loop
  vertex 1.2400000e+00 -3.5000000e-01 4.6500000e-01
  vertex 1.2400000e+00 -3.5000000e-01 4.4500000e-01
  vertex 1.2600000e+00 -3.5000000e-01 4.6500000e-01
 endloop
endfacet
facet normal 0.000000e+00 -1.000000e+00 -0.000000e+00
 outer loop
  vertex 1.2600000e+00 -3.5000000e-01 4.6500000e-01
  vertex 1.2400000e+00 -3.5000000e-01 4.4500000e-01
  vertex 1.2600000e+00 -3.5000000e-01 4.4500000e-01
 endloop
endfacet
facet normal 0.000000e+00 0.000000e+00 -1.000000e+00
 outer loop
  vertex 1.2400000e+00 -3.5000000e-01 4.4500000e-01
  vertex 1.2400000e+00 3.5000000e-01 4.4500000e-01
  vertex 1.2600000e+00 -3.5000000e-01 4.4500000e-01
 endloop
endfacet
facet normal 0.000000e+00 0.000000e+00 -1.000000e+00
 outer loop
  vertex 1.2400000e+00 3.5000000e-01 4.4500000e-01
  vertex 1.2600000e+00 3.5000000e-01 4.4500000e-01
  vertex 1.2600000e+00 -3.5000000e-01 4.4500000e-01
 endloop
endfacet
facet normal 0.000000e+00 0.000000e+00 1.000000e+00
 outer loop
  vertex 1.2400000e+00 -3.5000000e-01 4.6500000e-01
  vertex 1.2600000e+00 -3.5000000e-01 4.6500000e-01
  vertex 1.2400000e+00 3.5000000e-01 4.6500000e-01
 endloop
endfacet
facet normal -0.000000e+00 0.000000e+00 1.000000e+00
 outer loop
  vertex 1.2400000e+00 3.5000000e-01 4.6500000e-01
  vertex 1.2600000e+00 -3.5000000e-01 4.6500000e-01
  vertex 1.2600000e+00 3.5000000e-01 4.6500000e-01
 endloop
endfacet
facet normal 1.000000e+00 -0.000000e+00 0.000000e+00
 outer loop
  vertex 1.2600000e+00 -3.7000000e-01 -3.4500000e-01
  vertex 1.2600000e+00 -3.7000000e-01 -3.6500000e-01
  vertex 1.2600000e+00 -3.5000000e-01 -3.4500000e-01
 endloop
endfacet
facet normal 1.000000e+00 0.000000e+00 0.000000e+00
 outer loop
  vertex 1.2600000e+00 -3.5000000e-01 -3.4500000e-01
  vertex 1.2600000e+00 -3.7000000e-01 -3.6500000e-01
  vertex 1.2600000e+00 -3.5000000e-01 -3.6500000e-01
 endloop
endfacet
facet normal 0.000000e+00 1.000000e+00 0.000000e+00
 outer loop
  vertex 1.2600000e+00 -3.5000000e-01 -3.4500000e-01
  vertex 1.2600000e+00 -3.5000000e-01 -3.6500000e-01
  vertex -1.2600000e+00 -3.5000000e-01 -3.4500000e-01
 endloop
endfacet
facet normal 0.000000e+00 1.000000e+00 0.000000e+00
 outer loop
  vertex -1.2600000e+00 -3.5000000e-01 -3.4500000e-01
  vertex 1.2600000e+00 -3.5000000e-01 -3.6500000e-01
  vertex -1.2600000e+00 -3.5000000e-01 -3.6500000e-01
 endloop
endfacet
facet normal -1.000000e+00 -0.000000e+00 -0.000000e+00
 outer loop
  vertex -1.2600000e+00 -3.5000000e-01 -3.4500000e-01
  vertex -1.2600000e+00 -3.5000000e-01 -3.6500000e-01
  vertex -1.2600000e+00 -3.7000000e-01 -3.4500000e-01
 endloop
endfacet
facet normal -1.000000e+00 0.000000e+00 0.000000e+00
 outer loop
  vertex -1.2600000e+00 -3.7000000e-01 -3.4500000e-01
  vertex -1.2600000e+00 -3.5000000e-01 -3.6500000e-01
  vertex -1.2600000e+00 -3.7000000e-01 -3.6500000e-01
 endloop
endfacet
facet normal 0.000000e+00 -1.000000e+00 0.000000e+00
 outer loop
  vertex -1.2600000e+00 -3.7000000e-01 -3.4500000e-01
  vertex -1.2600000e+00 -3.7000000e-01 -3.6500000e-01
  vertex 1.2600000e+00 -3.7000000e-01 -3.4500000e-01
 endloop
endfacet
facet normal 0.000000e+00 -1.000000e+00 -0.000000e+00
 outer loop
  vertex 1.2600000e+00 -3.7000000e-01 -3.4500000e-01
  vertex -1.2600000e+00 -3.7000000e-01 -3.6500000e-01
  vertex 1.2600000e+00 -3.7000000e-01 -3.6500000e-01
 endloop
endfacet
facet normal 0.000000e+00 0.000000e+00 -1.000000e+00
 outer loop
  vertex -1.2600000e+00 -3.7000000e-01 -3.6500000e-01
  vertex -1.2600000e+00 -3.5000000e-01 -3.6500000e-01
  vertex 1.2600000e+00 -3.7000000e-01 -3.6500000e-01
 endloop
endfacet
facet normal 0.000000e+00 0.000000e+00 -1.000000e+00
 outer loop
  vertex -1.2600000e+00 -3.5000000e-01 -3.6500000e-01
  vertex 1.2600000e+00 -3.5000000e-01 -3.6500000e-01
  vertex 1.2600000e+00 -3.7000000e-01 -3.6500000e-01
 endloop
endfacet
facet normal 0.000000e+00 0.000000e+00 1.000000e+00
 outer loop
  vertex -1.2600000e+00 -3.7000000e-01 -3.4500000e-01
  vertex 1.2600000e+00 -3.7000000e-01 -3.4500000e-01
  vertex -1.2600000e+00 -3.5000000e-01 -3.4500000e-01
 endloop
endfacet
facet normal -0.000000e+00 0.000000e+00 1.000000e+00
 outer loop
  vertex -1.2600000e+00 -3.5000000e-01 -3.4500000e-01
  vertex 1.2600000e+00 -3.7000000e-01 -3.4500000e-01
  vertex 1.2600000e+00 -3.5000000e-01 -3.4500000e-01
 endloop
endfacet
facet normal 1.000000e+00 -0.000000e+00 0.000000e+00
 outer loop
  vertex 1.2600000e+00 -3.7000000e-01 4.6500000e-01
  vertex 1.2600000e+00 -3.7000000e-01 4.4500000e-01
  vertex 1.2600000e+00 -3.5000000e-01 4.6500000e-01
 endloop
endfacet
facet normal 1.000000e+00 0.000000e+00 0.000000e+00
 outer loop
  vertex 1.2600000e+00 -3.5000000e-01 4.6500000e-01
  vertex 1.2600000e+00 -3.7000000e-01 4.4500000e-01
  vertex 1.2600000e+00 -3.5000000e-01 4.4500000e-01
 endloop
endfacet
facet normal 0.000000e+00 1.000000e+00 0.000000e+00
 outer loop
  vertex 1.2600000e+00 -3.5000000e-01 4.6500000e-01
  vertex 1.2600000e+00 -3.5000000e-01 4.4500000e-01
  vertex -1.2600000e+00 -3.5000000e-01 4.6500000e-01
 endloop
endfacet
facet normal 0.000000e+00 1.000000e+00 0.000000e+00
 outer loop
  vertex -1.2600000e+00 -3.5000000e-01 4.6500000e-01
  vertex 1.2600000e+00 -3.5000000e-01 4.4500000e-01
  vertex -1.2600000e+00 -3.5000000e-01 4.4500000e-01
 endloop
endfacet
facet normal -1.000000e+00 -0.000000e+00 -0.000000e+00
 outer loop
  vertex -1.2600000e+00 -3.5000000e-01 4.6500000e-01
  vertex -1.2600000e+00 -3.5000000e-01 4.4500000e-01
  vertex -1.2600000e+00 -3.7000000e-01 4.6500000e-01
 endloop
endfacet
facet normal -1.000000e+00 0.000000e+00 0.000000e+00
 outer loop
  vertex -1.2600000e+00 -3.7000000e-01 4.6500000e-01
  vertex -1.2600000e+00 -3.5000000e-01 4.4500000e-01
  vertex -1.2600000e+00 -3.7000000e-01 4.4500000e-01
 endloop
endfacet
facet normal 0.000000e+00 -1.000000e+00 0.000000e+00
 outer loop
  vertex -1.2600000e+00 -3.7000000e-01 4.6500000e-01
  vertex -1.2600000e+00 -3.7000000e-01 4.4500000e-01
  vertex 1.2600000e+00 -3.7000000e-01 4.6500000e-01
 endloop
endfacet
facet normal 0.000000e+00 -1.000000e+00 -0.000000e+00
 outer loop
  vertex 1.2600000e+00 -3.7000000e-01 4.6500000e-01
  vertex -1.2600000e+00 -3.7000000e-01 4.4500000e-01
  vertex 1.2600000e+00 -3.7000000e-01 4.4500000e-01
 endloop
endfacet
facet normal 0.000000e+00 0.000000e+00 -1.000000e+00
 outer loop
  vertex -1.2600000e+00 -3.7000000e-01 4.4500000e-01
  vertex -1.2600000e+00 -3.5000000e-01 4.4500000e-01
  vertex 1.2600000e+00 -3.7000000e-01 4.4500000e-01
 endloop
endfacet
facet normal 0.000000e+00 0.000000e+00 -1.000000e+00
 outer loop
  vertex -1.2600000e+00 -3.5000000e-01 4.4500000e-01
  vertex 1.2600000e+00 -3.5000000e-01 4.4500000e-01
  vertex 1.2600000e+00 -3.7000000e-01 4.4500000e-01
 endloop
endfacet
facet normal 0.000000e+00 0.000000e+00 1.000000e+00
 outer loop
  vertex -1.2600000e+00 -3.7000000e-01 4.6500000e-01
  vertex 1.2600000e+00 -3.7000000e-01 4.6500000e-01
  vertex -1.2600000e+00 -3.5000000e-01 4.6500000e-01
 endloop
endfacet
facet normal -0.000000e+00 0.000000e+00 1.000000e+00
 outer loop
  vertex -1.2600000e+00 -3.5000000e-01 4.6500000e-01
  vertex 1.2600000e+00 -3.7000000e-01 4.6500000e-01
  vertex 1.2600000e+00 -3.5000000e-01 4.6500000e-01
 endloop
endfacet
facet normal 1.000000e+00 -0.000000e+00 0.000000e+00
 outer loop
  vertex 1.2600000e+00 3.5000000e-01 -3.4500000e-01
  vertex 1.2600000e+00 3.5000000e-01 -3.6500000e-01
  vertex 1.2600000e+00 3.7000000e-01 -3.4500000e-01
 endloop
endfacet
facet normal 1.000000e+00 0.000000e+00 0.000000e+00
 outer loop
  vertex 1.2600000e+00 3.7000000e-01 -3.4500000e-01
  vertex 1.2600000e+00 3.5000000e-01 -3.6500000e-01
  vertex 1.2600000e+00 3.7000000e-01 -3.6500000e-01
 endloop
endfacet
facet normal 0.000000e+00 1.000000e+00 0.000000e+00
 outer loop
  vertex 1.2600000e+00 3.7000000e-01 -3.4500000e-01
  vertex 1.2600000e+00 3.7000000e-01 -3.6500000e-01
  vertex -1.2600000e+00 3.7000000e-01 -3.4500000e-01
 endloop
endfacet
facet normal 0.000000e+00 1.000000e+00 0.000000e+00
 outer loop
  vertex -1.2600000e+00 3.7000000e-01 -3.4500000e-01
  vertex 1.2600000e+00 3.7000000e-01 -3.6500000e-01
  vertex -1.2600000e+00 3.7000000e-01 -3.6500000e-01
 endloop
endfacet
facet normal -1.000000e+00 -0.000000e+00 -0.000000e+00
 outer loop
  vertex -1.2600000e+00 3.7000000e-01 -3.4500000e-01
  vertex -1.2600000e+00 3.7000000e-01 -3.6500000e-01
  vertex -1.2600000e+00 3.5000000e-01 -3.4500000e-01
 endloop
endfacet
facet normal -1.000000e+00 0.000000e+00 0.000000e+00
 outer loop
  vertex -1.2600000e+00 3.5000000e-01 -3.4500000e-01
  vertex -1.2600000e+00 3.7000000e-01 -3.6500000e-01
  vertex -1.2600000e+00 3.5000000e-01 -3.6500000e-01
 endloop
endfacet
facet normal 0.000000e+00 -1.000000e+00 0.000000e+00
 outer loop
  vertex -1.2600000e+00 3.5000000e-01 -3.4500000e-01
  vertex -1.2600000e+00 3.5000000e-01 -3.6500000e-01
  vertex 1.2600000e+00 3.5000000e-01 -3.4500000e-01
 endloop
endfacet
facet normal 0.000000e+00 -1.000000e+00 -0.000000e+00
 outer loop
  vertex 1.2600000e+00 3.5000000e-01 -3.4500000e-01
  vertex -1.2600000e+00 3.5000000e-01 -3.6500000e-01
  vertex 1.2600000e+00 3.5000000e-01 -3.6500000e-01
 endloop
endfacet
facet normal 0.000000e+00 0.000000e+00 -1.000000e+00
 outer loop
  vertex -1.2600000e+00 3.5000000e-01 -3.6500000e-01
  vertex -1.2600000e+00 3.7000000e-01 -3.6500000e-01
  vertex 1.2600000e+00 3.5000000e-01 -3.6500000e-01
 endloop
endfacet
facet normal 0.000000e+00 0.000000e+00 -1.000000e+00
 outer loop
  vertex -1.2600000e+00 3.7000000e-01 -3.6500000e-01
  vertex 1.2600000e+00 3.7000000e-01 -3.6500000e-01
  vertex 1.2600000e+00 3.5000000e-01 -3.6500000e-01
 endloop
endfacet
facet normal 0.000000e+00 0.000000e+00 1.000000e+00
 outer loop
  vertex -1.2600000e+00 3.5000000e-01 -3.4500000e-01
  vertex 1.2600000e+00 3.5000000e-01 -3.4500000e-01
  vertex -1.2600000e+00 3.7000000e-01 -3.4500000e-01
 endloop
endfacet
facet normal -0.000000e+00 0.000000e+00 1.000000e+00
 outer loop
  vertex -1.2600000e+00 3.7000000e-01 -3.4500000e-01
  vertex 1.2600000e+00 3.5000000e-01 -3.4500000e-01
  vertex 1.2600000e+00 3.7000000e-01 -3.4500000e-01
 endloop
endfacet
facet normal 1.000000e+00 -0.000000e+00 0.000000e+00
 outer loop
  vertex 1.2600000e+00 3.5000000e-01 4.6500000e-01
  vertex 1.2600000e+00 3.5000000e-01 4.4500000e-01
  vertex 1.2600000e+00 3.7000000e-01 4.6500000e-01
 endloop
endfacet
facet normal 1.000000e+00 0.000000e+00 0.000000e+00
 outer loop
  vertex 1.2600000e+00 3.7000000e-01 4.6500000e-01
  vertex 1.2600000e+00 3.5000000e-01 4.4500000e-01
  vertex 1.2600000e+00 3.7000000e-01 4.4500000e-01
 endloop
endfacet
facet normal 0.000000e+00 1.000000e+00 0.000000e+00
 outer loop
  vertex 1.2600000e+00 3.7000000e-01 4.6500000e-01
  vertex 1.2600000e+00 3.7000000e-01 4.4500000e-01
  vertex -1.2600000e+00 3.7000000e-01 4.6500000e-01
 endloop
endfacet
facet normal 0.000000e+00 1.000000e+00 0.000000e+00
 outer loop
  vertex -1.2600000e+00 3.7000000e-01 4.6500000e-01
  vertex 1.2600000e+00 3.7000000e-01 4.4500000e-01
  vertex -1.2600000e+00 3.7000000e-01 4.4500000e-01
 endloop
endfacet
facet normal -1.000000e+00 -0.000000e+00 -0.000000e+00
 outer loop
  vertex -1.2600000e+00 3.7000000e-01 4.6500000e-01
  vertex -1.2600000e+00 3.7000000e-01 4.4500000e-01
  vertex -1.2600000e+00 3.5000000e-01 4.6500000e-01
 endloop
endfacet
facet normal -1.000000e+00 0.000000e+00 0.000000e+00
 outer loop
  vertex -1.2600000e+00 3.5000000e-01 4.6500000e-01
  vertex -1.2600000e+00 3.7000000e-01 4.4500000e-01
  vertex -1.2600000e+00 3.5000000e-01 4.4500000e-01
 endloop
endfacet
facet normal 0.000000e+00 -1.000000e+00 0.000000e+00
 outer loop
  vertex -1.2600000e+00 3.5000000e-01 4.6500000e-01
  vertex -1.2600000e+00 3.5000000e-01 4.4500000e-01
  vertex 1.2600000e+00 3.5000000e-01 4.6500000e-01
 endloop
endfacet
facet normal 0.000000e+00 -1.000000e+00 -0.000000e+00
 outer loop
  vertex 1.2600000e+00 3.5000000e-01 4.6500000e-01
  vertex -1.2600000e+00 3.5000000e-01 4.4500000e-01
  vertex 1.2600000e+00 3.5000000e-01 4.4500000e-01
 endloop
endfacet
facet normal 0.000000e+00 0.000000e+00 -1.000000e+00
 outer loop
  vertex -1.2600000e+00 3.5000000e-01 4.4500000e-01
  vertex -1.2600000e+00 3.7000000e-01 4.4500000e-01
  vertex 1.2600000e+00 3.5000000e-01 4.4500000e-01
 endloop
endfacet
facet normal 0.000000e+00 0.000000e+00 -1.000000e+00
 outer loop
  vertex -1.2600000e+00 3.7000000e-01 4.4500000e-01
  vertex 1.2600000e+00 3.7000000e-01 4.4500000e-01
  vertex 1.2600000e+00 3.5000000e-01 4.4500000e-01
 endloop
endfacet
facet normal 0.000000e+00 0.000000e+00 1.000000e+00
 outer loop
  vertex -1.2600000e+00 3.5000000e-01 4.6500000e-01
  vertex 1.2600000e+00 3.5000000e-01 4.6500000e-01
  vertex -1.2600000e+00 3.7000000e-01 4.6500000e-01
 endloop
endfacet
facet normal -0.000000e+00 0.000000e+00 1.000000e+00
 outer loop
  vertex -1.2600000e+00 3.7000000e-01 4.6500000e-01
  vertex 1.2600000e+00 3.5000000e-01 4.6500000e-01
  vertex 1.2600000e+00 3.7000000e-01 4.6500000e-01
 endloop
endfacet
endsolid rig_enclosure
