solid vehicles_details
facet normal -1.000000e+00 -0.000000e+00 -0.000000e+00
 outer loop
  vertex 4.4800000e-01 1.3000000e-01 5.1000000e-02
  vertex 4.4800000e-01 1.3000000e-01 4.9000000e-02
  vertex 4.4800000e-01 1.0600000e-01 5.1000000e-02
 endloop
endfacet
facet normal -1.000000e+00 0.000000e+00 0.000000e+00
 outer loop
  vertex 4.4800000e-01 1.0600000e-01 5.1000000e-02
  vertex 4.4800000e-01 1.3000000e-01 4.9000000e-02
  vertex 4.4800000e-01 1.0600000e-01 4.9000000e-02
 endloop
endfacet
facet normal 0.000000e+00 -1.000000e+00 0.000000e+00
 outer loop
  vertex 4.4800000e-01 1.0600000e-01 5.1000000e-02
  vertex 4.4800000e-01 1.0600000e-01 4.9000000e-02
  vertex 4.5800000e-01 1.0600000e-01 5.1000000e-02
 endloop
endfacet
facet normal 0.000000e+00 -1.000000e+00 -0.000000e+00
 outer loop
  vertex 4.5800000e-01 1.0600000e-01 5.1000000e-02
  vertex 4.4800000e-01 1.0600000e-01 4.9000000e-02
  vertex 4.5800000e-01 1.0600000e-01 4.9000000e-02
 endloop
endfacet
facet normal 1.000000e+00 -0.000000e+00 0.000000e+00
 outer loop
  vertex 4.5800000e-01 1.0600000e-01 5.1000000e-02
  vertex 4.5800000e-01 1.0600000e-01 4.9000000e-02
  vertex 4.5800000e-01 1.3000000e-01 5.1000000e-02
 endloop
endfacet
facet normal 1.000000e+00 0.000000e+00 0.000000e+00
 outer loop
  vertex 4.5800000e-01 1.3000000e-01 5.1000000e-02
  vertex 4.5800000e-01 1.0600000e-01 4.9000000e-02
  vertex 4.5800000e-01 1.3000000e-01 4.9000000e-02
 endloop
endfacet
facet normal 0.000000e+00 1.000000e+00 0.000000e+00
 outer loop
  vertex 4.5800000e-01 1.3000000e-01 5.1000000e-02
  vertex 4.5800000e-01 1.3000000e-01 4.9000000e-02
  vertex 4.4800000e-01 1.3000000e-01 5.1000000e-02
 endloop
endfacet
facet normal 0.000000e+00 1.000000e+00 0.000000e+00
 outer loop
  vertex 4.4800000e-01 1.3000000e-01 5.1000000e-02
  vertex 4.5800000e-01 1.3000000e-01 4.9000000e-02
  vertex 4.4800000e-01 1.3000000e-01 4.9000000e-02
 endloop
endfacet
facet normal -0.000000e+00 -0.000000e+00 -1.000000e+00
 outer loop
  vertex 4.5800000e-01 1.3000000e-01 4.9000000e-02
  vertex 4.5800000e-01 1.0600000e-01 4.9000000e-02
  vertex 4.4800000e-01 1.3000000e-01 4.9000000e-02
 endloop
endfacet
facet normal 0.000000e+00 0.000000e+00 -1.000000e+00
 outer loop
  vertex 4.5800000e-01 1.0600000e-01 4.9000000e-02
  vertex 4.4800000e-01 1.0600000e-01 4.9000000e-02
  vertex 4.4800000e-01 1.3000000e-01 4.9000000e-02
 endloop
endfacet
facet normal 0.000000e+00 0.000000e+00 1.000000e+00
 outer loop
  vertex 4.5800000e-01 1.3000000e-01 5.1000000e-02
  vertex 4.4800000e-01 1.3000000e-01 5.1000000e-02
  vertex 4.5800000e-01 1.0600000e-01 5.1000000e-02
 endloop
endfacet
facet normal 0.000000e+00 0.000000e+00 1.000000e+00
 outer loop
  vertex 4.5800000e-01 1.0600000e-01 5.1000000e-02
  vertex 4.4800000e-01 1.3000000e-01 5.1000000e-02
  vertex 4.4800000e-01 1.0600000e-01 5.1000000e-02
 endloop
endfacet
facet normal -1.000000e+00 -0.000000e+00 -0.000000e+00
 outer loop
  vertex 4.4800000e-01 2.2400000e-01 5.1000000e-02
  vertex 4.4800000e-01 2.2400000e-01 4.9000000e-02
  vertex 4.4800000e-01 2.0000000e-01 5.1000000e-02
 endloop
endfacet
facet normal -1.000000e+00 0.000000e+00 0.000000e+00
 outer loop
  vertex 4.4800000e-01 2.0000000e-01 5.1000000e-02
  vertex 4.4800000e-01 2.2400000e-01 4.9000000e-02
  vertex 4.4800000e-01 2.0000000e-01 4.9000000e-02
 endloop
endfacet
facet normal 0.000000e+00 -1.000000e+00 0.000000e+00
 outer loop
  vertex 4.4800000e-01 2.0000000e-01 5.1000000e-02
  vertex 4.4800000e-01 2.0000000e-01 4.9000000e-02
  vertex 4.5800000e-01 2.0000000e-01 5.1000000e-02
 endloop
endfacet
facet normal 0.000000e+00 -1.000000e+00 -0.000000e+00
 outer loop
  vertex 4.5800000e-01 2.0000000e-01 5.1000000e-02
  vertex 4.4800000e-01 2.0000000e-01 4.9000000e-02
  vertex 4.5800000e-01 2.0000000e-01 4.9000000e-02
 endloop
endfacet
facet normal 1.000000e+00 -0.000000e+00 0.000000e+00
 outer loop
  vertex 4.5800000e-01 2.0000000e-01 5.1000000e-02
  vertex 4.5800000e-01 2.0000000e-01 4.9000000e-02
  vertex 4.5800000e-01 2.2400000e-01 5.1000000e-02
 endloop
endfacet
facet normal 1.000000e+00 0.000000e+00 0.000000e+00
 outer loop
  vertex 4.5800000e-01 2.2400000e-01 5.1000000e-02
  vertex 4.5800000e-01 2.0000000e-01 4.9000000e-02
  vertex 4.5800000e-01 2.2400000e-01 4.9000000e-02
 endloop
endfacet
facet normal 0.000000e+00 1.000000e+00 0.000000e+00
 outer loop
  vertex 4.5800000e-01 2.2400000e-01 5.1000000e-02
  vertex 4.5800000e-01 2.2400000e-01 4.9000000e-02
  vertex 4.4800000e-01 2.2400000e-01 5.1000000e-02
 endloop
endfacet
facet normal 0.000000e+00 1.000000e+00 0.000000e+00
 outer loop
  vertex 4.4800000e-01 2.2400000e-01 5.1000000e-02
  vertex 4.5800000e-01 2.2400000e-01 4.9000000e-02
  vertex 4.4800000e-01 2.2400000e-01 4.9000000e-02
 endloop
endfacet
facet normal -0.000000e+00 -0.000000e+00 -1.000000e+00
 outer loop
  vertex 4.5800000e-01 2.2400000e-01 4.9000000e-02
  vertex 4.5800000e-01 2.0000000e-01 4.9000000e-02
  vertex 4.4800000e-01 2.2400000e-01 4.9000000e-02
 endloop
endfacet
facet normal 0.000000e+00 0.000000e+00 -1.000000e+00
 outer loop
  vertex 4.5800000e-01 2.0000000e-01 4.9000000e-02
  vertex 4.4800000e-01 2.0000000e-01 4.9000000e-02
  vertex 4.4800000e-01 2.2400000e-01 4.9000000e-02
 endloop
endfacet
facet normal 0.000000e+00 0.000000e+00 1.000000e+00
 outer loop
  vertex 4.5800000e-01 2.2400000e-01 5.1000000e-02
  vertex 4.4800000e-01 2.2400000e-01 5.1000000e-02
  vertex 4.5800000e-01 2.0000000e-01 5.1000000e-02
 endloop
endfacet
facet normal 0.000000e+00 0.000000e+00 1.000000e+00
 outer loop
  vertex 4.5800000e-01 2.0000000e-01 5.1000000e-02
  vertex 4.4800000e-01 2.2400000e-01 5.1000000e-02
  vertex 4.4800000e-01 2.0000000e-01 5.1000000e-02
 endloop
endfacet
facet normal -1.000000e+00 -0.000000e+00 -0.000000e+00
 outer loop
  vertex 1.4200000e-01 1.3100000e-01 5.1000000e-02
  vertex 1.4200000e-01 1.3100000e-01 4.9000000e-02
  vertex 1.4200000e-01 1.0500000e-01 5.1000000e-02
 endloop
endfacet
facet normal -1.000000e+00 0.000000e+00 0.000000e+00
 outer loop
  vertex 1.4200000e-01 1.0500000e-01 5.1000000e-02
  vertex 1.4200000e-01 1.3100000e-01 4.9000000e-02
  vertex 1.4200000e-01 1.0500000e-01 4.9000000e-02
 endloop
endfacet
facet normal 0.000000e+00 -1.000000e+00 0.000000e+00
 outer loop
  vertex 1.4200000e-01 1.0500000e-01 5.1000000e-02
  vertex 1.4200000e-01 1.0500000e-01 4.9000000e-02
  vertex 1.5600000e-01 1.0500000e-01 5.1000000e-02
 endloop
endfacet
facet normal 0.000000e+00 -1.000000e+00 -0.000000e+00
 outer loop
  vertex 1.5600000e-01 1.0500000e-01 5.1000000e-02
  vertex 1.4200000e-01 1.0500000e-01 4.9000000e-02
  vertex 1.5600000e-01 1.0500000e-01 4.9000000e-02
 endloop
endfacet
facet normal 1.000000e+00 -0.000000e+00 0.000000e+00
 outer loop
  vertex 1.5600000e-01 1.0500000e-01 5.1000000e-02
  vertex 1.5600000e-01 1.0500000e-01 4.9000000e-02
  vertex 1.5600000e-01 1.3100000e-01 5.1000000e-02
 endloop
endfacet
facet normal 1.000000e+00 0.000000e+00 0.000000e+00
 outer loop
  vertex 1.5600000e-01 1.3100000e-01 5.1000000e-02
  vertex 1.5600000e-01 1.0500000e-01 4.9000000e-02
  vertex 1.5600000e-01 1.3100000e-01 4.9000000e-02
 endloop
endfacet
facet normal 0.000000e+00 1.000000e+00 0.000000e+00
 outer loop
  vertex 1.5600000e-01 1.3100000e-01 5.1000000e-02
  vertex 1.5600000e-01 1.3100000e-01 4.9000000e-02
  vertex 1.4200000e-01 1.3100000e-01 5.1000000e-02
 endloop
endfacet
facet normal 0.000000e+00 1.000000e+00 0.000000e+00
 outer loop
  vertex 1.4200000e-01 1.3100000e-01 5.1000000e-02
  vertex 1.5600000e-01 1.3100000e-01 4.9000000e-02
  vertex 1.4200000e-01 1.3100000e-01 4.9000000e-02
 endloop
endfacet
facet normal -0.000000e+00 -0.000000e+00 -1.000000e+00
 outer loop
  vertex 1.5600000e-01 1.3100000e-01 4.9000000e-02
  vertex 1.5600000e-01 1.0500000e-01 4.9000000e-02
  vertex 1.4200000e-01 1.3100000e-01 4.9000000e-02
 endloop
endfacet
facet normal 0.000000e+00 0.000000e+00 -1.000000e+00
 outer loop
  vertex 1.5600000e-01 1.0500000e-01 4.9000000e-02
  vertex 1.4200000e-01 1.0500000e-01 4.9000000e-02
  vertex 1.4200000e-01 1.3100000e-01 4.9000000e-02
 endloop
endfacet
facet normal 0.000000e+00 0.000000e+00 1.000000e+00
 outer loop
  vertex 1.5600000e-01 1.3100000e-01 5.1000000e-02
  vertex 1.4200000e-01 1.3100000e-01 5.1000000e-02
  vertex 1.5600000e-01 1.0500000e-01 5.1000000e-02
 endloop
endfacet
facet normal 0.000000e+00 0.000000e+00 1.000000e+00
 outer loop
  vertex 1.5600000e-01 1.0500000e-01 5.1000000e-02
  vertex 1.4200000e-01 1.3100000e-01 5.1000000e-02
  vertex 1.4200000e-01 1.0500000e-01 5.1000000e-02
 endloop
endfacet
facet normal -1.000000e+00 -0.000000e+00 -0.000000e+00
 outer loop
  vertex 1.4200000e-01 2.2500000e-01 5.1000000e-02
  vertex 1.4200000e-01 2.2500000e-01 4.9000000e-02
  vertex 1.4200000e-01 1.9900000e-01 5.1000000e-02
 endloop
endfacet
facet normal -1.000000e+00 0.000000e+00 0.000000e+00
 outer loop
  vertex 1.4200000e-01 1.9900000e-01 5.1000000e-02
  vertex 1.4200000e-01 2.2500000e-01 4.9000000e-02
  vertex 1.4200000e-01 1.9900000e-01 4.9000000e-02
 endloop
endfacet
facet normal 0.000000e+00 -1.000000e+00 0.000000e+00
 outer loop
  vertex 1.4200000e-01 1.9900000e-01 5.1000000e-02
  vertex 1.4200000e-01 1.9900000e-01 4.9000000e-02
  vertex 1.5600000e-01 1.9900000e-01 5.1000000e-02
 endloop
endfacet
facet normal 0.000000e+00 -1.000000e+00 -0.000000e+00
 outer loop
  vertex 1.5600000e-01 1.9900000e-01 5.1000000e-02
  vertex 1.4200000e-01 1.9900000e-01 4.9000000e-02
  vertex 1.5600000e-01 1.9900000e-01 4.9000000e-02
 endloop
endfacet
facet normal 1.000000e+00 -0.000000e+00 0.000000e+00
 outer loop
  vertex 1.5600000e-01 1.9900000e-01 5.1000000e-02
  vertex 1.5600000e-01 1.9900000e-01 4.9000000e-02
  vertex 1.5600000e-01 2.2500000e-01 5.1000000e-02
 endloop
endfacet
facet normal 1.000000e+00 0.000000e+00 0.000000e+00
 outer loop
  vertex 1.5600000e-01 2.2500000e-01 5.1000000e-02
  vertex 1.5600000e-01 1.9900000e-01 4.9000000e-02
  vertex 1.5600000e-01 2.2500000e-01 4.9000000e-02
 endloop
endfacet
facet normal 0.000000e+00 1.000000e+00 0.000000e+00
 outer loop
  vertex 1.5600000e-01 2.2500000e-01 5.1000000e-02
  vertex 1.5600000e-01 2.2500000e-01 4.9000000e-02
  vertex 1.4200000e-01 2.2500000e-01 5.1000000e-02
 endloop
endfacet
facet normal 0.000000e+00 1.000000e+00 0.000000e+00
 outer loop
  vertex 1.4200000e-01 2.2500000e-01 5.1000000e-02
  vertex 1.5600000e-01 2.2500000e-01 4.9000000e-02
  vertex 1.4200000e-01 2.2500000e-01 4.9000000e-02
 endloop
endfacet
facet normal -0.000000e+00 -0.000000e+00 -1.000000e+00
 outer loop
  vertex 1.5600000e-01 2.2500000e-01 4.9000000e-02
  vertex 1.5600000e-01 1.9900000e-01 4.9000000e-02
  vertex 1.4200000e-01 2.2500000e-01 4.9000000e-02
 endloop
endfacet
facet normal 0.000000e+00 0.000000e+00 -1.000000e+00
 outer loop
  vertex 1.5600000e-01 1.9900000e-01 4.9000000e-02
  vertex 1.4200000e-01 1.9900000e-01 4.9000000e-02
  vertex 1.4200000e-01 2.2500000e-01 4.9000000e-02
 endloop
endfacet
facet normal 0.000000e+00 0.000000e+00 1.000000e+00
 outer loop
  vertex 1.5600000e-01 2.2500000e-01 5.1000000e-02
  vertex 1.4200000e-01 2.2500000e-01 5.1000000e-02
  vertex 1.5600000e-01 1.9900000e-01 5.1000000e-02
 endloop
endfacet
facet normal 0.000000e+00 0.000000e+00 1.000000e+00
 outer loop
  vertex 1.5600000e-01 1.9900000e-01 5.1000000e-02
  vertex 1.4200000e-01 2.2500000e-01 5.1000000e-02
  vertex 1.4200000e-01 1.9900000e-01 5.1000000e-02
 endloop
endfacet
facet normal 1.000000e+00 -0.000000e+00 0.000000e+00
 outer loop
  vertex -4.4800000e-01 -2.2400000e-01 5.1000000e-02
  vertex -4.4800000e-01 -2.2400000e-01 4.9000000e-02
  vertex -4.4800000e-01 -2.0000000e-01 5.1000000e-02
 endloop
endfacet
facet normal 1.000000e+00 0.000000e+00 0.000000e+00
 outer loop
  vertex -4.4800000e-01 -2.0000000e-01 5.1000000e-02
  vertex -4.4800000e-01 -2.2400000e-01 4.9000000e-02
  vertex -4.4800000e-01 -2.0000000e-01 4.9000000e-02
 endloop
endfacet
facet normal 0.000000e+00 1.000000e+00 0.000000e+00
 outer loop
  vertex -4.4800000e-01 -2.0000000e-01 5.1000000e-02
  vertex -4.4800000e-01 -2.0000000e-01 4.9000000e-02
  vertex -4.5800000e-01 -2.0000000e-01 5.1000000e-02
 endloop
endfacet
facet normal 0.000000e+00 1.000000e+00 0.000000e+00
 outer loop
  vertex -4.5800000e-01 -2.0000000e-01 5.1000000e-02
  vertex -4.4800000e-01 -2.0000000e-01 4.9000000e-02
  vertex -4.5800000e-01 -2.0000000e-01 4.9000000e-02
 endloop
endfacet
facet normal -1.000000e+00 -0.000000e+00 -0.000000e+00
 outer loop
  vertex -4.5800000e-01 -2.0000000e-01 5.1000000e-02
  vertex -4.5800000e-01 -2.0000000e-01 4.9000000e-02
  vertex -4.5800000e-01 -2.2400000e-01 5.1000000e-02
 endloop
endfacet
facet normal -1.000000e+00 0.000000e+00 0.000000e+00
 outer loop
  vertex -4.5800000e-01 -2.2400000e-01 5.1000000e-02
  vertex -4.5800000e-01 -2.0000000e-01 4.9000000e-02
  vertex -4.5800000e-01 -2.2400000e-01 4.9000000e-02
 endloop
endfacet
facet normal 0.000000e+00 -1.000000e+00 0.000000e+00
 outer loop
  vertex -4.5800000e-01 -2.2400000e-01 5.1000000e-02
  vertex -4.5800000e-01 -2.2400000e-01 4.9000000e-02
  vertex -4.4800000e-01 -2.2400000e-01 5.1000000e-02
 endloop
endfacet
facet normal 0.000000e+00 -1.000000e+00 -0.000000e+00
 outer loop
  vertex -4.4800000e-01 -2.2400000e-01 5.1000000e-02
  vertex -4.5800000e-01 -2.2400000e-01 4.9000000e-02
  vertex -4.4800000e-01 -2.2400000e-01 4.9000000e-02
 endloop
endfacet
facet normal 0.000000e+00 0.000000e+00 -1.000000e+00
 outer loop
  vertex -4.5800000e-01 -2.2400000e-01 4.9000000e-02
  vertex -4.5800000e-01 -2.0000000e-01 4.9000000e-02
  vertex -4.4800000e-01 -2.2400000e-01 4.9000000e-02
 endloop
endfacet
facet normal 0.000000e+00 0.000000e+00 -1.000000e+00
 outer loop
  vertex -4.5800000e-01 -2.0000000e-01 4.9000000e-02
  vertex -4.4800000e-01 -2.0000000e-01 4.9000000e-02
  vertex -4.4800000e-01 -2.2400000e-01 4.9000000e-02
 endloop
endfacet
facet normal 0.000000e+00 0.000000e+00 1.000000e+00
 outer loop
  vertex -4.5800000e-01 -2.2400000e-01 5.1000000e-02
  vertex -4.4800000e-01 -2.2400000e-01 5.1000000e-02
  vertex -4.5800000e-01 -2.0000000e-01 5.1000000e-02
 endloop
endfacet
facet normal -0.000000e+00 0.000000e+00 1.000000e+00
 outer loop
  vertex -4.5800000e-01 -2.0000000e-01 5.1000000e-02
  vertex -4.4800000e-01 -2.2400000e-01 5.1000000e-02
  vertex -4.4800000e-01 -2.0000000e-01 5.1000000e-02
 endloop
endfacet
facet normal 1.000000e+00 -0.000000e+00 0.000000e+00
 outer loop
  vertex -4.4800000e-01 -1.3000000e-01 5.1000000e-02
  vertex -4.4800000e-01 -1.3000000e-01 4.9000000e-02
  vertex -4.4800000e-01 -1.0600000e-01 5.1000000e-02
 endloop
endfacet
facet normal 1.000000e+00 0.000000e+00 0.000000e+00
 outer loop
  vertex -4.4800000e-01 -1.0600000e-01 5.1000000e-02
  vertex -4.4800000e-01 -1.3000000e-01 4.9000000e-02
  vertex -4.4800000e-01 -1.0600000e-01 4.9000000e-02
 endloop
endfacet
facet normal 0.000000e+00 1.000000e+00 0.000000e+00
 outer loop
  vertex -4.4800000e-01 -1.0600000e-01 5.1000000e-02
  vertex -4.4800000e-01 -1.0600000e-01 4.9000000e-02
  vertex -4.5800000e-01 -1.0600000e-01 5.1000000e-02
 endloop
endfacet
facet normal 0.000000e+00 1.000000e+00 0.000000e+00
 outer loop
  vertex -4.5800000e-01 -1.0600000e-01 5.1000000e-02
  vertex -4.4800000e-01 -1.0600000e-01 4.9000000e-02
  vertex -4.5800000e-01 -1.0600000e-01 4.9000000e-02
 endloop
endfacet
facet normal -1.000000e+00 -0.000000e+00 -0.000000e+00
 outer loop
  vertex -4.5800000e-01 -1.0600000e-01 5.1000000e-02
  vertex -4.5800000e-01 -1.0600000e-01 4.9000000e-02
  vertex -4.5800000e-01 -1.3000000e-01 5.1000000e-02
 endloop
endfacet
facet normal -1.000000e+00 0.000000e+00 0.000000e+00
 outer loop
  vertex -4.5800000e-01 -1.3000000e-01 5.1000000e-02
  vertex -4.5800000e-01 -1.0600000e-01 4.9000000e-02
  vertex -4.5800000e-01 -1.3000000e-01 4.9000000e-02
 endloop
endfacet
facet normal 0.000000e+00 -1.000000e+00 0.000000e+00
 outer loop
  vertex -4.5800000e-01 -1.3000000e-01 5.1000000e-02
  vertex -4.5800000e-01 -1.3000000e-01 4.9000000e-02
  vertex -4.4800000e-01 -1.3000000e-01 5.1000000e-02
 endloop
endfacet
facet normal 0.000000e+00 -1.000000e+00 -0.000000e+00
 outer loop
  vertex -4.4800000e-01 -1.3000000e-01 5.1000000e-02
  vertex -4.5800000e-01 -1.3000000e-01 4.9000000e-02
  vertex -4.4800000e-01 -1.3000000e-01 4.9000000e-02
 endloop
endfacet
facet normal 0.000000e+00 0.000000e+00 -1.000000e+00
 outer loop
  vertex -4.5800000e-01 -1.3000000e-01 4.9000000e-02
  vertex -4.5800000e-01 -1.0600000e-01 4.9000000e-02
  vertex -4.4800000e-01 -1.3000000e-01 4.9000000e-02
 endloop
endfacet
facet normal 0.000000e+00 0.000000e+00 -1.000000e+00
 outer loop
  vertex -4.5800000e-01 -1.0600000e-01 4.9000000e-02
  vertex -4.4800000e-01 -1.0600000e-01 4.9000000e-02
  vertex -4.4800000e-01 -1.3000000e-01 4.9000000e-02
 endloop
endfacet
facet normal 0.000000e+00 0.000000e+00 1.000000e+00
 outer loop
  vertex -4.5800000e-01 -1.3000000e-01 5.1000000e-02
  vertex -4.4800000e-01 -1.3000000e-01 5.1000000e-02
  vertex -4.5800000e-01 -1.0600000e-01 5.1000000e-02
 endloop
endfacet
facet normal -0.000000e+00 0.000000e+00 1.000000e+00
 outer loop
  vertex -4.5800000e-01 -1.0600000e-01 5.1000000e-02
  vertex -4.4800000e-01 -1.3000000e-01 5.1000000e-02
  vertex -4.4800000e-01 -1.0600000e-01 5.1000000e-02
 endloop
endfacet
facet normal 1.000000e+00 -0.000000e+00 0.000000e+00
 outer loop
  vertex -1.4200000e-01 -2.2500000e-01 5.1000000e-02
  vertex -1.4200000e-01 -2.2500000e-01 4.9000000e-02
  vertex -1.4200000e-01 -1.9900000e-01 5.1000000e-02
 endloop
endfacet
facet normal 1.000000e+00 0.000000e+00 0.000000e+00
 outer loop
  vertex -1.4200000e-01 -1.9900000e-01 5.1000000e-02
  vertex -1.4200000e-01 -2.2500000e-01 4.9000000e-02
  vertex -1.4200000e-01 -1.9900000e-01 4.9000000e-02
 endloop
endfacet
facet normal 0.000000e+00 1.000000e+00 0.000000e+00
 outer loop
  vertex -1.4200000e-01 -1.9900000e-01 5.1000000e-02
  vertex -1.4200000e-01 -1.9900000e-01 4.9000000e-02
  vertex -1.5600000e-01 -1.9900000e-01 5.1000000e-02
 endloop
endfacet
facet normal 0.000000e+00 1.000000e+00 0.000000e+00
 outer loop
  vertex -1.5600000e-01 -1.9900000e-01 5.1000000e-02
  vertex -1.4200000e-01 -1.9900000e-01 4.9000000e-02
  vertex -1.5600000e-01 -1.9900000e-01 4.9000000e-02
 endloop
endfacet
facet normal -1.000000e+00 -0.000000e+00 -0.000000e+00
 outer loop
  vertex -1.5600000e-01 -1.9900000e-01 5.1000000e-02
  vertex -1.5600000e-01 -1.9900000e-01 4.9000000e-02
  vertex -1.5600000e-01 -2.2500000e-01 5.1000000e-02
 endloop
endfacet
facet normal -1.000000e+00 0.000000e+00 0.000000e+00
 outer loop
  vertex -1.5600000e-01 -2.2500000e-01 5.1000000e-02
  vertex -1.5600000e-01 -1.9900000e-01 4.9000000e-02
  vertex -1.5600000e-01 -2.2500000e-01 4.9000000e-02
 endloop
endfacet
facet normal 0.000000e+00 -1.000000e+00 0.000000e+00
 outer loop
  vertex -1.5600000e-01 -2.2500000e-01 5.1000000e-02
  vertex -1.5600000e-01 -2.2500000e-01 4.9000000e-02
  vertex -1.4200000e-01 -2.2500000e-01 5.1000000e-02
 endloop
endfacet
facet normal 0.000000e+00 -1.000000e+00 -0.000000e+00
 outer loop
  vertex -1.4200000e-01 -2.2500000e-01 5.1000000e-02
  vertex -1.5600000e-01 -2.2500000e-01 4.9000000e-02
  vertex -1.4200000e-01 -2.2500000e-01 4.9000000e-02
 endloop
endfacet
facet normal 0.000000e+00 0.000000e+00 -1.000000e+00
 outer loop
  vertex -1.5600000e-01 -2.2500000e-01 4.9000000e-02
  vertex -1.5600000e-01 -1.9900000e-01 4.9000000e-02
  vertex -1.4200000e-01 -2.2500000e-01 4.9000000e-02
 endloop
endfacet
facet normal 0.000000e+00 0.000000e+00 -1.000000e+00
 outer loop
  vertex -1.5600000e-01 -1.9900000e-01 4.9000000e-02
  vertex -1.4200000e-01 -1.9900000e-01 4.9000000e-02
  vertex -1.4200000e-01 -2.2500000e-01 4.9000000e-02
 endloop
endfacet
facet normal 0.000000e+00 0.000000e+00 1.000000e+00
 outer loop
  vertex -1.5600000e-01 -2.2500000e-01 5.1000000e-02
  vertex -1.4200000e-01 -2.2500000e-01 5.1000000e-02
  vertex -1.5600000e-01 -1.9900000e-01 5.1000000e-02
 endloop
endfacet
facet normal -0.000000e+00 0.000000e+00 1.000000e+00
 outer loop
  vertex -1.5600000e-01 -1.9900000e-01 5.1000000e-02
  vertex -1.4200000e-01 -2.2500000e-01 5.1000000e-02
  vertex -1.4200000e-01 -1.9900000e-01 5.1000000e-02
 endloop
endfacet
facet normal 1.000000e+00 -0.000000e+00 0.000000e+00
 outer loop
  vertex -1.4200000e-01 -1.3100000e-01 5.1000000e-02
  vertex -1.4200000e-01 -1.3100000e-01 4.9000000e-02
  vertex -1.4200000e-01 -1.0500000e-01 5.1000000e-02
 endloop
endfacet
facet normal 1.000000e+00 0.000000e+00 0.000000e+00
 outer loop
  vertex -1.4200000e-01 -1.0500000e-01 5.1000000e-02
  vertex -1.4200000e-01 -1.3100000e-01 4.9000000e-02
  vertex -1.4200000e-01 -1.0500000e-01 4.9000000e-02
 endloop
endfacet
facet normal 0.000000e+00 1.000000e+00 0.000000e+00
 outer loop
  vertex -1.4200000e-01 -1.0500000e-01 5.1000000e-02
  vertex -1.4200000e-01 -1.0500000e-01 4.9000000e-02
  vertex -1.5600000e-01 -1.0500000e-01 5.1000000e-02
 endloop
endfacet
facet normal 0.000000e+00 1.000000e+00 0.000000e+00
 outer loop
  vertex -1.5600000e-01 -1.0500000e-01 5.1000000e-02
  vertex -1.4200000e-01 -1.0500000e-01 4.9000000e-02
  vertex -1.5600000e-01 -1.0500000e-01 4.9000000e-02
 endloop
endfacet
facet normal -1.000000e+00 -0.000000e+00 -0.000000e+00
 outer loop
  vertex -1.5600000e-01 -1.0500000e-01 5.1000000e-02
  vertex -1.5600000e-01 -1.0500000e-01 4.9000000e-02
  vertex -1.5600000e-01 -1.3100000e-01 5.1000000e-02
 endloop
endfacet
facet normal -1.000000e+00 0.000000e+00 0.000000e+00
 outer loop
  vertex -1.5600000e-01 -1.3100000e-01 5.1000000e-02
  vertex -1.5600000e-01 -1.0500000e-01 4.9000000e-02
  vertex -1.5600000e-01 -1.3100000e-01 4.9000000e-02
 endloop
endfacet
facet normal 0.000000e+00 -1.000000e+00 0.000000e+00
 outer loop
  vertex -1.5600000e-01 -1.3100000e-01 5.1000000e-02
  vertex -1.5600000e-01 -1.3100000e-01 4.9000000e-02
  vertex -1.4200000e-01 -1.3100000e-01 5.1000000e-02
 endloop
endfacet
facet normal 0.000000e+00 -1.000000e+00 -0.000000e+00
 outer loop
  vertex -1.4200000e-01 -1.3100000e-01 5.1000000e-02
  vertex -1.5600000e-01 -1.3100000e-01 4.9000000e-02
  vertex -1.4200000e-01 -1.3100000e-01 4.9000000e-02
 endloop
endfacet
facet normal 0.000000e+00 0.000000e+00 -1.000000e+00
 outer loop
  vertex -1.5600000e-01 -1.3100000e-01 4.9000000e-02
  vertex -1.5600000e-01 -1.0500000e-01 4.9000000e-02
  vertex -1.4200000e-01 -1.3100000e-01 4.9000000e-02
 endloop
endfacet
facet normal 0.000000e+00 0.000000e+00 -1.000000e+00
 outer loop
  vertex -1.5600000e-01 -1.0500000e-01 4.9000000e-02
  vertex -1.4200000e-01 -1.0500000e-01 4.9000000e-02
  vertex -1.4200000e-01 -1.3100000e-01 4.9000000e-02
 endloop
endfacet
facet normal 0.000000e+00 0.000000e+00 1.000000e+00
 outer loop
  vertex -1.5600000e-01 -1.3100000e-01 5.1000000e-02
  vertex -1.4200000e-01 -1.3100000e-01 5.1000000e-02
  vertex -1.5600000e-01 -1.0500000e-01 5.1000000e-02
 endloop
endfacet
facet normal -0.000000e+00 0.000000e+00 1.000000e+00
 outer loop
  vertex -1.5600000e-01 -1.0500000e-01 5.1000000e-02
  vertex -1.4200000e-01 -1.3100000e-01 5.1000000e-02
  vertex -1.4200000e-01 -1.0500000e-01 5.1000000e-02
 endloop
endfacet
endsolid vehicles_details
